<?xml version="1.0" encoding="utf-8"?>
<!-- Generator: Adobe Illustrator 26.2.1, SVG Export Plug-In . SVG Version: 6.00 Build 0)  -->
<svg version="1.1" id="Layer_1" xmlns="http://www.w3.org/2000/svg" xmlns:xlink="http://www.w3.org/1999/xlink" x="0px" y="0px"
	 viewBox="0 0 841.9 595.3" style="enable-background:new 0 0 841.9 595.3;" xml:space="preserve">
<style type="text/css">
	.st0{fill:#F4D6E9;stroke:#000000;stroke-linejoin:round;stroke-miterlimit:10;}
	.st1{fill:#C9E5F9;stroke:#000000;stroke-linejoin:round;stroke-miterlimit:10;}
	.st2{font-family:'ArialMT';}
	.st3{font-size:11px;}
	.st4{font-family:'FiraCode-Regular';}
	.st5{font-size:9px;}
	.st6{fill:none;stroke:#000000;stroke-linejoin:round;}
	.st7{fill:none;stroke:#000000;stroke-linejoin:round;stroke-miterlimit:10;}
	.st8{fill:none;stroke:#000000;stroke-miterlimit:10;}
</style>
<path class="st0" d="M312.2,559.2H189.8c-1.9,0-3.5-1.6-3.5-3.5v-14.4c0-1.9,1.6-3.5,3.5-3.5h122.4c1.9,0,3.5,1.6,3.5,3.5v14.4
	C315.7,557.7,314.1,559.2,312.2,559.2z"/>
<path class="st1" d="M244.2,528.5H183c-1.9,0-3.5-1.6-3.5-3.5v-14.4c0-1.9,1.6-3.5,3.5-3.5h61.2c1.9,0,3.5,1.6,3.5,3.5V525
	C247.7,527,246.1,528.5,244.2,528.5z"/>
<text transform="matrix(1 0 0 1 32.2107 51.9407)" class="st2 st3">Sequencing</text>
<text transform="matrix(1 0 0 1 36.8061 106.1793)" class="st2 st3">Alignment</text>
<text transform="matrix(1 0 0 1 35.8963 162.092)" class="st2 st3">Reduction</text>
<g>
	<path class="st1" d="M176.1,88.3h-61.2c-1.9,0-3.5-1.6-3.5-3.5V70.4c0-1.9,1.6-3.5,3.5-3.5h61.2c1.9,0,3.5,1.6,3.5,3.5v14.4
		C179.5,86.7,178,88.3,176.1,88.3z"/>
	<text transform="matrix(1 0 0 1 127.1371 81.1045)" class="st2 st3">FASTQ</text>
</g>
<g>
	<path class="st1" d="M176.1,138.4h-61.2c-1.9,0-3.5-1.6-3.5-3.5v-14.4c0-1.9,1.6-3.5,3.5-3.5h61.2c1.9,0,3.5,1.6,3.5,3.5v14.4
		C179.5,136.8,178,138.4,176.1,138.4z"/>
	<text transform="matrix(1 0 0 1 133.5523 131.2536)" class="st2 st3">BAM</text>
</g>
<g>
	<path class="st0" d="M380.6,88.3H192.2c-1.9,0-3.5-1.6-3.5-3.5V70.4c0-1.9,1.6-3.5,3.5-3.5h188.4c1.9,0,3.5,1.6,3.5,3.5v14.4
		C384.1,86.7,382.5,88.3,380.6,88.3z"/>
	<text transform="matrix(1 0 0 1 195.0423 81.1046)" class="st4 st5">ShortReads, Biostrings, qrqc, ...</text>
</g>
<g>
	<path class="st0" d="M380.6,138.4H192.2c-1.9,0-3.5-1.6-3.5-3.5v-14.4c0-1.9,1.6-3.5,3.5-3.5h188.4c1.9,0,3.5,1.6,3.5,3.5v14.4
		C384.1,136.8,382.5,138.4,380.6,138.4z"/>
	<text transform="matrix(1 0 0 1 195.0423 131.3255)" class="st4 st5">Rsamtools, GenomicAlignments, ...</text>
</g>
<g>
	<path class="st1" d="M518.5,238.6H374.2c-1.9,0-3.5-1.6-3.5-3.5v-36c0-1.9,1.6-3.5,3.5-3.5h144.3c1.9,0,3.5,1.6,3.5,3.5v36
		C522,237.1,520.5,238.6,518.5,238.6z"/>
	<text transform="matrix(1 0 0 1 391.969 213.4986)"><tspan x="0" y="0" class="st2 st3">Differential expression</tspan><tspan x="7.3" y="13.2" class="st2 st3">(genes, transcripts)</tspan></text>
</g>
<g>
	<path class="st0" d="M531.6,282h-151c-1.9,0-3.5-1.6-3.5-3.5v-28.4c0-1.9,1.6-3.5,3.5-3.5h151c1.9,0,3.5,1.6,3.5,3.5v28.4
		C535.1,280.4,533.6,282,531.6,282z"/>
	<text transform="matrix(1 0 0 1 417.3644 260.6204)"><tspan x="0" y="0" class="st4 st5">edgeR, DESeq2,</tspan><tspan x="-11.1" y="13" class="st4 st5">DEXSeq, SGSeq, ...</tspan></text>
</g>
<g>
	<path class="st1" d="M275.6,334.4h-92.3c-1.9,0-3.5-1.6-3.5-3.5v-14.4c0-1.9,1.6-3.5,3.5-3.5h92.3c1.9,0,3.5,1.6,3.5,3.5v14.4
		C279.1,332.9,277.6,334.4,275.6,334.4z"/>
	<text transform="matrix(1 0 0 1 185.4851 327.2723)" class="st2 st3">Peaks (.bed, .wig)</text>
</g>
<g>
	<path class="st0" d="M312.2,364.2H189.8c-1.9,0-3.5-1.6-3.5-3.5v-14.4c0-1.9,1.6-3.5,3.5-3.5h122.4c1.9,0,3.5,1.6,3.5,3.5v14.4
		C315.7,362.7,314.1,364.2,312.2,364.2z"/>
	<text transform="matrix(1 0 0 1 220.5512 357.7029)" class="st4 st5">rtracklayer</text>
</g>
<g>
	<path class="st1" d="M518.5,344.4H373.4c-1.9,0-3.5-1.6-3.5-3.5V308c0-1.9,1.6-3.5,3.5-3.5h145.1c1.9,0,3.5,1.6,3.5,3.5v32.9
		C522,342.9,520.5,344.4,518.5,344.4z"/>
	<text transform="matrix(1 0 0 1 418.1618 320.799)"><tspan x="0" y="0" class="st2 st3">Annotation;</tspan><tspan x="-17.7" y="13.2" class="st2 st3">Differential binding</tspan></text>
</g>
<g>
	<path class="st0" d="M531.6,387.6h-151c-1.9,0-3.5-1.6-3.5-3.5v-28.4c0-1.9,1.6-3.5,3.5-3.5h151c1.9,0,3.5,1.6,3.5,3.5v28.4
		C535.1,386,533.6,387.6,531.6,387.6z"/>
	<text transform="matrix(1 0 0 1 392.4415 366.2667)"><tspan x="0" y="0" class="st4 st5">ChIPpeakAnno, DiffBind,</tspan><tspan x="5.5" y="13" class="st4 st5">ChIPseeker, csaw, ...</tspan></text>
</g>
<g>
	<path class="st1" d="M275.9,418.8h-92.5c-1.9,0-3.5-1.6-3.5-3.5V401c0-1.9,1.6-3.5,3.5-3.5h92.5c1.9,0,3.5,1.6,3.5,3.5v14.4
		C279.4,417.3,277.8,418.8,275.9,418.8z"/>
	<text transform="matrix(1 0 0 1 195.6956 411.6751)" class="st2 st3">Variants (.vcf)</text>
</g>
<g>
	<path class="st0" d="M312.2,470.6H189.8c-1.9,0-3.5-1.6-3.5-3.5v-35c0-1.9,1.6-3.5,3.5-3.5h122.4c1.9,0,3.5,1.6,3.5,3.5v35
		C315.7,469,314.1,470.6,312.2,470.6z"/>
	<text transform="matrix(1 0 0 1 201.1666 440.2917)"><tspan x="0" y="0" class="st4 st5">VariantAnnotation,</tspan><tspan x="-2.8" y="13" class="st4 st5">VariantTools, h5vc,</tspan><tspan x="41.5" y="26" class="st4 st5">...</tspan></text>
</g>
<g>
	<path class="st1" d="M518.5,419.2H374.8c-1.9,0-3.5-1.6-3.5-3.5v-14.4c0-1.9,1.6-3.5,3.5-3.5h143.8c1.9,0,3.5,1.6,3.5,3.5v14.4
		C522,417.7,520.5,419.2,518.5,419.2z"/>
	<text transform="matrix(1.0277 0 0 1 382.8927 412.0805)" class="st2 st3">Effect predictions; GWAS</text>
</g>
<g>
	<path class="st0" d="M531.6,469.2h-151c-1.9,0-3.5-1.6-3.5-3.5v-35.1c0-1.9,1.6-3.5,3.5-3.5h151c1.9,0,3.5,1.6,3.5,3.5v35.1
		C535.1,467.6,533.6,469.2,531.6,469.2z"/>
	<text transform="matrix(1 0 0 1 392.4418 444.4743)"><tspan x="0" y="0" class="st4 st5">ChIPpeakAnno, DiffBind,</tspan><tspan x="5.5" y="13" class="st4 st5">ChIPseeker, csaw, ...</tspan></text>
</g>
<text transform="matrix(1 0 0 1 206.7591 523.3331)" class="st2 st3">...</text>
<text transform="matrix(1 0 0 1 246.4276 552.0831)" class="st2 st3">...</text>
<g>
	<path class="st0" d="M801.3,303.5h-151c-1.9,0-3.5-1.6-3.5-3.5v-65.2c0-1.9,1.6-3.5,3.5-3.5h151c1.9,0,3.5,1.6,3.5,3.5V300
		C804.8,301.9,803.3,303.5,801.3,303.5z"/>
	<text transform="matrix(1 0 0 1 703.676 252.7394)"><tspan x="0" y="0" class="st4 st5">IRanges,</tspan><tspan x="-16.6" y="13" class="st4 st5">GenomicRanges,</tspan><tspan x="-27.7" y="26" class="st4 st5">GenomicAlignments,</tspan><tspan x="13.8" y="39" class="st4 st5">...</tspan></text>
</g>
<g>
	<path class="st0" d="M803,412.6H652c-1.9,0-3.5-1.6-3.5-3.5v-82.3c0-1.9,1.6-3.5,3.5-3.5h151c1.9,0,3.5,1.6,3.5,3.5v82.3
		C806.5,411,804.9,412.6,803,412.6z"/>
	<text transform="matrix(1 0 0 1 688.7079 342.6917)"><tspan x="0" y="0" class="st4 st5">AnnotationDbi,</tspan><tspan x="-5.5" y="13" class="st4 st5">GenomicFeatures,</tspan><tspan x="2.8" y="26" class="st4 st5">org.*, TxDb*,</tspan><tspan x="-11.1" y="39" class="st4 st5">biomaRt, PSICQUIC,</tspan><tspan x="2.8" y="52" class="st4 st5">KEGGREST, ...</tspan></text>
</g>
<g>
	<path class="st0" d="M803,484.1H652c-1.9,0-3.5-1.6-3.5-3.5v-41.7c0-1.9,1.6-3.5,3.5-3.5h151c1.9,0,3.5,1.6,3.5,3.5v41.7
		C806.5,482.5,804.9,484.1,803,484.1z"/>
	<text transform="matrix(1 0 0 1 669.3235 456.0804)"><tspan x="0" y="0" class="st4 st5">Gviz, ggbio, epivisr,</tspan><tspan x="-5.5" y="13" class="st4 st5">rtracklayer, SRAdb, ...</tspan></text>
</g>
<g>
	<g>
		<line class="st6" x1="145.5" y1="88.3" x2="145.5" y2="111.7"/>
		<g>
			<polygon points="141.7,110.6 145.5,117.1 149.2,110.6 			"/>
		</g>
	</g>
</g>
<line class="st7" x1="145.5" y1="138.4" x2="145.5" y2="517.8"/>
<g>
	<g>
		<line class="st6" x1="145.5" y1="517.8" x2="174.5" y2="517.8"/>
		<g>
			<polygon points="173.4,521.6 179.9,517.8 173.4,514.1 			"/>
		</g>
	</g>
</g>
<text transform="matrix(1 0 0 1 336.9055 167.2061)" class="st2 st3">Analysis</text>
<text transform="matrix(1 0 0 1 658.0435 167.8777)" class="st2 st3">Integration &amp; Visualization</text>
<g>
	<g>
		<line class="st6" x1="145.5" y1="216.6" x2="174.5" y2="216.6"/>
		<g>
			<polygon points="173.4,220.3 179.9,216.6 173.4,212.8 			"/>
		</g>
	</g>
</g>
<g>
	<g>
		<line class="st6" x1="145.5" y1="323.8" x2="174.5" y2="323.8"/>
		<g>
			<polygon points="173.4,327.5 179.9,323.8 173.4,320 			"/>
		</g>
	</g>
</g>
<g>
	<path class="st1" d="M275.5,227.2h-92.3c-1.9,0-3.5-1.6-3.5-3.5v-14.4c0-1.9,1.6-3.5,3.5-3.5h92.3c1.9,0,3.5,1.6,3.5,3.5v14.4
		C279,225.7,277.4,227.2,275.5,227.2z"/>
	<text transform="matrix(1 0 0 1 196.9728 220.0939)" class="st2 st3">Counts (.csv)</text>
</g>
<g>
	<g>
		<line class="st6" x1="145.5" y1="408.2" x2="174.5" y2="408.2"/>
		<g>
			<polygon points="173.4,411.9 179.9,408.2 173.4,404.4 			"/>
		</g>
	</g>
</g>
<path class="st0" d="M530.5,559.2H408.1c-1.9,0-3.5-1.6-3.5-3.5v-14.4c0-1.9,1.6-3.5,3.5-3.5h122.4c1.9,0,3.5,1.6,3.5,3.5v14.4
	C534,557.7,532.4,559.2,530.5,559.2z"/>
<path class="st1" d="M462.5,528.5h-61.2c-1.9,0-3.5-1.6-3.5-3.5v-14.4c0-1.9,1.6-3.5,3.5-3.5h61.2c1.9,0,3.5,1.6,3.5,3.5V525
	C466,527,464.4,528.5,462.5,528.5z"/>
<text transform="matrix(1 0 0 1 425.0653 523.3331)" class="st2 st3">...</text>
<text transform="matrix(1 0 0 1 464.7337 552.0831)" class="st2 st3">...</text>
<g>
	<g>
		<line class="st6" x1="246.8" y1="517.8" x2="390.3" y2="517.8"/>
		<g>
			<polygon points="389.2,521.6 395.7,517.8 389.2,514.1 			"/>
		</g>
	</g>
</g>
<g>
	<g>
		<line class="st6" x1="278.8" y1="217.2" x2="364.6" y2="217.2"/>
		<g>
			<polygon points="363.5,220.9 369.9,217.2 363.5,213.4 			"/>
		</g>
	</g>
</g>
<g>
	<g>
		<line class="st6" x1="278.8" y1="324.5" x2="364.6" y2="324.5"/>
		<g>
			<polygon points="363.5,328.2 369.9,324.5 363.5,320.7 			"/>
		</g>
	</g>
</g>
<g>
	<g>
		<line class="st6" x1="280.3" y1="408.2" x2="366" y2="408.2"/>
		<g>
			<polygon points="364.9,411.9 371.4,408.2 364.9,404.4 			"/>
		</g>
	</g>
</g>
<g>
	<path class="st8" d="M564.3,207c6.2-0.9,12.1,3.5,15,9s3.5,11.9,4,18.1c3,38.2,6.1,76.4,9.1,114.6c0.4,5.5,0.9,11.1,3.2,16.1
		s6.8,9.3,12.2,9.9"/>
	<path class="st8" d="M564.3,542.7c6.2,0.9,12.1-3.5,15-9c2.9-5.5,3.5-11.9,4-18.1c3-38.2,6.1-76.4,9.1-114.6
		c0.4-5.5,0.9-11.1,3.2-16.1s6.8-9.3,12.2-9.9"/>
</g>
<g>
	<g>
		<path class="st0" d="M312.2,286.4H189.8c-1.9,0-3.5-1.6-3.5-3.5v-44.3c0-1.9,1.6-3.5,3.5-3.5h122.4c1.9,0,3.5,1.6,3.5,3.5v44.3
			C315.7,284.9,314.1,286.4,312.2,286.4z"/>
		<text transform="matrix(1 0 0 1 232.9759 251.8985)" class="st2 st3">Base R</text>
	</g>
	<text transform="matrix(1 0 0 1 205.083 265.722)"><tspan x="0" y="0" class="st4 st5">GenomicAlignments,</tspan><tspan x="13.8" y="13" class="st4 st5">Rsubread, ...</tspan></text>
</g>
</svg>
