<?xml version="1.0" encoding="utf-8"?>
<!-- Generator: Adobe Illustrator 25.4.1, SVG Export Plug-In . SVG Version: 6.00 Build 0)  -->
<svg version="1.1" id="Layer_1" xmlns="http://www.w3.org/2000/svg" xmlns:xlink="http://www.w3.org/1999/xlink" x="0px" y="0px"
	 viewBox="0 0 341.9 116.5" style="enable-background:new 0 0 341.9 116.5;" xml:space="preserve">
<style type="text/css">
	.st0{fill:#31AD68;}
	.st1{fill:#00A19A;}
	.st2{fill:#CA9E67;}
	.st3{fill:#020203;}
	.st4{font-family:'ArialMT';}
	.st5{font-size:4px;}
	.st6{fill:none;stroke:#000000;stroke-width:0.25;stroke-miterlimit:10;}
	.st7{font-family:'Arial-ItalicMT';}
	.st8{font-size:3px;}
</style>
<rect x="17.9" y="44.8" class="st0" width="100" height="20"/>
<rect x="117.9" y="44.8" class="st1" width="100" height="20"/>
<rect x="217.9" y="44.8" class="st2" width="100" height="20"/>
<g>
	<text transform="matrix(1 0 0 1 13.4686 70.1059)" class="st3 st4 st5">2000</text>
	<polygon class="st3" points="17.9,64.8 16.9,66.5 18.9,66.5 	"/>
</g>
<g>
	<text transform="matrix(1 0 0 1 213.5765 70.4058)" class="st3 st4 st5">2020</text>
	<polygon class="st3" points="218,65.1 217,66.8 219,66.8 	"/>
</g>
<g>
	<text transform="matrix(1 0 0 1 113.5767 70.4422)" class="st3 st4 st5">2010</text>
	<polygon class="st3" points="118.1,65.1 117.1,66.8 119.1,66.8 	"/>
</g>
<g>
	<text transform="matrix(1 0 0 1 313.5766 70.4058)" class="st3 st4 st5">2030</text>
	<polygon class="st3" points="318,65.1 317,66.8 319,66.8 	"/>
</g>
<rect x="319.9" y="44.8" class="st2" width="2" height="20"/>
<rect x="323.9" y="44.8" class="st2" width="2" height="20"/>
<rect x="327.9" y="44.8" class="st2" width="2" height="20"/>
<line class="st6" x1="27.9" y1="43.8" x2="27.9" y2="44.8"/>
<line class="st6" x1="63.9" y1="43.8" x2="63.9" y2="44.8"/>
<line class="st6" x1="54.9" y1="43.8" x2="54.9" y2="44.8"/>
<line class="st6" x1="72.9" y1="43.8" x2="72.9" y2="44.8"/>
<line class="st6" x1="45.9" y1="43.8" x2="45.9" y2="44.8"/>
<line class="st6" x1="36.9" y1="43.8" x2="36.9" y2="44.8"/>
<line class="st6" x1="81.9" y1="43.8" x2="81.9" y2="44.8"/>
<line class="st6" x1="90.9" y1="43.8" x2="90.9" y2="44.8"/>
<line class="st6" x1="99.9" y1="43.8" x2="99.9" y2="44.8"/>
<line class="st6" x1="108.9" y1="43.8" x2="108.9" y2="44.8"/>
<line class="st6" x1="127.9" y1="43.8" x2="127.9" y2="44.8"/>
<line class="st6" x1="163.9" y1="43.8" x2="163.9" y2="44.8"/>
<line class="st6" x1="154.9" y1="43.8" x2="154.9" y2="44.8"/>
<line class="st6" x1="172.9" y1="43.8" x2="172.9" y2="44.8"/>
<line class="st6" x1="145.9" y1="43.8" x2="145.9" y2="44.8"/>
<line class="st6" x1="136.9" y1="43.8" x2="136.9" y2="44.8"/>
<line class="st6" x1="181.9" y1="43.8" x2="181.9" y2="44.8"/>
<line class="st6" x1="190.9" y1="43.8" x2="190.9" y2="44.8"/>
<line class="st6" x1="199.9" y1="43.8" x2="199.9" y2="44.8"/>
<line class="st6" x1="208.9" y1="43.8" x2="208.9" y2="44.8"/>
<line class="st6" x1="227.9" y1="43.8" x2="227.9" y2="44.8"/>
<line class="st6" x1="263.9" y1="43.8" x2="263.9" y2="44.8"/>
<line class="st6" x1="254.9" y1="43.8" x2="254.9" y2="44.8"/>
<line class="st6" x1="272.9" y1="43.8" x2="272.9" y2="44.8"/>
<line class="st6" x1="245.9" y1="43.8" x2="245.9" y2="44.8"/>
<line class="st6" x1="236.9" y1="43.8" x2="236.9" y2="44.8"/>
<line class="st6" x1="281.9" y1="43.8" x2="281.9" y2="44.8"/>
<line class="st6" x1="290.9" y1="43.8" x2="290.9" y2="44.8"/>
<line class="st6" x1="299.9" y1="43.8" x2="299.9" y2="44.8"/>
<line class="st6" x1="308.9" y1="43.8" x2="308.9" y2="44.8"/>
<text transform="matrix(1 0 0 1 19.7518 38.2519)"><tspan x="0" y="0" class="st7 st8">First commit</tspan><tspan x="4.8" y="3.6" class="st7 st8">2001</tspan></text>
<text transform="matrix(1 0 0 1 24.2914 81.7873)" class="st4 st8">Microarrays</text>
<text transform="matrix(1 0 0 1 50.1011 90.4091)" class="st4 st8">RNA-sequencing</text>
<text transform="matrix(1 0 0 1 38.6731 96.9544)" class="st4 st8">DNA-sequencing</text>
<text transform="matrix(1 0 0 1 108.9177 93.9833)" class="st4 st8">Single-cell RNA-sequencing</text>
<text transform="matrix(1 0 0 1 202.1429 84.2007)" class="st4 st8">Single-cell multimodal omics</text>
<text transform="matrix(1 0 0 1 99.9179 50.0743)" class="st4 st8">GenomicRanges</text>
<text transform="matrix(1 0 0 1 23.4693 50.0742)" class="st4 st8">Biobase</text>
<text transform="matrix(1 0 0 1 114.1301 54.7954)" class="st4 st8">BiocGenerics</text>
<text transform="matrix(1 0 0 1 81.9178 60.7403)" class="st4 st8">rtracklayer</text>
<text transform="matrix(1 0 0 1 120.3081 63.178)" class="st4 st8">VariantAnnotation</text>
<text transform="matrix(1 0 0 1 103.3381 63.1779)" class="st4 st8">Rsamtools</text>
<text transform="matrix(1 0 0 1 24.5165 54.7954)" class="st4 st8">Biostrings</text>
<text transform="matrix(1 0 0 1 92.223 55.4251)" class="st4 st8">ShortRead</text>
<text transform="matrix(1 0 0 1 212.5906 48.4868)" class="st4 st8">Spectra</text>
<text transform="matrix(1 0 0 1 114.1363 59.1833)" class="st4 st8">MSnbase</text>
<text transform="matrix(1 0 0 1 150.6033 48.9067)" class="st4 st8">SummarizedExperiment</text>
<text transform="matrix(1 0 0 1 165.9123 52.6476)" class="st4 st8">SingleCellExperiment</text>
<text transform="matrix(1 0 0 1 179.5814 56.9992)" class="st4 st8">RaggedExperiment</text>
<text transform="matrix(1 0 0 1 78.3768 50.671)" class="st4 st8">GSEABase</text>
<text transform="matrix(1 0 0 1 167.9182 61.37)" class="st4 st8">MultiAssayExperiment</text>
<text transform="matrix(1 0 0 1 204.2197 52.6113)" class="st4 st8">BiocSet</text>
<text transform="matrix(1 0 0 1 57.1639 20.0435)"><tspan x="0" y="0" class="st7 st8">First conference</tspan><tspan x="9.9" y="3.6" class="st7 st8">?</tspan></text>
<text transform="matrix(1 0 0 1 69.5129 30.8411)"><tspan x="0" y="0" class="st7 st8">First workshop</tspan><tspan x="8.9" y="3.6" class="st7 st8">?</tspan></text>
<text transform="matrix(1 0 0 1 27.2087 25.08)"><tspan x="0" y="0" class="st7 st8">First package</tspan><tspan x="8.2" y="3.6" class="st7 st8">?</tspan></text>
<text transform="matrix(1 0 0 1 38.0489 15.6787)"><tspan x="0" y="0" class="st7 st8">Website</tspan><tspan x="4.6" y="3.6" class="st7 st8">?</tspan></text>
<text transform="matrix(1 0 0 1 92.8186 20.0767)"><tspan x="0" y="0" class="st7 st8">Support website</tspan><tspan x="9.9" y="3.6" class="st7 st8">?</tspan></text>
<text transform="matrix(1 0 0 1 168.5637 25.0799)"><tspan x="0" y="0" class="st7 st8">Slack workspace</tspan><tspan x="10.4" y="3.6" class="st7 st8">?</tspan></text>
<text transform="matrix(1 0 0 1 121.2787 23.677)"><tspan x="0" y="0" class="st7 st8">Scientific Advisory Board</tspan><tspan x="15.8" y="3.6" class="st7 st8">?</tspan></text>
<text transform="matrix(1 0 0 1 131.6749 34.0391)"><tspan x="0" y="0" class="st7 st8">Technical Advisory Board</tspan><tspan x="16.2" y="3.6" class="st7 st8">?</tspan></text>
<text transform="matrix(1 0 0 1 199.8533 34.4416)"><tspan x="0" y="0" class="st7 st8">Community Advisory Board</tspan><tspan x="14.8" y="3.6" class="st7 st8">2020</tspan></text>
<line class="st6" x1="117.9" y1="43.8" x2="117.9" y2="44.8"/>
<line class="st6" x1="217.9" y1="43.8" x2="217.9" y2="44.8"/>
<line class="st6" x1="17.9" y1="43.8" x2="17.9" y2="44.8"/>
<line class="st6" x1="317.9" y1="43.8" x2="317.9" y2="44.8"/>
</svg>
