<?xml version="1.0" encoding="utf-8"?>
<!-- Generator: Adobe Illustrator 25.4.1, SVG Export Plug-In . SVG Version: 6.00 Build 0)  -->
<svg version="1.1" id="Layer_1" xmlns="http://www.w3.org/2000/svg" xmlns:xlink="http://www.w3.org/1999/xlink" x="0px" y="0px"
	 viewBox="0 0 841.9 595.3" style="enable-background:new 0 0 841.9 595.3;" xml:space="preserve">
<style type="text/css">
	.st0{fill:#EDEDED;stroke:#575756;stroke-miterlimit:10;}
	.st1{fill:none;stroke:#000000;stroke-miterlimit:10;}
	.st2{font-family:'MyriadPro-Regular';}
	.st3{font-size:12px;}
	.st4{fill:#009640;}
</style>
<rect x="496.9" y="116" class="st0" width="170.8" height="30.8"/>
<rect x="633.2" y="386.7" class="st0" width="170.8" height="61.5"/>
<rect x="356.1" y="386.7" class="st0" width="170.8" height="61.5"/>
<rect x="353.3" y="233.2" class="st0" width="176.3" height="24.7"/>
<rect x="88.7" y="532.2" class="st0" width="182" height="52.8"/>
<rect x="88.7" y="81.1" class="st1" width="182" height="27.8"/>
<text transform="matrix(1 0 0 1 158.0379 98.3058)" class="st2 st3">S4Class1</text>
<text transform="matrix(1 0 0 1 100.216 139.7317)" class="st2 st3">SlotName1</text>
<text transform="matrix(1 0 0 1 100.2156 161.0053)" class="st2 st3">SlotName2</text>
<text transform="matrix(1 0 0 1 197.7708 139.7321)" class="st2 st3">SlotType1</text>
<text transform="matrix(1 0 0 1 197.7707 161.1372)" class="st2 st3">SlotType2</text>
<rect x="88.7" y="109" class="st1" width="182" height="71.6"/>
<rect x="88.7" y="299.1" class="st1" width="182" height="27.8"/>
<text transform="matrix(1 0 0 1 158.0379 316.3258)" class="st2 st3">S4Class2</text>
<text transform="matrix(1 0 0 1 100.216 385.2216)" class="st2 st3">SlotName1</text>
<text transform="matrix(1 0 0 1 100.2156 406.4952)" class="st2 st3">SlotName2</text>
<text transform="matrix(1 0 0 1 197.7708 385.222)" class="st2 st3">SlotType1</text>
<text transform="matrix(1 0 0 1 197.7707 406.6271)" class="st2 st3">SlotType2</text>
<rect x="88.7" y="354.5" class="st1" width="182" height="93.7"/>
<rect x="88.7" y="327" class="st1" width="182" height="27.8"/>
<text transform="matrix(1 0 0 1 134.2244 344.1671)" class="st2 st3">contains: S4Class1</text>
<text transform="matrix(1 0 0 1 100.2809 428.6328)" class="st4 st2 st3">SlotName3</text>
<text transform="matrix(1 0 0 1 197.836 428.7648)" class="st4 st2 st3">SlotType3</text>
<g>
	<g>
		<line class="st1" x1="179.7" y1="222.4" x2="179.7" y2="292"/>
		<g>
			<polygon points="174.7,290.5 179.7,299.1 184.7,290.5 			"/>
		</g>
	</g>
</g>
<text transform="matrix(1 0 0 1 192.5273 264.2894)" class="st2 st3">inheritance</text>
<rect x="88.7" y="180.5" class="st1" width="182" height="41.9"/>
<text transform="matrix(1 0 0 1 100.785 202.6698)" class="st2 st3">Validity rules for S4Class1</text>
<rect x="88.7" y="448.2" class="st1" width="182" height="66"/>
<text transform="matrix(1 0 0 1 100.785 470.3212)" class="st2 st3">Validity rules for S4Class1</text>
<text transform="matrix(1 0 0 1 100.7193 492.6823)" class="st4 st2 st3">Validity rules for S4Class2</text>
<rect x="491.2" y="81.1" class="st1" width="182" height="27.8"/>
<text transform="matrix(1 0 0 1 550.4632 98.3058)" class="st2 st3">S4Generic1()</text>
<g>
	<g>
		<path d="M504.8,128.6l1.6-0.1h3.1v0.7h-4.7V128.6z M506.4,128.1c0-1.3,0.7-2.2,2.2-2.2c0.5,0,1,0.1,1.5,0.3l-0.2,0.7
			c-0.4-0.2-0.8-0.3-1.2-0.3c-1,0-1.3,0.5-1.3,1.4v5.8h-0.9V128.1z"/>
		<path d="M511.2,131.9v-3.3h0.9v3.2c0,1,0.4,1.5,1.2,1.5c0.6,0,1.1-0.3,1.7-1v-3.7h0.9v5.3h-0.8L515,133h0c-0.5,0.6-1.2,1.1-2,1.1
			C511.7,134.1,511.2,133.3,511.2,131.9z"/>
		<path d="M517.9,128.6h0.7l0.1,0.9h0c0.6-0.6,1.2-1,2-1c1.3,0,1.8,0.7,1.8,2.2v3.3h-0.9v-3.2c0-1-0.4-1.5-1.2-1.5
			c-0.6,0-1.1,0.3-1.7,1v3.7h-0.9V128.6z"/>
		<path d="M524.4,131.3c0-1.8,1.4-2.8,3-2.8c0.9,0,1.5,0.4,1.9,0.8l-0.5,0.6c-0.4-0.4-0.9-0.6-1.5-0.6c-1.2,0-2.1,0.8-2.1,2.1
			c0,1.2,0.8,2,2.1,2c0.7,0,1.2-0.3,1.7-0.7l0.4,0.6c-0.6,0.5-1.3,0.8-2.1,0.8C525.6,134.1,524.4,133,524.4,131.3z"/>
		<path d="M532.4,131.8v-2.5h-1.5v-0.7l1.6-0.1l0.1-1.7h0.8v1.7h2.6v0.7h-2.6v2.5c0,1,0.3,1.5,1.4,1.5c0.5,0,0.9-0.1,1.3-0.2
			l0.2,0.7c-0.5,0.2-1,0.3-1.7,0.3C532.9,134.1,532.4,133.2,532.4,131.8z"/>
		<path d="M540.2,129.3h-2.5v-0.7h3.4v5.3h-0.9V129.3z M539.8,126.8c0-0.4,0.3-0.7,0.7-0.7s0.7,0.3,0.7,0.7c0,0.4-0.3,0.7-0.7,0.7
			S539.8,127.2,539.8,126.8z"/>
		<path d="M544,131.3c0-1.8,1.2-2.8,2.6-2.8s2.6,1,2.6,2.8c0,1.8-1.2,2.8-2.6,2.8S544,133,544,131.3z M548.3,131.3
			c0-1.2-0.7-2.1-1.7-2.1s-1.7,0.8-1.7,2.1c0,1.2,0.7,2,1.7,2S548.3,132.5,548.3,131.3z"/>
		<path d="M550.9,128.6h0.7l0.1,0.9h0c0.6-0.6,1.2-1,2-1c1.3,0,1.8,0.7,1.8,2.2v3.3h-0.9v-3.2c0-1-0.4-1.5-1.2-1.5
			c-0.6,0-1.1,0.3-1.7,1v3.7h-0.9V128.6z"/>
		<path d="M558.8,130.9c0-2.1,0.9-3.8,2.5-5l0.5,0.5c-1.5,1.2-2.2,2.7-2.2,4.5c0,1.8,0.7,3.3,2.2,4.5l-0.5,0.5
			C559.7,134.7,558.8,133,558.8,130.9z"/>
		<path d="M565.8,131.2l-1.9-2.6h1l0.8,1.2c0.2,0.3,0.4,0.6,0.6,0.9h0c0.2-0.3,0.4-0.6,0.6-0.9l0.8-1.2h1l-1.9,2.7l2,2.7h-1
			l-0.9-1.2c-0.2-0.3-0.5-0.7-0.7-1h0c-0.2,0.3-0.4,0.6-0.7,1l-0.9,1.2h-1L565.8,131.2z"/>
		<path d="M571.9,135.7c0.9-0.4,1.4-1,1.4-1.9l-0.2-1l0.6,0.9c-0.2,0.2-0.4,0.3-0.6,0.3c-0.5,0-0.9-0.3-0.9-0.8
			c0-0.5,0.4-0.8,0.9-0.8c0.6,0,1,0.5,1,1.4c0,1.3-0.7,2.2-1.9,2.6L571.9,135.7z"/>
		<path d="M583.6,136.1l0.2-0.7c0.1,0,0.3,0.1,0.5,0.1c0.7,0,1.2-0.5,1.5-1.1l0.2-0.4l-2.5-5.4h0.9l1.3,2.9c0.2,0.5,0.4,1,0.7,1.6h0
			c0.2-0.5,0.4-1.1,0.6-1.6l1.2-2.9h0.9l-2.4,5.8c-0.4,1.1-1,1.9-2.3,1.9C584.1,136.2,583.8,136.2,583.6,136.1z"/>
		<path d="M591.7,135.7c0.9-0.4,1.4-1,1.4-1.9l-0.2-1l0.6,0.9c-0.2,0.2-0.4,0.3-0.6,0.3c-0.5,0-0.9-0.3-0.9-0.8
			c0-0.5,0.4-0.8,0.9-0.8c0.6,0,1,0.5,1,1.4c0,1.3-0.7,2.2-1.9,2.6L591.7,135.7z"/>
		<path d="M605.1,133.1c0-0.5,0.4-0.9,0.9-0.9s0.9,0.4,0.9,0.9c0,0.6-0.4,0.9-0.9,0.9S605.1,133.7,605.1,133.1z"/>
		<path d="M611.7,133.1c0-0.5,0.4-0.9,0.9-0.9s0.9,0.4,0.9,0.9c0,0.6-0.4,0.9-0.9,0.9S611.7,133.7,611.7,133.1z"/>
		<path d="M618.3,133.1c0-0.5,0.4-0.9,0.9-0.9s0.9,0.4,0.9,0.9c0,0.6-0.4,0.9-0.9,0.9S618.3,133.7,618.3,133.1z"/>
		<path d="M623.8,135.4c1.5-1.2,2.2-2.7,2.2-4.5c0-1.8-0.7-3.3-2.2-4.5l0.5-0.5c1.5,1.2,2.5,2.9,2.5,5c0,2.1-0.9,3.8-2.5,5
			L623.8,135.4z"/>
	</g>
</g>
<rect x="491.2" y="109" class="st1" width="182" height="43.7"/>
<rect x="491.2" y="152.6" class="st1" width="182" height="50.1"/>
<text transform="matrix(1 0 0 1 503.3499 174.7669)"><tspan x="0" y="0" class="st2 st3">signature:</tspan><tspan x="0" y="14.4" class="st2 st3">- x</tspan></text>
<g>
	<g>
		<line class="st1" x1="441.4" y1="264.8" x2="441.4" y2="290.5"/>
		<g>
			<polygon points="436.4,289 441.4,297.6 446.4,289 			"/>
		</g>
	</g>
</g>
<text transform="matrix(1 0 0 1 584.873 219.0492)" class="st2 st3">method dispatch</text>
<rect x="350.4" y="298.1" class="st1" width="182" height="27.8"/>
<text transform="matrix(1 0 0 1 417.2293 315.3258)" class="st2 st3">Method 1</text>
<g>
	<g>
		<path d="M363.7,401.8l1.6-0.1h3.1v0.7h-4.7V401.8z M365.2,401.3c0-1.3,0.7-2.2,2.2-2.2c0.5,0,1,0.1,1.5,0.3l-0.2,0.7
			c-0.4-0.2-0.8-0.3-1.2-0.3c-1,0-1.3,0.5-1.3,1.4v5.8h-0.9V401.3z"/>
		<path d="M370,405v-3.3h0.9v3.2c0,1,0.4,1.5,1.2,1.5c0.6,0,1.1-0.3,1.7-1v-3.7h0.9v5.3H374l-0.1-0.9h0c-0.5,0.6-1.2,1.1-2,1.1
			C370.6,407.2,370,406.4,370,405z"/>
		<path d="M376.8,401.7h0.7l0.1,0.9h0c0.6-0.6,1.2-1,2-1c1.3,0,1.8,0.7,1.8,2.2v3.3h-0.9v-3.2c0-1-0.4-1.5-1.2-1.5
			c-0.6,0-1.1,0.3-1.7,1v3.7h-0.9V401.7z"/>
		<path d="M383.2,404.4c0-1.8,1.4-2.8,3-2.8c0.9,0,1.5,0.4,1.9,0.8l-0.5,0.6c-0.4-0.4-0.9-0.6-1.5-0.6c-1.2,0-2.1,0.8-2.1,2.1
			c0,1.2,0.8,2,2.1,2c0.7,0,1.2-0.3,1.7-0.7l0.4,0.6c-0.6,0.5-1.3,0.8-2.1,0.8C384.5,407.2,383.2,406.2,383.2,404.4z"/>
		<path d="M391.2,405v-2.5h-1.5v-0.7l1.6-0.1l0.1-1.7h0.8v1.7h2.6v0.7h-2.6v2.5c0,1,0.3,1.5,1.4,1.5c0.5,0,0.9-0.1,1.3-0.2l0.2,0.7
			c-0.5,0.2-1,0.3-1.7,0.3C391.7,407.2,391.2,406.3,391.2,405z"/>
		<path d="M399,402.4h-2.5v-0.7h3.4v5.3H399V402.4z M398.6,399.9c0-0.4,0.3-0.7,0.7-0.7s0.7,0.3,0.7,0.7c0,0.4-0.3,0.7-0.7,0.7
			S398.6,400.3,398.6,399.9z"/>
		<path d="M402.8,404.4c0-1.8,1.2-2.8,2.6-2.8s2.6,1,2.6,2.8c0,1.8-1.2,2.8-2.6,2.8S402.8,406.2,402.8,404.4z M407.1,404.4
			c0-1.2-0.7-2.1-1.7-2.1c-1,0-1.7,0.8-1.7,2.1c0,1.2,0.7,2,1.7,2C406.5,406.4,407.1,405.6,407.1,404.4z"/>
		<path d="M409.8,401.7h0.7l0.1,0.9h0c0.6-0.6,1.2-1,2-1c1.3,0,1.8,0.7,1.8,2.2v3.3h-0.9v-3.2c0-1-0.4-1.5-1.2-1.5
			c-0.6,0-1.1,0.3-1.7,1v3.7h-0.9V401.7z"/>
		<path d="M417.6,404c0-2.1,0.9-3.8,2.5-5l0.5,0.5c-1.5,1.2-2.2,2.7-2.2,4.5s0.7,3.3,2.2,4.5l-0.5,0.5
			C418.6,407.8,417.6,406.1,417.6,404z"/>
		<path d="M424.7,404.3l-1.9-2.6h1l0.8,1.2c0.2,0.3,0.4,0.6,0.6,0.9h0c0.2-0.3,0.4-0.6,0.6-0.9l0.8-1.2h1l-1.9,2.7l2,2.7h-1
			l-0.9-1.2c-0.2-0.3-0.5-0.7-0.7-1h0c-0.2,0.3-0.4,0.6-0.7,1l-0.9,1.2h-1L424.7,404.3z"/>
		<path d="M430.7,408.8c0.9-0.4,1.4-1,1.4-1.9l-0.2-1l0.6,0.9c-0.2,0.2-0.4,0.3-0.6,0.3c-0.5,0-0.9-0.3-0.9-0.8
			c0-0.5,0.4-0.8,0.9-0.8c0.6,0,1,0.5,1,1.4c0,1.3-0.7,2.2-1.9,2.6L430.7,408.8z"/>
		<path d="M442.5,409.2l0.2-0.7c0.1,0,0.3,0.1,0.5,0.1c0.7,0,1.2-0.5,1.5-1.1l0.2-0.4l-2.5-5.4h0.9l1.3,2.9c0.2,0.5,0.4,1,0.7,1.6h0
			c0.2-0.5,0.4-1.1,0.6-1.6l1.2-2.9h0.9l-2.4,5.8c-0.4,1.1-1,1.9-2.3,1.9C442.9,409.3,442.7,409.3,442.5,409.2z"/>
		<path d="M450.5,408.8c0.9-0.4,1.4-1,1.4-1.9l-0.2-1l0.6,0.9c-0.2,0.2-0.4,0.3-0.6,0.3c-0.5,0-0.9-0.3-0.9-0.8
			c0-0.5,0.4-0.8,0.9-0.8c0.6,0,1,0.5,1,1.4c0,1.3-0.7,2.2-1.9,2.6L450.5,408.8z"/>
		<path d="M464,406.2c0-0.5,0.4-0.9,0.9-0.9s0.9,0.4,0.9,0.9c0,0.6-0.4,0.9-0.9,0.9S464,406.8,464,406.2z"/>
		<path d="M470.6,406.2c0-0.5,0.4-0.9,0.9-0.9s0.9,0.4,0.9,0.9c0,0.6-0.4,0.9-0.9,0.9S470.6,406.8,470.6,406.2z"/>
		<path d="M477.2,406.2c0-0.5,0.4-0.9,0.9-0.9s0.9,0.4,0.9,0.9c0,0.6-0.4,0.9-0.9,0.9S477.2,406.8,477.2,406.2z"/>
		<path d="M482.7,408.5c1.5-1.2,2.2-2.7,2.2-4.5s-0.7-3.3-2.2-4.5l0.5-0.5c1.5,1.2,2.5,2.9,2.5,5s-0.9,3.8-2.5,5L482.7,408.5z"/>
		<path d="M497.3,407.3c0-0.8,0.1-1.4,0.1-2.1c0-0.4-0.3-0.8-1.6-0.9v-0.6c1.3,0,1.6-0.4,1.6-0.9c0-0.7-0.1-1.4-0.1-2.1
			c0-1.1,0.7-1.5,2-1.5h0.7v0.5h-0.6c-1.1,0-1.4,0.3-1.4,1c0,0.6,0.1,1.3,0.1,2c0,0.7-0.2,1.1-1,1.2v0c0.8,0.1,1,0.5,1,1.2
			c0,0.7-0.1,1.3-0.1,2c0,0.7,0.2,1,1.4,1h0.6v0.5h-0.7C498,408.7,497.3,408.4,497.3,407.3z"/>
		<path class="st4" d="M389.9,417.4h4.5v0.6h-4.5V417.4z M390.1,415.1h4.5v0.6h-4.5V415.1z M391.4,413.1h0.6l-0.9,7.2h-0.6
			L391.4,413.1z M393.4,413.1h0.6l-0.9,7.2h-0.6L393.4,413.1z"/>
		<path class="st4" d="M403,418.9c0-1.2,1.1-1.8,3.9-2c0-0.7-0.4-1.3-1.4-1.3c-0.7,0-1.4,0.3-1.9,0.6l-0.4-0.6
			c0.5-0.4,1.5-0.8,2.4-0.8c1.5,0,2.2,0.9,2.2,2.2v3.3h-0.8l-0.1-0.7h0c-0.6,0.5-1.4,0.9-2.1,0.9C403.8,420.4,403,419.8,403,418.9z
			 M406.9,418.9v-1.4c-2.3,0.2-3,0.6-3,1.3c0,0.6,0.6,0.8,1.2,0.8C405.7,419.6,406.3,419.4,406.9,418.9z"/>
		<path class="st4" d="M409.6,417.6c0-1.8,1.4-2.8,3-2.8c0.9,0,1.5,0.4,1.9,0.8l-0.5,0.6c-0.4-0.4-0.9-0.6-1.5-0.6
			c-1.2,0-2.1,0.8-2.1,2.1c0,1.2,0.8,2,2.1,2c0.7,0,1.2-0.3,1.7-0.7l0.4,0.6c-0.6,0.5-1.3,0.8-2.1,0.8
			C410.9,420.4,409.6,419.4,409.6,417.6z"/>
		<path class="st4" d="M417.6,418.2v-2.5h-1.5V415l1.6-0.1l0.1-1.7h0.8v1.7h2.6v0.7h-2.6v2.5c0,1,0.3,1.5,1.4,1.5
			c0.5,0,0.9-0.1,1.3-0.2l0.2,0.7c-0.5,0.2-1,0.3-1.7,0.3C418.1,420.4,417.6,419.5,417.6,418.2z"/>
		<path class="st4" d="M425.4,415.6h-2.5v-0.7h3.4v5.3h-0.9V415.6z M425,413.1c0-0.4,0.3-0.7,0.7-0.7s0.7,0.3,0.7,0.7
			c0,0.4-0.3,0.7-0.7,0.7S425,413.5,425,413.1z"/>
		<path class="st4" d="M429.2,417.6c0-1.8,1.2-2.8,2.6-2.8s2.6,1,2.6,2.8c0,1.8-1.2,2.8-2.6,2.8S429.2,419.4,429.2,417.6z
			 M433.5,417.6c0-1.2-0.7-2.1-1.7-2.1c-1,0-1.7,0.8-1.7,2.1c0,1.2,0.7,2,1.7,2C432.9,419.6,433.5,418.8,433.5,417.6z"/>
		<path class="st4" d="M436.2,414.9h0.7l0.1,0.9h0c0.6-0.6,1.2-1,2-1c1.3,0,1.8,0.7,1.8,2.2v3.3H440V417c0-1-0.4-1.5-1.2-1.5
			c-0.6,0-1.1,0.3-1.7,1v3.7h-0.9V414.9z"/>
		<path class="st4" d="M449.4,419.5h2v-5.1h-1.6v-0.6c0.8-0.1,1.4-0.3,1.8-0.5h0.7v6.3h1.8v0.8h-4.8V419.5z"/>
		<path d="M363.6,434.6h0.6c1.1,0,1.4-0.3,1.4-1c0-0.7-0.1-1.2-0.1-2c0-0.7,0.2-1.1,1-1.2v0c-0.8-0.1-1-0.5-1-1.2
			c0-0.7,0.1-1.4,0.1-2c0-0.7-0.3-1-1.4-1h-0.6v-0.5h0.7c1.4,0,2,0.3,2,1.5c0,0.8-0.1,1.4-0.1,2.1c0,0.4,0.3,0.8,1.6,0.9v0.6
			c-1.3,0-1.6,0.4-1.6,0.9c0,0.7,0.1,1.3,0.1,2.1c0,1.1-0.6,1.5-2,1.5h-0.7V434.6z"/>
	</g>
</g>
<rect x="350.4" y="376.3" class="st1" width="182" height="79.4"/>
<rect x="627.6" y="298.1" class="st1" width="182" height="27.8"/>
<text transform="matrix(1 0 0 1 694.4561 315.3258)" class="st2 st3">Method 2</text>
<g>
	<g>
		<line class="st1" x1="718.6" y1="264.8" x2="718.6" y2="290.5"/>
		<g>
			<polygon points="713.6,289 718.6,297.6 723.6,289 			"/>
		</g>
	</g>
</g>
<line class="st1" x1="441.4" y1="264.8" x2="718.6" y2="264.8"/>
<line class="st1" x1="580" y1="203" x2="580" y2="264.8"/>
<g>
	<g>
		<path d="M360.1,246.1l3.3-2.2v0l-3.3-2.2v-0.9l4.1,2.8v0.7l-4.1,2.8V246.1z"/>
		<path d="M372.8,246.6l0.5-0.6c0.6,0.5,1.3,0.9,2.1,0.9c1,0,1.6-0.5,1.6-1.1c0-0.8-0.6-1-1.3-1.3l-1-0.5c-0.7-0.3-1.6-0.8-1.6-1.9
			c0-1.1,1-1.9,2.4-1.9c0.9,0,1.7,0.4,2.2,0.9l-0.5,0.6c-0.5-0.4-1-0.7-1.8-0.7c-0.8,0-1.4,0.4-1.4,1c0,0.7,0.7,0.9,1.3,1.2l1,0.5
			c0.9,0.4,1.6,0.9,1.6,1.9c0,1.1-1,2.1-2.6,2.1C374.4,247.6,373.5,247.2,372.8,246.6z"/>
		<path d="M382.8,242.7c0-0.4,0-0.9,0.1-1.2h-0.1c-0.2,0.3-0.5,0.7-0.7,1l-1.9,2.4h4.6v0.7h-5.6V245l3.5-4.5h1v7h-0.9V242.7z"/>
		<path d="M385.9,243.9c0-2.3,1.3-3.7,3.2-3.7c1,0,1.6,0.5,2,0.9l-0.5,0.6c-0.3-0.4-0.8-0.6-1.5-0.6c-1.4,0-2.2,1.1-2.2,2.9
			c0,1.8,0.8,2.9,2.2,2.9c0.5,0,1-0.2,1.2-0.4v-1.9h-1.4v-0.8h2.3v3c-0.5,0.5-1.2,0.8-2.2,0.8C387.2,247.6,385.9,246.3,385.9,243.9z
			"/>
		<path d="M392.7,244.8c0-1.7,1.3-2.8,2.7-2.8c1.5,0,2.4,1,2.4,2.5c0,0.2,0,0.4,0,0.5h-4.5v-0.7h4l-0.2,0.3c0-1.3-0.6-1.9-1.6-1.9
			c-1,0-1.8,0.7-1.8,2.1c0,1.4,0.9,2.1,2.1,2.1c0.6,0,1.1-0.2,1.6-0.5l0.3,0.6c-0.5,0.4-1.2,0.6-2.1,0.6
			C393.9,247.6,392.7,246.6,392.7,244.8z"/>
		<path d="M399.5,242.2h0.7l0.1,0.9h0c0.6-0.6,1.2-1,2-1c1.3,0,1.8,0.7,1.8,2.2v3.3h-0.9v-3.2c0-1-0.4-1.5-1.2-1.5
			c-0.6,0-1.1,0.3-1.7,1v3.7h-0.9V242.2z"/>
		<path d="M405.9,244.8c0-1.7,1.3-2.8,2.7-2.8c1.5,0,2.4,1,2.4,2.5c0,0.2,0,0.4,0,0.5h-4.5v-0.7h4l-0.2,0.3c0-1.3-0.6-1.9-1.6-1.9
			c-1,0-1.8,0.7-1.8,2.1c0,1.4,0.9,2.1,2.1,2.1c0.6,0,1.1-0.2,1.6-0.5l0.3,0.6c-0.5,0.4-1.2,0.6-2.1,0.6
			C407.1,247.6,405.9,246.6,405.9,244.8z"/>
		<path d="M413.3,242.2h0.8l0.1,1.3h0c0.6-0.9,1.4-1.4,2.4-1.4c0.4,0,0.7,0.1,1.1,0.2l-0.2,0.8c-0.4-0.1-0.6-0.2-1-0.2
			c-0.8,0-1.6,0.4-2.2,1.5v3.1h-0.9V242.2z"/>
		<path d="M421.8,242.9h-2.5v-0.7h3.4v5.3h-0.9V242.9z M421.4,240.3c0-0.4,0.3-0.7,0.7-0.7s0.7,0.3,0.7,0.7c0,0.4-0.3,0.7-0.7,0.7
			S421.4,240.8,421.4,240.3z"/>
		<path d="M425.8,244.9c0-1.8,1.4-2.8,3-2.8c0.9,0,1.5,0.4,1.9,0.8l-0.5,0.6c-0.4-0.4-0.9-0.6-1.5-0.6c-1.2,0-2.1,0.8-2.1,2.1
			c0,1.2,0.8,2,2.1,2c0.7,0,1.2-0.3,1.7-0.7l0.4,0.6c-0.6,0.5-1.3,0.8-2.1,0.8C427,247.6,425.8,246.6,425.8,244.9z"/>
		<path d="M432.6,246.8h2v-5.1H433V241c0.8-0.1,1.4-0.3,1.8-0.5h0.7v6.3h1.8v0.8h-4.8V246.8z"/>
		<path d="M440.4,244.5c0-2.1,0.9-3.8,2.5-5l0.5,0.5c-1.5,1.2-2.2,2.7-2.2,4.5c0,1.8,0.7,3.3,2.2,4.5l-0.5,0.5
			C441.3,248.3,440.4,246.6,440.4,244.5z"/>
		<path d="M447.4,244.7l-1.9-2.6h1l0.8,1.2c0.2,0.3,0.4,0.6,0.6,0.9h0c0.2-0.3,0.4-0.6,0.6-0.9l0.8-1.2h1l-1.9,2.7l2,2.7h-1
			l-0.9-1.2c-0.2-0.3-0.5-0.7-0.7-1h0c-0.2,0.3-0.4,0.6-0.7,1l-0.9,1.2h-1L447.4,244.7z"/>
		<path d="M458.8,242.4h4.7v0.7h-4.7V242.4z M458.8,244.7h4.7v0.7h-4.7V244.7z"/>
		<path class="st4" d="M471.8,244.9c0-1.8,1.2-2.8,2.6-2.8s2.6,1,2.6,2.8c0,1.8-1.2,2.8-2.6,2.8S471.8,246.6,471.8,244.9z
			 M476.1,244.9c0-1.2-0.7-2.1-1.7-2.1s-1.7,0.8-1.7,2.1c0,1.2,0.7,2,1.7,2S476.1,246.1,476.1,244.9z"/>
		<path class="st4" d="M479.6,246.9L479.6,246.9l-0.1,0.6h-0.7v-7.8h0.9v2.1l0,1h0c0.5-0.5,1.2-0.8,1.8-0.8c1.4,0,2.2,1.1,2.2,2.7
			c0,1.8-1.1,2.9-2.4,2.9C480.7,247.6,480.1,247.4,479.6,246.9z M482.7,244.8c0-1.2-0.4-2-1.5-2c-0.5,0-1,0.2-1.6,0.8v2.7
			c0.5,0.5,1.1,0.6,1.4,0.6C482,246.9,482.7,246.1,482.7,244.8z"/>
		<path class="st4" d="M484.9,249.5l0.3-0.7c0.4,0.2,0.8,0.3,1.2,0.3c1.1,0,1.3-0.5,1.3-1.4v-4.8h-2.5v-0.7h3.4v5.5
			c0,1.3-0.5,2.3-2.2,2.3C485.9,249.9,485.3,249.7,484.9,249.5z M487.4,240.3c0-0.4,0.3-0.7,0.7-0.7s0.7,0.3,0.7,0.7
			c0,0.4-0.3,0.7-0.7,0.7S487.4,240.8,487.4,240.3z"/>
		<path class="st4" d="M491.7,244.8c0-1.7,1.3-2.8,2.7-2.8c1.5,0,2.4,1,2.4,2.5c0,0.2,0,0.4,0,0.5h-4.5v-0.7h4l-0.2,0.3
			c0-1.3-0.6-1.9-1.6-1.9c-1,0-1.8,0.7-1.8,2.1c0,1.4,0.9,2.1,2.1,2.1c0.6,0,1.1-0.2,1.6-0.5l0.3,0.6c-0.5,0.4-1.2,0.6-2.1,0.6
			C492.9,247.6,491.7,246.6,491.7,244.8z"/>
		<path class="st4" d="M498.4,244.9c0-1.8,1.4-2.8,3-2.8c0.9,0,1.5,0.4,1.9,0.8l-0.5,0.6c-0.4-0.4-0.9-0.6-1.5-0.6
			c-1.2,0-2.1,0.8-2.1,2.1c0,1.2,0.8,2,2.1,2c0.7,0,1.2-0.3,1.7-0.7l0.4,0.6c-0.6,0.5-1.3,0.8-2.1,0.8
			C499.6,247.6,498.4,246.6,498.4,244.9z"/>
		<path class="st4" d="M506.4,245.4v-2.5h-1.5v-0.7l1.6-0.1l0.1-1.7h0.8v1.7h2.6v0.7h-2.6v2.5c0,1,0.3,1.5,1.4,1.5
			c0.5,0,0.9-0.1,1.3-0.2l0.2,0.7c-0.5,0.2-1,0.3-1.7,0.3C506.9,247.6,506.4,246.8,506.4,245.4z"/>
		<path class="st4" d="M511.8,246.8h2v-5.1h-1.6V241c0.8-0.1,1.4-0.3,1.8-0.5h0.7v6.3h1.8v0.8h-4.8V246.8z"/>
		<path d="M518.6,249c1.5-1.2,2.2-2.7,2.2-4.5c0-1.8-0.7-3.3-2.2-4.5l0.5-0.5c1.5,1.2,2.5,2.9,2.5,5c0,2.1-0.9,3.8-2.5,5L518.6,249z
			"/>
	</g>
</g>
<rect x="350.4" y="326" class="st1" width="182" height="50.1"/>
<text transform="matrix(1 0 0 1 362.4965 348.1333)"><tspan x="0" y="0" class="st2 st3">signature:</tspan><tspan x="0" y="14.4" class="st2 st3">- x: </tspan><tspan x="16.8" y="14.4" class="st4 st2 st3">S4Class1</tspan></text>
<g>
	<g>
		<path d="M640.9,402.3l1.6-0.1h3.1v0.7h-4.7V402.3z M642.4,401.8c0-1.3,0.7-2.2,2.2-2.2c0.5,0,1,0.1,1.5,0.3l-0.2,0.7
			c-0.4-0.2-0.8-0.3-1.2-0.3c-1,0-1.3,0.5-1.3,1.4v5.8h-0.9V401.8z"/>
		<path d="M647.2,405.5v-3.3h0.9v3.2c0,1,0.4,1.5,1.2,1.5c0.6,0,1.1-0.3,1.7-1v-3.7h0.9v5.3h-0.8l-0.1-0.9h0c-0.5,0.6-1.2,1.1-2,1.1
			C647.8,407.7,647.2,406.9,647.2,405.5z"/>
		<path d="M654,402.2h0.7l0.1,0.9h0c0.6-0.6,1.2-1,2-1c1.3,0,1.8,0.7,1.8,2.2v3.3h-0.9v-3.2c0-1-0.4-1.5-1.2-1.5
			c-0.6,0-1.1,0.3-1.7,1v3.7H654V402.2z"/>
		<path d="M660.5,404.9c0-1.8,1.4-2.8,3-2.8c0.9,0,1.5,0.4,1.9,0.8l-0.5,0.6c-0.4-0.4-0.9-0.6-1.5-0.6c-1.2,0-2.1,0.8-2.1,2.1
			c0,1.2,0.8,2,2.1,2c0.7,0,1.2-0.3,1.7-0.7l0.4,0.6c-0.6,0.5-1.3,0.8-2.1,0.8C661.7,407.7,660.5,406.7,660.5,404.9z"/>
		<path d="M668.4,405.5v-2.5h-1.5v-0.7l1.6-0.1l0.1-1.7h0.8v1.7h2.6v0.7h-2.6v2.5c0,1,0.3,1.5,1.4,1.5c0.5,0,0.9-0.1,1.3-0.2
			l0.2,0.7c-0.5,0.2-1,0.3-1.7,0.3C668.9,407.7,668.4,406.8,668.4,405.5z"/>
		<path d="M676.2,402.9h-2.5v-0.7h3.4v5.3h-0.9V402.9z M675.9,400.4c0-0.4,0.3-0.7,0.7-0.7s0.7,0.3,0.7,0.7c0,0.4-0.3,0.7-0.7,0.7
			S675.9,400.8,675.9,400.4z"/>
		<path d="M680,404.9c0-1.8,1.2-2.8,2.6-2.8s2.6,1,2.6,2.8c0,1.8-1.2,2.8-2.6,2.8S680,406.7,680,404.9z M684.4,404.9
			c0-1.2-0.7-2.1-1.7-2.1c-1,0-1.7,0.8-1.7,2.1c0,1.2,0.7,2,1.7,2C683.7,406.9,684.4,406.1,684.4,404.9z"/>
		<path d="M687,402.2h0.7l0.1,0.9h0c0.6-0.6,1.2-1,2-1c1.3,0,1.8,0.7,1.8,2.2v3.3h-0.9v-3.2c0-1-0.4-1.5-1.2-1.5
			c-0.6,0-1.1,0.3-1.7,1v3.7H687V402.2z"/>
		<path d="M694.9,404.5c0-2.1,0.9-3.8,2.5-5l0.5,0.5c-1.5,1.2-2.2,2.7-2.2,4.5c0,1.8,0.7,3.3,2.2,4.5l-0.5,0.5
			C695.8,408.3,694.9,406.6,694.9,404.5z"/>
		<path d="M701.9,404.8l-1.9-2.6h1l0.8,1.2c0.2,0.3,0.4,0.6,0.6,0.9h0c0.2-0.3,0.4-0.6,0.6-0.9l0.8-1.2h1l-1.9,2.7l2,2.7h-1
			l-0.9-1.2c-0.2-0.3-0.5-0.7-0.7-1h0c-0.2,0.3-0.4,0.6-0.7,1l-0.9,1.2h-1L701.9,404.8z"/>
		<path d="M707.9,409.3c0.9-0.4,1.4-1,1.4-1.9l-0.2-1l0.6,0.9c-0.2,0.2-0.4,0.3-0.6,0.3c-0.5,0-0.9-0.3-0.9-0.8
			c0-0.5,0.4-0.8,0.9-0.8c0.6,0,1,0.5,1,1.4c0,1.3-0.7,2.2-1.9,2.6L707.9,409.3z"/>
		<path d="M719.7,409.7l0.2-0.7c0.1,0,0.3,0.1,0.5,0.1c0.7,0,1.2-0.5,1.5-1.1l0.2-0.4l-2.5-5.4h0.9l1.3,2.9c0.2,0.5,0.4,1,0.7,1.6h0
			c0.2-0.5,0.4-1.1,0.6-1.6l1.2-2.9h0.9l-2.4,5.8c-0.4,1.1-1,1.9-2.3,1.9C720.2,409.9,719.9,409.8,719.7,409.7z"/>
		<path d="M727.7,409.3c0.9-0.4,1.4-1,1.4-1.9l-0.2-1l0.6,0.9c-0.2,0.2-0.4,0.3-0.6,0.3c-0.5,0-0.9-0.3-0.9-0.8
			c0-0.5,0.4-0.8,0.9-0.8c0.6,0,1,0.5,1,1.4c0,1.3-0.7,2.2-1.9,2.6L727.7,409.3z"/>
		<path d="M741.2,406.8c0-0.5,0.4-0.9,0.9-0.9s0.9,0.4,0.9,0.9c0,0.6-0.4,0.9-0.9,0.9S741.2,407.3,741.2,406.8z"/>
		<path d="M747.8,406.8c0-0.5,0.4-0.9,0.9-0.9s0.9,0.4,0.9,0.9c0,0.6-0.4,0.9-0.9,0.9S747.8,407.3,747.8,406.8z"/>
		<path d="M754.4,406.8c0-0.5,0.4-0.9,0.9-0.9s0.9,0.4,0.9,0.9c0,0.6-0.4,0.9-0.9,0.9S754.4,407.3,754.4,406.8z"/>
		<path d="M759.9,409c1.5-1.2,2.2-2.7,2.2-4.5c0-1.8-0.7-3.3-2.2-4.5l0.5-0.5c1.5,1.2,2.5,2.9,2.5,5c0,2.1-0.9,3.8-2.5,5L759.9,409z
			"/>
		<path d="M774.6,407.8c0-0.8,0.1-1.4,0.1-2.1c0-0.4-0.3-0.8-1.6-0.9v-0.6c1.3,0,1.6-0.4,1.6-0.9c0-0.7-0.1-1.4-0.1-2.1
			c0-1.1,0.7-1.5,2-1.5h0.7v0.5h-0.6c-1.1,0-1.4,0.3-1.4,1c0,0.6,0.1,1.3,0.1,2c0,0.7-0.2,1.1-1,1.2v0c0.8,0.1,1,0.5,1,1.2
			c0,0.7-0.1,1.3-0.1,2c0,0.7,0.2,1,1.4,1h0.6v0.5h-0.7C775.2,409.2,774.6,408.9,774.6,407.8z"/>
		<path class="st4" d="M667.1,417.9h4.5v0.6h-4.5V417.9z M667.3,415.6h4.5v0.6h-4.5V415.6z M668.6,413.6h0.6l-0.9,7.2h-0.6
			L668.6,413.6z M670.7,413.6h0.6l-0.9,7.2h-0.6L670.7,413.6z"/>
		<path class="st4" d="M680.3,419.4c0-1.2,1.1-1.8,3.9-2c0-0.7-0.4-1.3-1.4-1.3c-0.7,0-1.4,0.3-1.9,0.6l-0.4-0.6
			c0.5-0.4,1.5-0.8,2.4-0.8c1.5,0,2.2,0.9,2.2,2.2v3.3h-0.8l-0.1-0.7h0c-0.6,0.5-1.4,0.9-2.1,0.9
			C681.1,420.9,680.3,420.3,680.3,419.4z M684.1,419.4V418c-2.3,0.2-3,0.6-3,1.3c0,0.6,0.5,0.8,1.2,0.8
			C682.9,420.1,683.5,419.9,684.1,419.4z"/>
		<path class="st4" d="M686.9,418.1c0-1.8,1.4-2.8,3-2.8c0.9,0,1.5,0.4,1.9,0.8l-0.5,0.6c-0.4-0.4-0.9-0.6-1.5-0.6
			c-1.2,0-2.1,0.8-2.1,2.1c0,1.2,0.8,2,2.1,2c0.7,0,1.2-0.3,1.7-0.7l0.4,0.6c-0.6,0.5-1.3,0.8-2.1,0.8
			C688.1,420.9,686.9,419.9,686.9,418.1z"/>
		<path class="st4" d="M694.8,418.7v-2.5h-1.5v-0.7l1.6-0.1l0.1-1.7h0.8v1.7h2.6v0.7h-2.6v2.5c0,1,0.3,1.5,1.4,1.5
			c0.5,0,0.9-0.1,1.3-0.2l0.2,0.7c-0.5,0.2-1,0.3-1.7,0.3C695.3,420.9,694.8,420,694.8,418.7z"/>
		<path class="st4" d="M702.6,416.1h-2.5v-0.7h3.4v5.3h-0.9V416.1z M702.3,413.6c0-0.4,0.3-0.7,0.7-0.7s0.7,0.3,0.7,0.7
			c0,0.4-0.3,0.7-0.7,0.7S702.3,414,702.3,413.6z"/>
		<path class="st4" d="M706.4,418.1c0-1.8,1.2-2.8,2.6-2.8s2.6,1,2.6,2.8c0,1.8-1.2,2.8-2.6,2.8S706.4,419.9,706.4,418.1z
			 M710.8,418.1c0-1.2-0.7-2.1-1.7-2.1c-1,0-1.7,0.8-1.7,2.1c0,1.2,0.7,2,1.7,2C710.1,420.1,710.8,419.3,710.8,418.1z"/>
		<path class="st4" d="M713.4,415.4h0.7l0.1,0.9h0c0.6-0.6,1.2-1,2-1c1.3,0,1.8,0.7,1.8,2.2v3.3h-0.9v-3.2c0-1-0.4-1.5-1.2-1.5
			c-0.6,0-1.1,0.3-1.7,1v3.7h-0.9V415.4z"/>
		<path class="st4" d="M726.4,420.2c2.4-2.1,3.7-3.3,3.7-4.5c0-0.8-0.5-1.4-1.5-1.4c-0.7,0-1.2,0.4-1.7,0.8l-0.5-0.5
			c0.6-0.6,1.3-1.1,2.3-1.1c1.4,0,2.3,0.8,2.3,2.1c0,1.3-1.3,2.6-3.2,4.4c0.4,0,0.9-0.1,1.3-0.1h2.3v0.8h-4.9V420.2z"/>
		<path d="M640.9,435.1h0.6c1.1,0,1.4-0.3,1.4-1c0-0.7-0.1-1.2-0.1-2c0-0.7,0.2-1.1,1-1.2v0c-0.8-0.1-1-0.5-1-1.2
			c0-0.7,0.1-1.4,0.1-2c0-0.7-0.3-1-1.4-1h-0.6v-0.5h0.7c1.4,0,2,0.3,2,1.5c0,0.8-0.1,1.4-0.1,2.1c0,0.4,0.3,0.8,1.6,0.9v0.6
			c-1.3,0-1.6,0.4-1.6,0.9c0,0.7,0.1,1.3,0.1,2.1c0,1.1-0.6,1.5-2,1.5h-0.7V435.1z"/>
	</g>
</g>
<rect x="627.6" y="376.8" class="st1" width="182" height="79.4"/>
<rect x="627.6" y="326.5" class="st1" width="182" height="50.1"/>
<text transform="matrix(1 0 0 1 639.7232 348.6379)"><tspan x="0" y="0" class="st2 st3">signature:</tspan><tspan x="0" y="14.4" class="st2 st3">- x: </tspan><tspan x="16.8" y="14.4" class="st4 st2 st3">S4Class2</tspan></text>
<g>
	<g>
		<path d="M95.4,547.9l3.3-2.2v0l-3.3-2.2v-0.9l4.1,2.8v0.7l-4.1,2.8V547.9z"/>
		<path d="M108.1,546.6c0-1.8,1.2-2.8,2.6-2.8s2.6,1,2.6,2.8c0,1.8-1.2,2.8-2.6,2.8S108.1,548.4,108.1,546.6z M112.5,546.6
			c0-1.2-0.7-2.1-1.7-2.1c-1,0-1.7,0.8-1.7,2.1c0,1.2,0.7,2,1.7,2C111.8,548.7,112.5,547.8,112.5,546.6z"/>
		<path d="M115.9,548.7L115.9,548.7l-0.1,0.6h-0.7v-7.8h0.9v2.1l0,1h0c0.5-0.5,1.2-0.8,1.8-0.8c1.4,0,2.2,1.1,2.2,2.7
			c0,1.8-1.1,2.9-2.4,2.9C117.1,549.4,116.4,549.1,115.9,548.7z M119.1,546.5c0-1.2-0.4-2-1.5-2c-0.5,0-1,0.2-1.6,0.8v2.7
			c0.5,0.5,1.1,0.6,1.4,0.6C118.4,548.6,119.1,547.8,119.1,546.5z"/>
		<path d="M121.3,551.3l0.3-0.7c0.4,0.2,0.8,0.3,1.2,0.3c1.1,0,1.3-0.5,1.3-1.4v-4.8h-2.5v-0.7h3.4v5.5c0,1.3-0.5,2.3-2.2,2.3
			C122.2,551.7,121.7,551.5,121.3,551.3z M123.8,542.1c0-0.4,0.3-0.7,0.7-0.7s0.7,0.3,0.7,0.7c0,0.4-0.3,0.7-0.7,0.7
			S123.8,542.5,123.8,542.1z"/>
		<path d="M128,546.6c0-1.7,1.3-2.8,2.7-2.8c1.5,0,2.4,1,2.4,2.5c0,0.2,0,0.4,0,0.5h-4.5v-0.7h4l-0.2,0.3c0-1.3-0.6-1.9-1.6-1.9
			c-1,0-1.8,0.7-1.8,2.1c0,1.4,0.9,2.1,2.1,2.1c0.6,0,1.1-0.2,1.6-0.5l0.3,0.6c-0.5,0.4-1.2,0.6-2.1,0.6
			C129.3,549.4,128,548.4,128,546.6z"/>
		<path d="M134.7,546.6c0-1.8,1.4-2.8,3-2.8c0.9,0,1.5,0.4,1.9,0.8l-0.5,0.6c-0.4-0.4-0.9-0.6-1.5-0.6c-1.2,0-2.1,0.8-2.1,2.1
			c0,1.2,0.8,2,2.1,2c0.7,0,1.2-0.3,1.7-0.7l0.4,0.6c-0.6,0.5-1.3,0.8-2.1,0.8C136,549.4,134.7,548.4,134.7,546.6z"/>
		<path d="M142.7,547.2v-2.5h-1.5V544l1.6-0.1l0.1-1.7h0.8v1.7h2.6v0.7h-2.6v2.5c0,1,0.3,1.5,1.4,1.5c0.5,0,0.9-0.1,1.3-0.2l0.2,0.7
			c-0.5,0.2-1,0.3-1.7,0.3C143.2,549.4,142.7,548.5,142.7,547.2z"/>
		<path d="M148.1,548.5h2v-5.1h-1.6v-0.6c0.8-0.1,1.4-0.3,1.8-0.5h0.7v6.3h1.8v0.8h-4.8V548.5z"/>
		<path d="M161.2,544.1h4.7v0.7h-4.7V544.1z M161.2,546.5h4.7v0.7h-4.7V546.5z"/>
		<path d="M174.2,548.3l0.5-0.6c0.6,0.5,1.3,0.9,2.1,0.9c1,0,1.6-0.5,1.6-1.1c0-0.8-0.6-1-1.3-1.3l-1-0.5c-0.7-0.3-1.6-0.8-1.6-1.9
			c0-1.1,1-1.9,2.4-1.9c0.9,0,1.7,0.4,2.2,0.9l-0.5,0.6c-0.5-0.4-1-0.7-1.8-0.7c-0.8,0-1.4,0.4-1.4,1c0,0.7,0.7,0.9,1.3,1.2l1,0.5
			c0.9,0.4,1.6,0.9,1.6,1.9c0,1.1-1,2.1-2.6,2.1C175.7,549.4,174.8,549,174.2,548.3z"/>
		<path d="M184.1,544.4c0-0.4,0-0.9,0.1-1.2h-0.1c-0.2,0.3-0.5,0.7-0.7,1l-1.9,2.4h4.6v0.7h-5.6v-0.6l3.5-4.5h1v7h-0.9V544.4z"/>
		<path d="M187.4,545.7c0-2.3,1.4-3.7,3.2-3.7c0.9,0,1.6,0.4,2,0.9l-0.5,0.6c-0.4-0.4-0.8-0.6-1.5-0.6c-1.4,0-2.3,1.1-2.3,2.9
			c0,1.8,0.9,2.9,2.3,2.9c0.7,0,1.2-0.3,1.6-0.8l0.5,0.6c-0.6,0.7-1.3,1-2.2,1C188.7,549.4,187.4,548,187.4,545.7z"/>
		<path d="M196,547.5v-5.3h-1.9v-0.7h2.8v6.1c0,0.8,0.4,1.1,1.1,1.1c0.3,0,0.6-0.1,1-0.2l0.2,0.7c-0.5,0.2-0.8,0.3-1.4,0.3
			C196.6,549.4,196,548.8,196,547.5z"/>
		<path d="M200.7,547.9c0-1.2,1.1-1.8,3.9-2c0-0.7-0.4-1.3-1.4-1.3c-0.7,0-1.4,0.3-1.9,0.6l-0.4-0.6c0.5-0.4,1.5-0.8,2.4-0.8
			c1.5,0,2.2,0.9,2.2,2.2v3.3h-0.8l-0.1-0.7h0c-0.6,0.5-1.4,0.9-2.1,0.9C201.6,549.4,200.7,548.8,200.7,547.9z M204.6,547.9v-1.4
			c-2.3,0.2-3,0.6-3,1.3c0,0.6,0.6,0.8,1.2,0.8C203.4,548.7,204,548.4,204.6,547.9z"/>
		<path d="M207.2,548.6l0.4-0.6c0.6,0.4,1.3,0.7,2.3,0.7c0.9,0,1.3-0.4,1.3-0.8c0-0.4-0.2-0.7-1.7-1c-1.4-0.3-2.1-0.8-2.1-1.6
			c0-0.9,0.8-1.5,2.2-1.5c0.8,0,1.6,0.3,2.2,0.7l-0.4,0.6c-0.5-0.3-1.1-0.6-1.8-0.6c-0.9,0-1.2,0.4-1.2,0.8c0,0.5,0.5,0.7,1.6,0.9
			c1.8,0.4,2.2,0.8,2.2,1.6c0,0.9-0.8,1.6-2.4,1.6C208.8,549.4,207.9,549,207.2,548.6z"/>
		<path d="M213.8,548.6l0.4-0.6c0.6,0.4,1.3,0.7,2.3,0.7c0.9,0,1.3-0.4,1.3-0.8c0-0.4-0.2-0.7-1.7-1c-1.4-0.3-2.1-0.8-2.1-1.6
			c0-0.9,0.8-1.5,2.2-1.5c0.8,0,1.6,0.3,2.2,0.7l-0.4,0.6c-0.5-0.3-1.1-0.6-1.8-0.6c-0.9,0-1.2,0.4-1.2,0.8c0,0.5,0.5,0.7,1.6,0.9
			c1.8,0.4,2.2,0.8,2.2,1.6c0,0.9-0.8,1.6-2.4,1.6C215.4,549.4,214.5,549,213.8,548.6z"/>
		<path d="M220.7,548.5h2v-5.1h-1.6v-0.6c0.8-0.1,1.4-0.3,1.8-0.5h0.7v6.3h1.8v0.8h-4.8V548.5z"/>
		<path d="M228.5,546.2c0-2.1,0.9-3.8,2.5-5l0.5,0.5c-1.5,1.2-2.2,2.7-2.2,4.5s0.7,3.3,2.2,4.5l-0.5,0.5
			C229.5,550,228.5,548.3,228.5,546.2z"/>
		<path d="M235.3,548.5c0-0.5,0.4-0.9,0.9-0.9s0.9,0.4,0.9,0.9c0,0.6-0.4,0.9-0.9,0.9S235.3,549,235.3,548.5z"/>
		<path d="M241.9,548.5c0-0.5,0.4-0.9,0.9-0.9s0.9,0.4,0.9,0.9c0,0.6-0.4,0.9-0.9,0.9S241.9,549,241.9,548.5z"/>
		<path d="M248.5,548.5c0-0.5,0.4-0.9,0.9-0.9s0.9,0.4,0.9,0.9c0,0.6-0.4,0.9-0.9,0.9S248.5,549,248.5,548.5z"/>
		<path d="M254,550.8c1.5-1.2,2.2-2.7,2.2-4.5s-0.7-3.3-2.2-4.5l0.5-0.5c1.5,1.2,2.5,2.9,2.5,5c0,2.1-0.9,3.8-2.5,5L254,550.8z"/>
	</g>
</g>
<g>
	<g>
		<path d="M95.9,569.3l3.3-2.2v0l-3.3-2.2v-0.9l4.1,2.8v0.7l-4.1,2.8V569.3z"/>
		<path d="M108.6,568c0-1.8,1.2-2.8,2.6-2.8s2.6,1,2.6,2.8c0,1.8-1.2,2.8-2.6,2.8S108.6,569.8,108.6,568z M112.9,568
			c0-1.2-0.7-2.1-1.7-2.1c-1,0-1.7,0.8-1.7,2.1c0,1.2,0.7,2,1.7,2C112.2,570.1,112.9,569.3,112.9,568z"/>
		<path d="M116.4,570.1L116.4,570.1l-0.1,0.6h-0.7v-7.8h0.9v2.1l0,1h0c0.5-0.5,1.2-0.8,1.8-0.8c1.4,0,2.2,1.1,2.2,2.7
			c0,1.8-1.1,2.9-2.4,2.9C117.5,570.8,116.9,570.6,116.4,570.1z M119.5,568c0-1.2-0.4-2-1.5-2c-0.5,0-1,0.2-1.6,0.8v2.7
			c0.5,0.5,1.1,0.6,1.4,0.6C118.8,570.1,119.5,569.3,119.5,568z"/>
		<path d="M121.7,572.7l0.3-0.7c0.4,0.2,0.8,0.3,1.2,0.3c1.1,0,1.3-0.5,1.3-1.4v-4.8h-2.5v-0.7h3.4v5.5c0,1.3-0.5,2.3-2.2,2.3
			C122.7,573.1,122.1,572.9,121.7,572.7z M124.2,563.5c0-0.4,0.3-0.7,0.7-0.7s0.7,0.3,0.7,0.7c0,0.4-0.3,0.7-0.7,0.7
			S124.2,564,124.2,563.5z"/>
		<path d="M128.5,568c0-1.7,1.3-2.8,2.7-2.8c1.5,0,2.4,1,2.4,2.5c0,0.2,0,0.4,0,0.5h-4.5v-0.7h4l-0.2,0.3c0-1.3-0.6-1.9-1.6-1.9
			c-1,0-1.8,0.7-1.8,2.1c0,1.4,0.9,2.1,2.1,2.1c0.6,0,1.1-0.2,1.6-0.5l0.3,0.6c-0.5,0.4-1.2,0.6-2.1,0.6
			C129.7,570.8,128.5,569.8,128.5,568z"/>
		<path d="M135.2,568c0-1.8,1.4-2.8,3-2.8c0.9,0,1.5,0.4,1.9,0.8l-0.5,0.6c-0.4-0.4-0.9-0.6-1.5-0.6c-1.2,0-2.1,0.8-2.1,2.1
			c0,1.2,0.8,2,2.1,2c0.7,0,1.2-0.3,1.7-0.7l0.4,0.6c-0.6,0.5-1.3,0.8-2.1,0.8C136.4,570.8,135.2,569.8,135.2,568z"/>
		<path d="M143.2,568.6v-2.5h-1.5v-0.7l1.6-0.1l0.1-1.7h0.8v1.7h2.6v0.7h-2.6v2.5c0,1,0.3,1.5,1.4,1.5c0.5,0,0.9-0.1,1.3-0.2
			l0.2,0.7c-0.5,0.2-1,0.3-1.7,0.3C143.7,570.8,143.2,569.9,143.2,568.6z"/>
		<path d="M148.3,570.2c2.4-2.1,3.7-3.3,3.7-4.5c0-0.8-0.5-1.4-1.5-1.4c-0.7,0-1.2,0.4-1.7,0.8l-0.5-0.5c0.6-0.6,1.3-1.1,2.3-1.1
			c1.4,0,2.3,0.8,2.3,2.1c0,1.3-1.3,2.6-3.2,4.4c0.4,0,0.9-0.1,1.3-0.1h2.3v0.8h-4.9V570.2z"/>
		<path d="M161.6,565.6h4.7v0.7h-4.7V565.6z M161.6,567.9h4.7v0.7h-4.7V567.9z"/>
		<path d="M174.6,569.8l0.5-0.6c0.6,0.5,1.3,0.9,2.1,0.9c1,0,1.6-0.5,1.6-1.1c0-0.8-0.6-1-1.3-1.3l-1-0.5c-0.7-0.3-1.6-0.8-1.6-1.9
			c0-1.1,1-1.9,2.4-1.9c0.9,0,1.7,0.4,2.2,0.9l-0.5,0.6c-0.5-0.4-1-0.7-1.8-0.7c-0.8,0-1.4,0.4-1.4,1c0,0.7,0.7,0.9,1.3,1.2l1,0.5
			c0.9,0.4,1.6,0.9,1.6,1.9c0,1.1-1,2.1-2.6,2.1C176.2,570.8,175.3,570.4,174.6,569.8z"/>
		<path d="M184.6,565.9c0-0.4,0-0.9,0.1-1.2h-0.1c-0.2,0.3-0.5,0.7-0.7,1l-1.9,2.4h4.6v0.7h-5.6v-0.6l3.5-4.5h1v7h-0.9V565.9z"/>
		<path d="M187.8,567.1c0-2.3,1.4-3.7,3.2-3.7c0.9,0,1.6,0.4,2,0.9l-0.5,0.6c-0.4-0.4-0.8-0.6-1.5-0.6c-1.4,0-2.3,1.1-2.3,2.9
			c0,1.8,0.9,2.9,2.3,2.9c0.7,0,1.2-0.3,1.6-0.8l0.5,0.6c-0.6,0.7-1.3,1-2.2,1C189.2,570.8,187.8,569.4,187.8,567.1z"/>
		<path d="M196.4,568.9v-5.3h-1.9v-0.7h2.8v6.1c0,0.8,0.4,1.1,1.1,1.1c0.3,0,0.6-0.1,1-0.2l0.2,0.7c-0.5,0.2-0.8,0.3-1.4,0.3
			C197,570.8,196.4,570.2,196.4,568.9z"/>
		<path d="M201.2,569.3c0-1.2,1.1-1.8,3.9-2c0-0.7-0.4-1.3-1.4-1.3c-0.7,0-1.4,0.3-1.9,0.6l-0.4-0.6c0.5-0.4,1.5-0.8,2.4-0.8
			c1.5,0,2.2,0.9,2.2,2.2v3.3h-0.8l-0.1-0.7h0c-0.6,0.5-1.4,0.9-2.1,0.9C202,570.8,201.2,570.3,201.2,569.3z M205.1,569.3v-1.4
			c-2.3,0.2-3,0.6-3,1.3c0,0.6,0.6,0.8,1.2,0.8C203.9,570.1,204.5,569.8,205.1,569.3z"/>
		<path d="M207.7,570l0.4-0.6c0.6,0.4,1.3,0.7,2.3,0.7c0.9,0,1.3-0.4,1.3-0.8c0-0.4-0.2-0.7-1.7-1c-1.4-0.3-2.1-0.8-2.1-1.6
			c0-0.9,0.8-1.5,2.2-1.5c0.8,0,1.6,0.3,2.2,0.7l-0.4,0.6c-0.5-0.3-1.1-0.6-1.8-0.6c-0.9,0-1.2,0.4-1.2,0.8c0,0.5,0.5,0.7,1.6,0.9
			c1.8,0.4,2.2,0.8,2.2,1.6c0,0.9-0.8,1.6-2.4,1.6C209.3,570.8,208.3,570.5,207.7,570z"/>
		<path d="M214.3,570l0.4-0.6c0.6,0.4,1.3,0.7,2.3,0.7c0.9,0,1.3-0.4,1.3-0.8c0-0.4-0.2-0.7-1.7-1c-1.4-0.3-2.1-0.8-2.1-1.6
			c0-0.9,0.8-1.5,2.2-1.5c0.8,0,1.6,0.3,2.2,0.7l-0.4,0.6c-0.5-0.3-1.1-0.6-1.8-0.6c-0.9,0-1.2,0.4-1.2,0.8c0,0.5,0.5,0.7,1.6,0.9
			c1.8,0.4,2.2,0.8,2.2,1.6c0,0.9-0.8,1.6-2.4,1.6C215.9,570.8,214.9,570.5,214.3,570z"/>
		<path d="M220.9,570.2c2.4-2.1,3.7-3.3,3.7-4.5c0-0.8-0.5-1.4-1.5-1.4c-0.7,0-1.2,0.4-1.7,0.8l-0.5-0.5c0.6-0.6,1.3-1.1,2.3-1.1
			c1.4,0,2.3,0.8,2.3,2.1c0,1.3-1.3,2.6-3.2,4.4c0.4,0,0.9-0.1,1.3-0.1h2.3v0.8h-4.9V570.2z"/>
		<path d="M229,567.6c0-2.1,0.9-3.8,2.5-5l0.5,0.5c-1.5,1.2-2.2,2.7-2.2,4.5s0.7,3.3,2.2,4.5l-0.5,0.5
			C229.9,571.5,229,569.8,229,567.6z"/>
		<path d="M235.7,569.9c0-0.5,0.4-0.9,0.9-0.9s0.9,0.4,0.9,0.9c0,0.6-0.4,0.9-0.9,0.9S235.7,570.5,235.7,569.9z"/>
		<path d="M242.3,569.9c0-0.5,0.4-0.9,0.9-0.9s0.9,0.4,0.9,0.9c0,0.6-0.4,0.9-0.9,0.9S242.3,570.5,242.3,569.9z"/>
		<path d="M248.9,569.9c0-0.5,0.4-0.9,0.9-0.9s0.9,0.4,0.9,0.9c0,0.6-0.4,0.9-0.9,0.9S248.9,570.5,248.9,569.9z"/>
		<path d="M254.4,572.2c1.5-1.2,2.2-2.7,2.2-4.5s-0.7-3.3-2.2-4.5l0.5-0.5c1.5,1.2,2.5,2.9,2.5,5s-0.9,3.8-2.5,5L254.4,572.2z"/>
	</g>
</g>
<rect x="627.6" y="233.2" class="st0" width="176.3" height="24.7"/>
<g>
	<g>
		<path d="M634.4,246.1l3.3-2.2v0l-3.3-2.2v-0.9l4.1,2.8v0.7l-4.1,2.8V246.1z"/>
		<path d="M647.1,246.6l0.5-0.6c0.5,0.5,1.3,0.9,2.1,0.9c1,0,1.6-0.5,1.6-1.1c0-0.8-0.6-1-1.3-1.3l-1-0.5c-0.7-0.3-1.6-0.8-1.6-1.9
			c0-1.1,1-1.9,2.4-1.9c0.9,0,1.7,0.4,2.2,0.9l-0.5,0.6c-0.5-0.4-1-0.7-1.8-0.7c-0.8,0-1.4,0.4-1.4,1c0,0.7,0.7,0.9,1.3,1.2l1,0.5
			c0.9,0.4,1.6,0.9,1.6,1.9c0,1.1-1,2.1-2.6,2.1C648.7,247.6,647.8,247.2,647.1,246.6z"/>
		<path d="M657,242.7c0-0.4,0-0.9,0.1-1.2H657c-0.2,0.3-0.5,0.7-0.7,1l-1.9,2.4h4.6v0.7h-5.6V245l3.5-4.5h1v7H657V242.7z"/>
		<path d="M660.2,243.9c0-2.3,1.3-3.7,3.2-3.7c1,0,1.6,0.5,2,0.9l-0.5,0.6c-0.3-0.4-0.8-0.6-1.5-0.6c-1.4,0-2.2,1.1-2.2,2.9
			c0,1.8,0.8,2.9,2.2,2.9c0.5,0,1-0.2,1.2-0.4v-1.9h-1.4v-0.8h2.3v3c-0.5,0.5-1.2,0.8-2.2,0.8C661.5,247.6,660.2,246.3,660.2,243.9z
			"/>
		<path d="M666.9,244.8c0-1.7,1.3-2.8,2.7-2.8c1.5,0,2.4,1,2.4,2.5c0,0.2,0,0.4,0,0.5h-4.5v-0.7h4l-0.2,0.3c0-1.3-0.6-1.9-1.6-1.9
			c-1,0-1.8,0.7-1.8,2.1c0,1.4,0.9,2.1,2.1,2.1c0.6,0,1.1-0.2,1.6-0.5l0.3,0.6c-0.5,0.4-1.2,0.6-2.1,0.6
			C668.2,247.6,666.9,246.6,666.9,244.8z"/>
		<path d="M673.8,242.2h0.7l0.1,0.9h0c0.6-0.6,1.2-1,2-1c1.3,0,1.8,0.7,1.8,2.2v3.3h-0.9v-3.2c0-1-0.4-1.5-1.2-1.5
			c-0.6,0-1.1,0.3-1.7,1v3.7h-0.9V242.2z"/>
		<path d="M680.1,244.8c0-1.7,1.3-2.8,2.7-2.8c1.5,0,2.4,1,2.4,2.5c0,0.2,0,0.4,0,0.5h-4.5v-0.7h4l-0.2,0.3c0-1.3-0.6-1.9-1.6-1.9
			c-1,0-1.8,0.7-1.8,2.1c0,1.4,0.9,2.1,2.1,2.1c0.6,0,1.1-0.2,1.6-0.5l0.3,0.6c-0.5,0.4-1.2,0.6-2.1,0.6
			C681.4,247.6,680.1,246.6,680.1,244.8z"/>
		<path d="M687.6,242.2h0.8l0.1,1.3h0c0.6-0.9,1.4-1.4,2.4-1.4c0.4,0,0.7,0.1,1.1,0.2l-0.2,0.8c-0.4-0.1-0.6-0.2-1-0.2
			c-0.8,0-1.6,0.4-2.2,1.5v3.1h-0.9V242.2z"/>
		<path d="M696.1,242.9h-2.5v-0.7h3.4v5.3h-0.9V242.9z M695.7,240.3c0-0.4,0.3-0.7,0.7-0.7s0.7,0.3,0.7,0.7c0,0.4-0.3,0.7-0.7,0.7
			S695.7,240.8,695.7,240.3z"/>
		<path d="M700.1,244.9c0-1.8,1.4-2.8,3-2.8c0.9,0,1.5,0.4,1.9,0.8l-0.5,0.6c-0.4-0.4-0.9-0.6-1.5-0.6c-1.2,0-2.1,0.8-2.1,2.1
			c0,1.2,0.8,2,2.1,2c0.7,0,1.2-0.3,1.7-0.7l0.4,0.6c-0.6,0.5-1.3,0.8-2.1,0.8C701.3,247.6,700.1,246.6,700.1,244.9z"/>
		<path d="M706.9,246.8h2v-5.1h-1.6V241c0.8-0.1,1.4-0.3,1.8-0.5h0.7v6.3h1.8v0.8h-4.8V246.8z"/>
		<path d="M714.7,244.5c0-2.1,0.9-3.8,2.5-5l0.5,0.5c-1.5,1.2-2.2,2.7-2.2,4.5c0,1.8,0.7,3.3,2.2,4.5l-0.5,0.5
			C715.6,248.3,714.7,246.6,714.7,244.5z"/>
		<path d="M721.7,244.7l-1.9-2.6h1l0.8,1.2c0.2,0.3,0.4,0.6,0.6,0.9h0c0.2-0.3,0.4-0.6,0.6-0.9l0.8-1.2h1l-1.9,2.7l2,2.7h-1
			l-0.9-1.2c-0.2-0.3-0.5-0.7-0.7-1h0c-0.2,0.3-0.4,0.6-0.7,1l-0.9,1.2h-1L721.7,244.7z"/>
		<path d="M733.1,242.4h4.7v0.7h-4.7V242.4z M733.1,244.7h4.7v0.7h-4.7V244.7z"/>
		<path class="st4" d="M746,244.9c0-1.8,1.2-2.8,2.6-2.8s2.6,1,2.6,2.8c0,1.8-1.2,2.8-2.6,2.8S746,246.6,746,244.9z M750.4,244.9
			c0-1.2-0.7-2.1-1.7-2.1s-1.7,0.8-1.7,2.1c0,1.2,0.7,2,1.7,2S750.4,246.1,750.4,244.9z"/>
		<path class="st4" d="M753.9,246.9L753.9,246.9l-0.1,0.6H753v-7.8h0.9v2.1l0,1h0c0.5-0.5,1.2-0.8,1.8-0.8c1.4,0,2.2,1.1,2.2,2.7
			c0,1.8-1.1,2.9-2.4,2.9C755,247.6,754.4,247.4,753.9,246.9z M757,244.8c0-1.2-0.4-2-1.5-2c-0.5,0-1,0.2-1.6,0.8v2.7
			c0.5,0.5,1.1,0.6,1.4,0.6C756.3,246.9,757,246.1,757,244.8z"/>
		<path class="st4" d="M759.2,249.5l0.3-0.7c0.4,0.2,0.8,0.3,1.2,0.3c1.1,0,1.3-0.5,1.3-1.4v-4.8h-2.5v-0.7h3.4v5.5
			c0,1.3-0.5,2.3-2.2,2.3C760.2,249.9,759.6,249.7,759.2,249.5z M761.7,240.3c0-0.4,0.3-0.7,0.7-0.7s0.7,0.3,0.7,0.7
			c0,0.4-0.3,0.7-0.7,0.7S761.7,240.8,761.7,240.3z"/>
		<path class="st4" d="M765.9,244.8c0-1.7,1.3-2.8,2.7-2.8c1.5,0,2.4,1,2.4,2.5c0,0.2,0,0.4,0,0.5h-4.5v-0.7h4l-0.2,0.3
			c0-1.3-0.6-1.9-1.6-1.9c-1,0-1.8,0.7-1.8,2.1c0,1.4,0.9,2.1,2.1,2.1c0.6,0,1.1-0.2,1.6-0.5l0.3,0.6c-0.5,0.4-1.2,0.6-2.1,0.6
			C767.2,247.6,765.9,246.6,765.9,244.8z"/>
		<path class="st4" d="M772.7,244.9c0-1.8,1.4-2.8,3-2.8c0.9,0,1.5,0.4,1.9,0.8l-0.5,0.6c-0.4-0.4-0.9-0.6-1.5-0.6
			c-1.2,0-2.1,0.8-2.1,2.1c0,1.2,0.8,2,2.1,2c0.7,0,1.2-0.3,1.7-0.7l0.4,0.6c-0.6,0.5-1.3,0.8-2.1,0.8
			C773.9,247.6,772.7,246.6,772.7,244.9z"/>
		<path class="st4" d="M780.7,245.4v-2.5h-1.5v-0.7l1.6-0.1l0.1-1.7h0.8v1.7h2.6v0.7h-2.6v2.5c0,1,0.3,1.5,1.4,1.5
			c0.5,0,0.9-0.1,1.3-0.2l0.2,0.7c-0.5,0.2-1,0.3-1.7,0.3C781.2,247.6,780.7,246.8,780.7,245.4z"/>
		<path class="st4" d="M785.8,247c2.4-2.1,3.7-3.3,3.7-4.5c0-0.8-0.5-1.4-1.5-1.4c-0.7,0-1.2,0.4-1.7,0.8l-0.5-0.5
			c0.6-0.6,1.3-1.1,2.3-1.1c1.4,0,2.3,0.8,2.3,2.1c0,1.3-1.3,2.6-3.2,4.4c0.4,0,0.9-0.1,1.3-0.1h2.3v0.8h-4.9V247z"/>
		<path d="M792.9,249c1.5-1.2,2.2-2.7,2.2-4.5c0-1.8-0.7-3.3-2.2-4.5l0.5-0.5c1.5,1.2,2.5,2.9,2.5,5c0,2.1-0.9,3.8-2.5,5L792.9,249z
			"/>
	</g>
</g>
</svg>
