<svg id="Layer_1" data-name="Layer 1" xmlns="http://www.w3.org/2000/svg" viewBox="0 0 640.8 514.58"><defs><style>.cls-1{font-size:12px;font-family:MyriadPro-Regular, Myriad Pro;}.cls-1,.cls-5{fill:#1d1d1b;}.cls-2{letter-spacing:0.01em;}.cls-3{fill:#98d6f2;}.cls-11,.cls-12,.cls-21,.cls-22,.cls-23,.cls-3,.cls-4{stroke:#1d1d1b;stroke-miterlimit:10;stroke-width:0.75px;}.cls-12,.cls-21,.cls-22,.cls-23,.cls-4{fill:none;}.cls-6{letter-spacing:-0.01em;}.cls-7{letter-spacing:0em;}.cls-8{letter-spacing:0em;}.cls-9{letter-spacing:0em;}.cls-10{letter-spacing:0em;}.cls-11{fill:#fad6e8;}.cls-12{stroke-dasharray:3.33 3.33;}.cls-13{letter-spacing:-0.01em;}.cls-14{letter-spacing:0em;}.cls-15{letter-spacing:-0.02em;}.cls-16{letter-spacing:-0.01em;}.cls-17{letter-spacing:-0.01em;}.cls-18{letter-spacing:0.01em;}.cls-19{letter-spacing:0em;}.cls-20{fill:#f6f6f6;}.cls-21{stroke-dasharray:6.2 6.2;}.cls-22{stroke-dasharray:6.77 6.77;}.cls-23{stroke-dasharray:5.79 5.79;}</style></defs><text class="cls-1" transform="translate(120.22 39.87)"><tspan class="cls-2">G</tspan><tspan x="7.81" y="0">ene model</tspan></text><rect class="cls-3" x="208.97" y="27.19" width="111.4" height="26.32"/><line class="cls-4" x1="320.37" y1="40.35" x2="381.65" y2="40.35"/><polygon class="cls-5" points="380.56 44.09 387.04 40.35 380.56 36.61 380.56 44.09"/><rect class="cls-3" x="387.04" y="27.19" width="111.4" height="26.32"/><line class="cls-4" x1="320.37" y1="77.49" x2="381.65" y2="77.49"/><polygon class="cls-5" points="380.56 81.23 387.04 77.49 380.56 73.75 380.56 81.23"/><rect class="cls-3" x="239.08" y="64.33" width="81.29" height="26.32"/><rect class="cls-3" x="387.04" y="64.33" width="111.4" height="26.32"/><text class="cls-1" transform="translate(128.73 137.35)">Unspli<tspan class="cls-6" x="31.64" y="0">c</tspan><tspan class="cls-7" x="36.95" y="0">ed</tspan><tspan x="0" y="14.4">t</tspan><tspan class="cls-8" x="3.97" y="14.4">r</tspan><tspan x="7.84" y="14.4">ansc</tspan><tspan class="cls-9" x="30.41" y="14.4">r</tspan><tspan class="cls-10" x="34.38" y="14.4">ipts</tspan></text><rect class="cls-11" x="208.97" y="125.47" width="289.47" height="26.32"/><line class="cls-4" x1="320.37" y1="125.47" x2="320.37" y2="126.97"/><line class="cls-12" x1="320.37" y1="130.3" x2="320.37" y2="148.62"/><line class="cls-4" x1="320.37" y1="150.28" x2="320.37" y2="151.78"/><line class="cls-4" x1="387.04" y1="125.47" x2="387.04" y2="126.97"/><line class="cls-12" x1="387.04" y1="130.3" x2="387.04" y2="148.62"/><line class="cls-4" x1="387.04" y1="150.28" x2="387.04" y2="151.78"/><rect class="cls-11" x="239.08" y="166.61" width="259.36" height="26.32"/><line class="cls-4" x1="320.37" y1="166.61" x2="320.37" y2="168.11"/><line class="cls-12" x1="320.37" y1="171.44" x2="320.37" y2="189.76"/><line class="cls-4" x1="320.37" y1="191.42" x2="320.37" y2="192.92"/><line class="cls-4" x1="387.04" y1="166.61" x2="387.04" y2="168.11"/><line class="cls-12" x1="387.04" y1="171.44" x2="387.04" y2="189.76"/><line class="cls-4" x1="387.04" y1="191.42" x2="387.04" y2="192.92"/><text class="cls-1" transform="translate(119.92 236.42)"><tspan class="cls-2">G</tspan><tspan x="7.81" y="0">ene </tspan><tspan class="cls-13" x="29.04" y="0">r</tspan><tspan class="cls-7" x="32.84" y="0">e</tspan><tspan class="cls-6" x="38.86" y="0">g</tspan><tspan x="45.49" y="0">ion</tspan></text><rect class="cls-11" x="208.97" y="219.74" width="111.4" height="26.32"/><line class="cls-4" x1="320.37" y1="232.9" x2="381.65" y2="232.9"/><polygon class="cls-5" points="380.56 236.64 387.04 232.9 380.56 229.16 380.56 236.64"/><rect class="cls-11" x="387.04" y="219.74" width="111.4" height="26.32"/><text class="cls-1" transform="translate(119.43 286.56)">Disjoi<tspan class="cls-14" x="27.86" y="0">n</tspan><tspan x="34.48" y="0">t bins</tspan></text><line class="cls-4" x1="319.37" y1="283.04" x2="380.65" y2="283.04"/><polygon class="cls-5" points="379.56 286.78 386.03 283.04 379.56 279.3 379.56 286.78"/><rect class="cls-11" x="207.96" y="269.88" width="111.4" height="26.32"/><rect class="cls-11" x="386.03" y="269.88" width="111.4" height="26.32"/><line class="cls-4" x1="239.08" y1="269.88" x2="239.08" y2="296.2"/><text class="cls-1" transform="translate(95.83 338.91)"><tspan class="cls-15">P</tspan><tspan class="cls-16" x="6.19" y="0">r</tspan><tspan x="10" y="0">omo</tspan><tspan class="cls-17" x="33.18" y="0">t</tspan><tspan x="37.08" y="0">er</tspan></text><rect class="cls-3" x="208.87" y="322.02" width="111.4" height="26.32"/><line class="cls-4" x1="320.28" y1="335.18" x2="381.56" y2="335.18"/><polygon class="cls-5" points="380.47 338.92 386.94 335.18 380.47 331.44 380.47 338.92"/><rect class="cls-3" x="386.95" y="322.02" width="111.4" height="26.32"/><rect class="cls-11" x="161.32" y="331.19" width="47.64" height="7.98"/><rect class="cls-3" x="239.08" y="361.16" width="81.29" height="26.32"/><line class="cls-4" x1="320.37" y1="374.32" x2="381.65" y2="374.32"/><polygon class="cls-5" points="380.56 378.06 387.04 374.32 380.56 370.58 380.56 378.06"/><rect class="cls-3" x="387.04" y="361.16" width="111.4" height="26.32"/><rect class="cls-11" x="191.43" y="370.33" width="47.64" height="7.98"/><text class="cls-1" transform="translate(146.09 437.08)"><tspan class="cls-18">I</tspan><tspan class="cls-19" x="2.99" y="0">n</tspan><tspan class="cls-7" x="9.6" y="0">t</tspan><tspan class="cls-16" x="13.57" y="0">r</tspan><tspan x="17.38" y="0">ons</tspan></text><rect class="cls-20" x="208.97" y="416.3" width="111.4" height="26.32"/><polyline class="cls-4" points="320.37 439.61 320.37 442.61 317.37 442.61"/><line class="cls-21" x1="311.17" y1="442.61" x2="215.07" y2="442.61"/><polyline class="cls-4" points="211.97 442.61 208.97 442.61 208.97 439.61"/><line class="cls-22" x1="208.97" y1="432.84" x2="208.97" y2="422.68"/><polyline class="cls-4" points="208.97 419.3 208.97 416.3 211.97 416.3"/><line class="cls-21" x1="218.17" y1="416.3" x2="314.27" y2="416.3"/><polyline class="cls-4" points="317.37 416.3 320.37 416.3 320.37 419.3"/><line class="cls-22" x1="320.37" y1="426.07" x2="320.37" y2="436.23"/><rect class="cls-20" x="387.04" y="416.3" width="111.4" height="26.32"/><polyline class="cls-4" points="498.44 439.61 498.44 442.61 495.44 442.61"/><line class="cls-21" x1="489.24" y1="442.61" x2="393.14" y2="442.61"/><polyline class="cls-4" points="390.04 442.61 387.04 442.61 387.04 439.61"/><line class="cls-22" x1="387.04" y1="432.84" x2="387.04" y2="422.68"/><polyline class="cls-4" points="387.04 419.3 387.04 416.3 390.04 416.3"/><line class="cls-21" x1="396.24" y1="416.3" x2="492.34" y2="416.3"/><polyline class="cls-4" points="495.44 416.3 498.44 416.3 498.44 419.3"/><line class="cls-22" x1="498.44" y1="426.07" x2="498.44" y2="436.23"/><rect class="cls-11" x="320.37" y="416.3" width="65.66" height="26.32"/><rect class="cls-20" x="239.08" y="458.44" width="81.29" height="26.32"/><polyline class="cls-4" points="320.37 481.75 320.37 484.75 317.37 484.75"/><line class="cls-23" x1="311.58" y1="484.75" x2="244.97" y2="484.75"/><polyline class="cls-4" points="242.08 484.75 239.08 484.75 239.08 481.75"/><line class="cls-22" x1="239.08" y1="474.98" x2="239.08" y2="464.82"/><polyline class="cls-4" points="239.08 461.44 239.08 458.44 242.08 458.44"/><line class="cls-23" x1="247.87" y1="458.44" x2="314.47" y2="458.44"/><polyline class="cls-4" points="317.37 458.44 320.37 458.44 320.37 461.44"/><line class="cls-22" x1="320.37" y1="468.21" x2="320.37" y2="478.37"/><rect class="cls-20" x="387.04" y="458.44" width="111.4" height="26.32"/><polyline class="cls-4" points="498.44 481.75 498.44 484.75 495.44 484.75"/><line class="cls-21" x1="489.24" y1="484.75" x2="393.14" y2="484.75"/><polyline class="cls-4" points="390.04 484.75 387.04 484.75 387.04 481.75"/><line class="cls-22" x1="387.04" y1="474.98" x2="387.04" y2="464.82"/><polyline class="cls-4" points="387.04 461.44 387.04 458.44 390.04 458.44"/><line class="cls-21" x1="396.24" y1="458.44" x2="492.34" y2="458.44"/><polyline class="cls-4" points="495.44 458.44 498.44 458.44 498.44 461.44"/><line class="cls-22" x1="498.44" y1="468.21" x2="498.44" y2="478.37"/><rect class="cls-11" x="319.87" y="458.44" width="65.66" height="26.32"/></svg>