<?xml version="1.0" encoding="utf-8"?>
<!-- Generator: Adobe Illustrator 25.4.1, SVG Export Plug-In . SVG Version: 6.00 Build 0)  -->
<svg version="1.1" id="Layer_1" xmlns="http://www.w3.org/2000/svg" xmlns:xlink="http://www.w3.org/1999/xlink" x="0px" y="0px"
	 viewBox="0 0 198.4 85" style="enable-background:new 0 0 198.4 85;" xml:space="preserve">
<style type="text/css">
	.st0{fill:none;stroke:#000000;stroke-width:0.25;stroke-miterlimit:10;}
	.st1{font-family:'ArialMT';}
	.st2{font-size:3px;}
	.st3{fill:#E6332A;}
	.st4{fill:#1D71B8;}
	.st5{fill:#36A9E1;}
	.st6{font-size:5px;}
	.st7{fill:#E94E1B;}
	.st8{fill:#008D36;}
	.st9{fill:#3AAA35;}
	.st10{fill:#F39200;}
	.st11{fill:#BE1622;}
	.st12{fill:#312783;}
</style>
<line class="st0" x1="94" y1="17.4" x2="94" y2="18.4"/>
<line class="st0" x1="114" y1="17.4" x2="114" y2="18.4"/>
<line class="st0" x1="74" y1="17.4" x2="74" y2="18.4"/>
<line class="st0" x1="134" y1="17.4" x2="134" y2="18.4"/>
<line class="st0" x1="144" y1="17.4" x2="144" y2="18.4"/>
<line class="st0" x1="164" y1="17.4" x2="164" y2="18.4"/>
<line class="st0" x1="174" y1="17.4" x2="174" y2="18.4"/>
<text transform="matrix(1 0 0 1 33.7343 29.3427)" class="st1 st2">R</text>
<line class="st0" x1="154" y1="17.4" x2="154" y2="18.4"/>
<line class="st0" x1="54" y1="17.4" x2="54" y2="18.4"/>
<rect x="54" y="18.4" class="st3" width="40" height="20"/>
<text transform="matrix(1 0 0 1 48.5287 65.927)" class="st1 st2">April 28,</text>
<text transform="matrix(1 0 0 1 50.7287 69.527)" class="st1 st2">2020</text>
<text transform="matrix(1 0 0 1 66.1909 65.9272)" class="st1 st2">October 28,</text>
<text transform="matrix(1 0 0 1 70.6909 69.5272)" class="st1 st2">2020</text>
<text transform="matrix(1 0 0 1 26.0412 51.6817)" class="st1 st2">Bioconductor</text>
<rect x="54" y="38.4" class="st4" width="20" height="20"/>
<rect x="74" y="38.4" class="st5" width="20" height="20"/>
<text transform="matrix(1 0 0 1 70.5536 29.6869)" class="st1 st6">4.0</text>
<text transform="matrix(1 0 0 1 59.1629 49.6866)" class="st1 st6">3.11</text>
<text transform="matrix(1 0 0 1 79.163 49.6865)" class="st1 st6">3.12</text>
<rect x="94" y="18.4" class="st7" width="40" height="20"/>
<text transform="matrix(1 0 0 1 110.5535 29.6867)" class="st1 st6">4.1</text>
<rect x="94" y="38.4" class="st8" width="20" height="20"/>
<rect x="114" y="38.4" class="st9" width="20" height="20"/>
<text transform="matrix(1 0 0 1 99.1629 49.6866)" class="st1 st6">3.13</text>
<text transform="matrix(1 0 0 1 121.9447 49.6865)" class="st1 st6">...</text>
<text transform="matrix(1 0 0 1 88.6955 65.9273)" class="st1 st2">May 20,</text>
<text transform="matrix(1 0 0 1 90.6955 69.5273)" class="st1 st2">2021</text>
<text transform="matrix(1 0 0 1 112.7781 65.927)" class="st1 st2">...</text>
<text transform="matrix(1 0 0 1 110.6781 69.527)" class="st1 st2">2021</text>
<text transform="matrix(1 0 0 1 51.0287 10.9273)" class="st1 st2">April</text>
<text transform="matrix(1 0 0 1 50.7287 14.5273)" class="st1 st2">2020</text>
<text transform="matrix(1 0 0 1 91.1958 10.9273)" class="st1 st2">May</text>
<text transform="matrix(1 0 0 1 90.6958 14.5273)" class="st1 st2">2021</text>
<text transform="matrix(1 0 0 1 132.7784 10.9275)" class="st1 st2">...</text>
<text transform="matrix(1 0 0 1 130.6784 14.5274)" class="st1 st2">2022</text>
<rect x="134" y="18.4" class="st10" width="40" height="20"/>
<text transform="matrix(1 0 0 1 151.9449 29.6869)" class="st1 st6">...</text>
<line class="st0" x1="174" y1="38.4" x2="22.2" y2="38.4"/>
<rect x="50" y="18.4" class="st11" width="2" height="20"/>
<rect x="46" y="18.4" class="st11" width="2" height="20"/>
<rect x="50" y="38.4" class="st12" width="2" height="20"/>
<rect x="46" y="38.4" class="st12" width="2" height="20"/>
</svg>
