<?xml version="1.0" encoding="utf-8"?>
<!-- Generator: Adobe Illustrator 25.4.1, SVG Export Plug-In . SVG Version: 6.00 Build 0)  -->
<svg version="1.1" id="Layer_1" xmlns="http://www.w3.org/2000/svg" xmlns:xlink="http://www.w3.org/1999/xlink" x="0px" y="0px"
	 viewBox="0 0 623.6 311.8" style="enable-background:new 0 0 623.6 311.8;" xml:space="preserve">
<style type="text/css">
	.st0{fill:none;}
	.st1{font-family:'MyriadPro-Regular';}
	.st2{font-size:16px;}
	.st3{fill:none;stroke:#000000;stroke-miterlimit:10;}
	.st4{font-size:12px;}
	.st5{fill:#312783;stroke:#312783;stroke-miterlimit:10;}
	.st6{font-size:20px;}
</style>
<rect x="431.4" y="106.7" class="st0" width="148.3" height="15.8"/>
<text transform="matrix(1 0 0 1 434.1154 120.3301)" class="st1 st2">BiocManager::install()</text>
<rect x="434.7" y="206.3" class="st0" width="141.8" height="15.8"/>
<text transform="matrix(1 0 0 1 448.3869 219.8806)" class="st1 st2">install.packages()</text>
<text transform="matrix(1 0 0 1 103.5516 118.4713)" class="st1 st2">CRAN</text>
<text transform="matrix(1 0 0 1 77.4794 31.0175)" class="st1 st2">Bioconductor</text>
<text transform="matrix(1 0 0 1 264.8771 120.2212)" class="st1 st2">BiocManager</text>
<g>
	<line x1="308.7" y1="188.4" x2="308.7" y2="140.1"/>
	<g>
		<line class="st3" x1="308.7" y1="188.4" x2="308.7" y2="147.3"/>
		<g>
			<polygon points="313.7,148.7 308.7,140.1 303.8,148.7 			"/>
		</g>
	</g>
</g>
<text transform="matrix(1 0 0 1 101.0719 216.844)" class="st1 st2">base R</text>
<text transform="matrix(1 0 0 1 294.7565 217.8708)" class="st1 st2">utils</text>
<g>
	<g>
		<g>
			<g>
				<line class="st3" x1="308.7" y1="94.7" x2="308.7" y2="53.6"/>
				<g>
					<polygon points="313.6,55.1 308.7,46.4 303.7,55.1 					"/>
				</g>
			</g>
		</g>
		<g>
			<g>
				<line class="st3" x1="308.7" y1="94.7" x2="326.2" y2="53"/>
				<g>
					<polygon points="330.2,56.3 329,46.4 321,52.4 					"/>
				</g>
			</g>
		</g>
		<g>
			<g>
				<line class="st3" x1="308.8" y1="94.7" x2="291.3" y2="53"/>
				<g>
					<polygon points="296.5,52.4 288.5,46.4 287.3,56.3 					"/>
				</g>
			</g>
		</g>
	</g>
	<text transform="matrix(1 0 0 1 305.0114 32.3983)" class="st1 st4">...</text>
	<text transform="matrix(1 0 0 1 325.1533 32.3978)" class="st1 st4">...</text>
	<text transform="matrix(1 0 0 1 284.8756 32.3973)" class="st1 st4">...</text>
</g>
<rect x="448.6" y="264.6" class="st0" width="114.1" height="15.8"/>
<text transform="matrix(1 0 0 1 468.4941 279.6299)" class="st5 st1 st6">Function</text>
<rect x="251.7" y="262.6" class="st0" width="114.1" height="15.8"/>
<text transform="matrix(1 0 0 1 274.0104 277.6072)" class="st5 st1 st6">Package</text>
<rect x="65.6" y="260.6" class="st0" width="114.1" height="15.8"/>
<text transform="matrix(1 0 0 1 78.0058 275.5845)" class="st5 st1 st6">Repository</text>
</svg>
