<svg id="Layer_1" data-name="Layer 1" xmlns="http://www.w3.org/2000/svg" viewBox="0 0 908.49 555.58"><defs><style>.cls-1{font-size:12px;font-family:MyriadPro-Regular, Myriad Pro;}.cls-1,.cls-5{fill:#1d1d1b;}.cls-2{letter-spacing:0.01em;}.cls-3{fill:#98d6f2;}.cls-11,.cls-12,.cls-21,.cls-22,.cls-23,.cls-3,.cls-4{stroke:#1d1d1b;stroke-miterlimit:10;stroke-width:0.75px;}.cls-12,.cls-21,.cls-22,.cls-23,.cls-4{fill:none;}.cls-6{letter-spacing:-0.01em;}.cls-7{letter-spacing:0em;}.cls-8{letter-spacing:0em;}.cls-9{letter-spacing:0em;}.cls-10{letter-spacing:0em;}.cls-11{fill:#fad6e8;}.cls-12{stroke-dasharray:3.33 3.33;}.cls-13{letter-spacing:-0.01em;}.cls-14{letter-spacing:0em;}.cls-15{letter-spacing:-0.02em;}.cls-16{letter-spacing:-0.01em;}.cls-17{letter-spacing:-0.01em;}.cls-18{letter-spacing:0.01em;}.cls-19{letter-spacing:0em;}.cls-20{fill:#f6f6f6;}.cls-21{stroke-dasharray:6.2 6.2;}.cls-22{stroke-dasharray:6.77 6.77;}.cls-23{stroke-dasharray:5.79 5.79;}</style></defs><text class="cls-1" transform="translate(277.33 61.69)"><tspan class="cls-2">G</tspan><tspan x="7.81" y="0">ene model</tspan></text><rect class="cls-3" x="366.08" y="49.01" width="111.4" height="26.32"/><line class="cls-4" x1="477.48" y1="62.17" x2="538.77" y2="62.17"/><polygon class="cls-5" points="537.67 65.91 544.15 62.17 537.67 58.43 537.67 65.91"/><rect class="cls-3" x="544.15" y="49.01" width="111.4" height="26.32"/><line class="cls-4" x1="477.48" y1="99.3" x2="538.77" y2="99.3"/><polygon class="cls-5" points="537.67 103.04 544.15 99.31 537.67 95.56 537.67 103.04"/><rect class="cls-3" x="396.19" y="86.15" width="81.29" height="26.32"/><rect class="cls-3" x="544.15" y="86.15" width="111.4" height="26.32"/><text class="cls-1" transform="translate(285.84 159.17)">Unspli<tspan class="cls-6" x="31.64" y="0">c</tspan><tspan class="cls-7" x="36.95" y="0">ed</tspan><tspan x="0" y="14.4">t</tspan><tspan class="cls-8" x="3.97" y="14.4">r</tspan><tspan x="7.84" y="14.4">ansc</tspan><tspan class="cls-9" x="30.41" y="14.4">r</tspan><tspan class="cls-10" x="34.38" y="14.4">ipts</tspan></text><rect class="cls-11" x="366.08" y="147.29" width="289.47" height="26.32"/><line class="cls-4" x1="477.48" y1="147.29" x2="477.48" y2="148.79"/><line class="cls-12" x1="477.48" y1="152.12" x2="477.48" y2="170.44"/><line class="cls-4" x1="477.48" y1="172.1" x2="477.48" y2="173.6"/><line class="cls-4" x1="544.15" y1="147.29" x2="544.15" y2="148.79"/><line class="cls-12" x1="544.15" y1="152.12" x2="544.15" y2="170.44"/><line class="cls-4" x1="544.15" y1="172.1" x2="544.15" y2="173.6"/><rect class="cls-11" x="396.19" y="188.42" width="259.36" height="26.32"/><line class="cls-4" x1="477.48" y1="188.42" x2="477.48" y2="189.92"/><line class="cls-12" x1="477.48" y1="193.25" x2="477.48" y2="211.57"/><line class="cls-4" x1="477.48" y1="213.24" x2="477.48" y2="214.74"/><line class="cls-4" x1="544.15" y1="188.42" x2="544.15" y2="189.92"/><line class="cls-12" x1="544.15" y1="193.25" x2="544.15" y2="211.57"/><line class="cls-4" x1="544.15" y1="213.24" x2="544.15" y2="214.74"/><text class="cls-1" transform="translate(277.03 258.24)"><tspan class="cls-2">G</tspan><tspan x="7.81" y="0">ene </tspan><tspan class="cls-13" x="29.04" y="0">r</tspan><tspan class="cls-7" x="32.84" y="0">e</tspan><tspan class="cls-6" x="38.86" y="0">g</tspan><tspan x="45.49" y="0">ion</tspan></text><rect class="cls-11" x="366.08" y="241.56" width="111.4" height="26.32"/><line class="cls-4" x1="477.48" y1="254.72" x2="538.77" y2="254.72"/><polygon class="cls-5" points="537.67 258.46 544.15 254.72 537.67 250.98 537.67 258.46"/><rect class="cls-11" x="544.15" y="241.56" width="111.4" height="26.32"/><text class="cls-1" transform="translate(276.54 308.38)">Disjoi<tspan class="cls-14" x="27.86" y="0">n</tspan><tspan x="34.48" y="0">t bins</tspan></text><line class="cls-4" x1="476.48" y1="304.86" x2="537.76" y2="304.86"/><polygon class="cls-5" points="536.67 308.6 543.15 304.86 536.67 301.12 536.67 308.6"/><rect class="cls-11" x="365.08" y="291.7" width="111.4" height="26.32"/><rect class="cls-11" x="543.15" y="291.7" width="111.4" height="26.32"/><line class="cls-4" x1="396.19" y1="291.7" x2="396.19" y2="318.02"/><text class="cls-1" transform="translate(252.94 360.72)"><tspan class="cls-15">P</tspan><tspan class="cls-16" x="6.19" y="0">r</tspan><tspan x="10" y="0">omo</tspan><tspan class="cls-17" x="33.18" y="0">t</tspan><tspan x="37.08" y="0">er</tspan></text><rect class="cls-3" x="365.99" y="343.84" width="111.4" height="26.32"/><line class="cls-4" x1="477.39" y1="357" x2="538.68" y2="357"/><polygon class="cls-5" points="537.58 360.74 544.06 357 537.58 353.26 537.58 360.74"/><rect class="cls-3" x="544.06" y="343.84" width="111.4" height="26.32"/><rect class="cls-11" x="318.43" y="353.01" width="47.64" height="7.98"/><rect class="cls-3" x="396.19" y="382.98" width="81.29" height="26.32"/><line class="cls-4" x1="477.48" y1="396.14" x2="538.77" y2="396.14"/><polygon class="cls-5" points="537.67 399.88 544.15 396.14 537.67 392.4 537.67 399.88"/><rect class="cls-3" x="544.15" y="382.98" width="111.4" height="26.32"/><rect class="cls-11" x="348.55" y="392.15" width="47.64" height="7.98"/><text class="cls-1" transform="translate(303.2 458.9)"><tspan class="cls-18">I</tspan><tspan class="cls-19" x="2.99" y="0">n</tspan><tspan class="cls-7" x="9.6" y="0">t</tspan><tspan class="cls-16" x="13.57" y="0">r</tspan><tspan x="17.38" y="0">ons</tspan></text><rect class="cls-20" x="366.08" y="438.12" width="111.4" height="26.32"/><polyline class="cls-4" points="477.48 461.43 477.48 464.43 474.48 464.43"/><line class="cls-21" x1="468.28" y1="464.43" x2="372.18" y2="464.43"/><polyline class="cls-4" points="369.08 464.43 366.08 464.43 366.08 461.43"/><line class="cls-22" x1="366.08" y1="454.66" x2="366.08" y2="444.5"/><polyline class="cls-4" points="366.08 441.12 366.08 438.12 369.08 438.12"/><line class="cls-21" x1="375.28" y1="438.12" x2="471.38" y2="438.12"/><polyline class="cls-4" points="474.48 438.12 477.48 438.12 477.48 441.12"/><line class="cls-22" x1="477.48" y1="447.89" x2="477.48" y2="458.05"/><rect class="cls-20" x="544.15" y="438.12" width="111.4" height="26.32"/><polyline class="cls-4" points="655.55 461.43 655.55 464.43 652.55 464.43"/><line class="cls-21" x1="646.35" y1="464.43" x2="550.25" y2="464.43"/><polyline class="cls-4" points="547.15 464.43 544.15 464.43 544.15 461.43"/><line class="cls-22" x1="544.15" y1="454.66" x2="544.15" y2="444.5"/><polyline class="cls-4" points="544.15 441.12 544.15 438.12 547.15 438.12"/><line class="cls-21" x1="553.35" y1="438.12" x2="649.45" y2="438.12"/><polyline class="cls-4" points="652.55 438.12 655.55 438.12 655.55 441.12"/><line class="cls-22" x1="655.55" y1="447.89" x2="655.55" y2="458.05"/><rect class="cls-11" x="477.48" y="438.12" width="65.66" height="26.32"/><rect class="cls-20" x="396.19" y="480.26" width="81.29" height="26.32"/><polyline class="cls-4" points="477.48 503.57 477.48 506.57 474.48 506.57"/><line class="cls-23" x1="468.69" y1="506.57" x2="402.09" y2="506.57"/><polyline class="cls-4" points="399.19 506.57 396.19 506.57 396.19 503.57"/><line class="cls-22" x1="396.19" y1="496.8" x2="396.19" y2="486.64"/><polyline class="cls-4" points="396.19 483.25 396.19 480.25 399.19 480.25"/><line class="cls-23" x1="404.98" y1="480.26" x2="471.59" y2="480.26"/><polyline class="cls-4" points="474.48 480.25 477.48 480.25 477.48 483.25"/><line class="cls-22" x1="477.48" y1="490.03" x2="477.48" y2="500.19"/><rect class="cls-20" x="544.15" y="480.26" width="111.4" height="26.32"/><polyline class="cls-4" points="655.55 503.57 655.55 506.57 652.55 506.57"/><line class="cls-21" x1="646.35" y1="506.57" x2="550.25" y2="506.57"/><polyline class="cls-4" points="547.15 506.57 544.15 506.57 544.15 503.57"/><line class="cls-22" x1="544.15" y1="496.8" x2="544.15" y2="486.64"/><polyline class="cls-4" points="544.15 483.25 544.15 480.25 547.15 480.25"/><line class="cls-21" x1="553.35" y1="480.26" x2="649.45" y2="480.26"/><polyline class="cls-4" points="652.55 480.25 655.55 480.25 655.55 483.25"/><line class="cls-22" x1="655.55" y1="490.03" x2="655.55" y2="500.19"/><rect class="cls-11" x="476.98" y="480.26" width="65.66" height="26.32"/></svg>