<?xml version="1.0" encoding="utf-8"?>
<!-- Generator: Adobe Illustrator 26.0.1, SVG Export Plug-In . SVG Version: 6.00 Build 0)  -->
<svg version="1.1" id="Layer_1" xmlns="http://www.w3.org/2000/svg" xmlns:xlink="http://www.w3.org/1999/xlink" x="0px" y="0px"
	 viewBox="0 0 841.9 595.3" style="enable-background:new 0 0 841.9 595.3;" xml:space="preserve">
<style type="text/css">
	.st0{fill:#EDEDED;stroke:#575756;stroke-miterlimit:10;}
	.st1{fill:none;stroke:#000000;stroke-miterlimit:10;}
	.st2{font-family:'MyriadPro-Regular';}
	.st3{font-size:12px;}
	.st4{fill:#009640;}
</style>
<rect x="475.6" y="82.1" class="st0" width="170.8" height="30.8"/>
<rect x="612" y="352.8" class="st0" width="170.8" height="61.5"/>
<rect x="334.9" y="352.8" class="st0" width="170.8" height="61.5"/>
<rect x="332.1" y="199.3" class="st0" width="176.3" height="24.7"/>
<rect x="67.5" y="498.3" class="st0" width="182" height="52.8"/>
<rect x="67.5" y="47.2" class="st1" width="182" height="27.8"/>
<text transform="matrix(1 0 0 1 136.8233 64.4008)" class="st2 st3">S4Class1</text>
<text transform="matrix(1 0 0 1 79.0014 105.8268)" class="st2 st3">SlotName1</text>
<text transform="matrix(1 0 0 1 79.001 127.1003)" class="st2 st3">SlotName2</text>
<text transform="matrix(1 0 0 1 176.5562 105.8272)" class="st2 st3">SlotType1</text>
<text transform="matrix(1 0 0 1 176.5561 127.2323)" class="st2 st3">SlotType2</text>
<rect x="67.5" y="75.1" class="st1" width="182" height="71.6"/>
<rect x="67.5" y="265.2" class="st1" width="182" height="27.8"/>
<text transform="matrix(1 0 0 1 136.8233 282.4209)" class="st2 st3">S4Class2</text>
<text transform="matrix(1 0 0 1 79.0014 351.3167)" class="st2 st3">SlotName1</text>
<text transform="matrix(1 0 0 1 79.001 372.5903)" class="st2 st3">SlotName2</text>
<text transform="matrix(1 0 0 1 176.5562 351.3171)" class="st2 st3">SlotType1</text>
<text transform="matrix(1 0 0 1 176.5561 372.7222)" class="st2 st3">SlotType2</text>
<rect x="67.5" y="320.5" class="st1" width="182" height="93.7"/>
<rect x="67.5" y="293.1" class="st1" width="182" height="27.8"/>
<text transform="matrix(1 0 0 1 113.0098 310.2621)" class="st2 st3">contains: S4Class1</text>
<text transform="matrix(1 0 0 1 79.0663 394.7279)" class="st4 st2 st3">SlotName3</text>
<text transform="matrix(1 0 0 1 176.6214 394.8599)" class="st4 st2 st3">SlotType3</text>
<g>
	<g>
		<line class="st1" x1="158.5" y1="188.5" x2="158.5" y2="258.1"/>
		<g>
			<polygon points="153.5,256.6 158.5,265.2 163.5,256.6 			"/>
		</g>
	</g>
</g>
<text transform="matrix(1 0 0 1 171.3128 230.3845)" class="st2 st3">inheritance</text>
<rect x="67.5" y="146.6" class="st1" width="182" height="41.9"/>
<text transform="matrix(1 0 0 1 79.5704 168.7648)" class="st2 st3">Validity rules for S4Class1</text>
<rect x="67.5" y="414.3" class="st1" width="182" height="66"/>
<text transform="matrix(1 0 0 1 79.5704 436.4163)" class="st2 st3">Validity rules for S4Class1</text>
<text transform="matrix(1 0 0 1 79.5048 458.7774)" class="st4 st2 st3">Validity rules for S4Class2</text>
<rect x="470" y="47.2" class="st1" width="182" height="27.8"/>
<text transform="matrix(1 0 0 1 529.2487 64.4008)" class="st2 st3">S4Generic1()</text>
<g>
	<g>
		<path d="M483.6,94.7l1.6-0.1h3.1v0.7h-4.7V94.7z M485.2,94.2c0-1.3,0.7-2.2,2.2-2.2c0.5,0,1,0.1,1.5,0.3l-0.2,0.7
			c-0.4-0.2-0.8-0.3-1.2-0.3c-1,0-1.3,0.5-1.3,1.4v5.8h-0.9V94.2z"/>
		<path d="M489.9,98v-3.3h0.9v3.2c0,1,0.4,1.5,1.2,1.5c0.6,0,1.1-0.3,1.7-1v-3.7h0.9v5.3h-0.8l-0.1-0.9h0c-0.5,0.6-1.2,1.1-2,1.1
			C490.5,100.2,489.9,99.4,489.9,98z"/>
		<path d="M496.7,94.7h0.7l0.1,0.9h0c0.6-0.6,1.2-1,2-1c1.3,0,1.8,0.7,1.8,2.2v3.3h-0.9v-3.2c0-1-0.4-1.5-1.2-1.5
			c-0.6,0-1.1,0.3-1.7,1v3.7h-0.9V94.7z"/>
		<path d="M503.2,97.4c0-1.8,1.4-2.8,3-2.8c0.9,0,1.5,0.4,1.9,0.8l-0.5,0.6c-0.4-0.4-0.9-0.6-1.5-0.6c-1.2,0-2.1,0.8-2.1,2.1
			c0,1.2,0.8,2,2.1,2c0.7,0,1.2-0.3,1.7-0.7l0.4,0.6c-0.6,0.5-1.3,0.8-2.1,0.8C504.4,100.2,503.2,99.1,503.2,97.4z"/>
		<path d="M511.2,97.9v-2.5h-1.5v-0.7l1.6-0.1l0.1-1.7h0.8v1.7h2.6v0.7h-2.6V98c0,1,0.3,1.5,1.4,1.5c0.5,0,0.9-0.1,1.3-0.2l0.2,0.7
			c-0.5,0.2-1,0.3-1.7,0.3C511.7,100.2,511.2,99.3,511.2,97.9z"/>
		<path d="M519,95.4h-2.5v-0.7h3.4v5.3H519V95.4z M518.6,92.8c0-0.4,0.3-0.7,0.7-0.7s0.7,0.3,0.7,0.7c0,0.4-0.3,0.7-0.7,0.7
			S518.6,93.3,518.6,92.8z"/>
		<path d="M522.8,97.4c0-1.8,1.2-2.8,2.6-2.8s2.6,1,2.6,2.8c0,1.8-1.2,2.8-2.6,2.8S522.8,99.1,522.8,97.4z M527.1,97.4
			c0-1.2-0.7-2.1-1.7-2.1c-1,0-1.7,0.8-1.7,2.1c0,1.2,0.7,2,1.7,2C526.4,99.4,527.1,98.6,527.1,97.4z"/>
		<path d="M529.7,94.7h0.7l0.1,0.9h0c0.6-0.6,1.2-1,2-1c1.3,0,1.8,0.7,1.8,2.2v3.3h-0.9v-3.2c0-1-0.4-1.5-1.2-1.5
			c-0.6,0-1.1,0.3-1.7,1v3.7h-0.9V94.7z"/>
		<path d="M537.6,97c0-2.1,0.9-3.8,2.5-5l0.5,0.5c-1.5,1.2-2.2,2.7-2.2,4.5c0,1.8,0.7,3.3,2.2,4.5L540,102
			C538.5,100.8,537.6,99.1,537.6,97z"/>
		<path d="M544.6,97.2l-1.9-2.6h1l0.8,1.2c0.2,0.3,0.4,0.6,0.6,0.9h0c0.2-0.3,0.4-0.6,0.6-0.9l0.8-1.2h1l-1.9,2.7l2,2.7h-1l-0.9-1.2
			c-0.2-0.3-0.5-0.7-0.7-1h0c-0.2,0.3-0.4,0.6-0.7,1l-0.9,1.2h-1L544.6,97.2z"/>
		<path d="M550.7,101.8c0.9-0.4,1.4-1,1.4-1.9l-0.2-1l0.6,0.9c-0.2,0.2-0.4,0.3-0.6,0.3c-0.5,0-0.9-0.3-0.9-0.8
			c0-0.5,0.4-0.8,0.9-0.8c0.6,0,1,0.5,1,1.4c0,1.3-0.7,2.2-1.9,2.6L550.7,101.8z"/>
		<path d="M562.4,102.2l0.2-0.7c0.1,0,0.3,0.1,0.5,0.1c0.7,0,1.2-0.5,1.5-1.1l0.2-0.4l-2.5-5.4h0.9l1.3,2.9c0.2,0.5,0.4,1,0.7,1.6h0
			c0.2-0.5,0.4-1.1,0.6-1.6l1.2-2.9h0.9l-2.4,5.8c-0.4,1.1-1,1.9-2.3,1.9C562.9,102.3,562.6,102.3,562.4,102.2z"/>
		<path d="M570.5,101.8c0.9-0.4,1.4-1,1.4-1.9l-0.2-1l0.6,0.9c-0.2,0.2-0.4,0.3-0.6,0.3c-0.5,0-0.9-0.3-0.9-0.8
			c0-0.5,0.4-0.8,0.9-0.8c0.6,0,1,0.5,1,1.4c0,1.3-0.7,2.2-1.9,2.6L570.5,101.8z"/>
		<path d="M583.9,99.2c0-0.5,0.4-0.9,0.9-0.9s0.9,0.4,0.9,0.9c0,0.6-0.4,0.9-0.9,0.9S583.9,99.8,583.9,99.2z"/>
		<path d="M590.5,99.2c0-0.5,0.4-0.9,0.9-0.9s0.9,0.4,0.9,0.9c0,0.6-0.4,0.9-0.9,0.9S590.5,99.8,590.5,99.2z"/>
		<path d="M597.1,99.2c0-0.5,0.4-0.9,0.9-0.9s0.9,0.4,0.9,0.9c0,0.6-0.4,0.9-0.9,0.9S597.1,99.8,597.1,99.2z"/>
		<path d="M602.6,101.5c1.5-1.2,2.2-2.7,2.2-4.5c0-1.8-0.7-3.3-2.2-4.5l0.5-0.5c1.5,1.2,2.5,2.9,2.5,5c0,2.1-0.9,3.8-2.5,5
			L602.6,101.5z"/>
	</g>
</g>
<rect x="470" y="75.1" class="st1" width="182" height="43.7"/>
<rect x="470" y="118.7" class="st1" width="182" height="50.1"/>
<text transform="matrix(1 0 0 1 482.1354 140.862)"><tspan x="0" y="0" class="st2 st3">signature:</tspan><tspan x="0" y="14.4" class="st2 st3">- x</tspan></text>
<g>
	<g>
		<line class="st1" x1="420.2" y1="230.9" x2="420.2" y2="256.6"/>
		<g>
			<polygon points="415.2,255.1 420.2,263.7 425.2,255.1 			"/>
		</g>
	</g>
</g>
<text transform="matrix(1 0 0 1 563.6584 185.1443)" class="st2 st3">method dispatch</text>
<rect x="329.2" y="264.2" class="st1" width="182" height="27.8"/>
<text transform="matrix(1 0 0 1 396.0148 281.4209)" class="st2 st3">Method 1</text>
<g>
	<g>
		<path d="M342.5,367.9l1.6-0.1h3.1v0.7h-4.7V367.9z M344,367.3c0-1.3,0.7-2.2,2.2-2.2c0.5,0,1,0.1,1.5,0.3l-0.2,0.7
			c-0.4-0.2-0.8-0.3-1.2-0.3c-1,0-1.3,0.5-1.3,1.4v5.8H344V367.3z"/>
		<path d="M348.8,371.1v-3.3h0.9v3.2c0,1,0.4,1.5,1.2,1.5c0.6,0,1.1-0.3,1.7-1v-3.7h0.9v5.3h-0.8l-0.1-0.9h0c-0.5,0.6-1.2,1.1-2,1.1
			C349.4,373.3,348.8,372.5,348.8,371.1z"/>
		<path d="M355.6,367.8h0.7l0.1,0.9h0c0.6-0.6,1.2-1,2-1c1.3,0,1.8,0.7,1.8,2.2v3.3h-0.9v-3.2c0-1-0.4-1.5-1.2-1.5
			c-0.6,0-1.1,0.3-1.7,1v3.7h-0.9V367.8z"/>
		<path d="M362,370.5c0-1.8,1.4-2.8,3-2.8c0.9,0,1.5,0.4,1.9,0.8l-0.5,0.6c-0.4-0.4-0.9-0.6-1.5-0.6c-1.2,0-2.1,0.8-2.1,2.1
			c0,1.2,0.8,2,2.1,2c0.7,0,1.2-0.3,1.7-0.7l0.4,0.6c-0.6,0.5-1.3,0.8-2.1,0.8C363.3,373.3,362,372.3,362,370.5z"/>
		<path d="M370,371.1v-2.5h-1.5v-0.7l1.6-0.1l0.1-1.7h0.8v1.7h2.6v0.7h-2.6v2.5c0,1,0.3,1.5,1.4,1.5c0.5,0,0.9-0.1,1.3-0.2l0.2,0.7
			c-0.5,0.2-1,0.3-1.7,0.3C370.5,373.3,370,372.4,370,371.1z"/>
		<path d="M377.8,368.5h-2.5v-0.7h3.4v5.3h-0.9V368.5z M377.4,366c0-0.4,0.3-0.7,0.7-0.7s0.7,0.3,0.7,0.7c0,0.4-0.3,0.7-0.7,0.7
			S377.4,366.4,377.4,366z"/>
		<path d="M381.6,370.5c0-1.8,1.2-2.8,2.6-2.8s2.6,1,2.6,2.8c0,1.8-1.2,2.8-2.6,2.8S381.6,372.3,381.6,370.5z M385.9,370.5
			c0-1.2-0.7-2.1-1.7-2.1c-1,0-1.7,0.8-1.7,2.1c0,1.2,0.7,2,1.7,2C385.3,372.5,385.9,371.7,385.9,370.5z"/>
		<path d="M388.6,367.8h0.7l0.1,0.9h0c0.6-0.6,1.2-1,2-1c1.3,0,1.8,0.7,1.8,2.2v3.3h-0.9v-3.2c0-1-0.4-1.5-1.2-1.5
			c-0.6,0-1.1,0.3-1.7,1v3.7h-0.9V367.8z"/>
		<path d="M396.4,370.1c0-2.1,0.9-3.8,2.5-5l0.5,0.5c-1.5,1.2-2.2,2.7-2.2,4.5s0.7,3.3,2.2,4.5l-0.5,0.5
			C397.4,373.9,396.4,372.2,396.4,370.1z"/>
		<path d="M403.5,370.4l-1.9-2.6h1l0.8,1.2c0.2,0.3,0.4,0.6,0.6,0.9h0c0.2-0.3,0.4-0.6,0.6-0.9l0.8-1.2h1l-1.9,2.7l2,2.7h-1
			l-0.9-1.2c-0.2-0.3-0.5-0.7-0.7-1h0c-0.2,0.3-0.4,0.6-0.7,1l-0.9,1.2h-1L403.5,370.4z"/>
		<path d="M409.5,374.9c0.9-0.4,1.4-1,1.4-1.9l-0.2-1l0.6,0.9c-0.2,0.2-0.4,0.3-0.6,0.3c-0.5,0-0.9-0.3-0.9-0.8
			c0-0.5,0.4-0.8,0.9-0.8c0.6,0,1,0.5,1,1.4c0,1.3-0.7,2.2-1.9,2.6L409.5,374.9z"/>
		<path d="M421.3,375.3l0.2-0.7c0.1,0,0.3,0.1,0.5,0.1c0.7,0,1.2-0.5,1.5-1.1l0.2-0.4l-2.5-5.4h0.9l1.3,2.9c0.2,0.5,0.4,1,0.7,1.6h0
			c0.2-0.5,0.4-1.1,0.6-1.6l1.2-2.9h0.9l-2.4,5.8c-0.4,1.1-1,1.9-2.3,1.9C421.7,375.4,421.5,375.4,421.3,375.3z"/>
		<path d="M429.3,374.9c0.9-0.4,1.4-1,1.4-1.9l-0.2-1l0.6,0.9c-0.2,0.2-0.4,0.3-0.6,0.3c-0.5,0-0.9-0.3-0.9-0.8
			c0-0.5,0.4-0.8,0.9-0.8c0.6,0,1,0.5,1,1.4c0,1.3-0.7,2.2-1.9,2.6L429.3,374.9z"/>
		<path d="M442.7,372.3c0-0.5,0.4-0.9,0.9-0.9s0.9,0.4,0.9,0.9c0,0.6-0.4,0.9-0.9,0.9S442.7,372.9,442.7,372.3z"/>
		<path d="M449.3,372.3c0-0.5,0.4-0.9,0.9-0.9s0.9,0.4,0.9,0.9c0,0.6-0.4,0.9-0.9,0.9S449.3,372.9,449.3,372.3z"/>
		<path d="M455.9,372.3c0-0.5,0.4-0.9,0.9-0.9s0.9,0.4,0.9,0.9c0,0.6-0.4,0.9-0.9,0.9S455.9,372.9,455.9,372.3z"/>
		<path d="M461.5,374.6c1.5-1.2,2.2-2.7,2.2-4.5s-0.7-3.3-2.2-4.5l0.5-0.5c1.5,1.2,2.5,2.9,2.5,5s-0.9,3.8-2.5,5L461.5,374.6z"/>
		<path d="M476.1,373.4c0-0.8,0.1-1.4,0.1-2.1c0-0.4-0.3-0.8-1.6-0.9v-0.6c1.3,0,1.6-0.4,1.6-0.9c0-0.7-0.1-1.4-0.1-2.1
			c0-1.1,0.7-1.5,2-1.5h0.7v0.5h-0.6c-1.1,0-1.4,0.3-1.4,1c0,0.6,0.1,1.3,0.1,2c0,0.7-0.2,1.1-1,1.2v0c0.8,0.1,1,0.5,1,1.2
			c0,0.7-0.1,1.3-0.1,2c0,0.7,0.2,1,1.4,1h0.6v0.5h-0.7C476.8,374.8,476.1,374.5,476.1,373.4z"/>
		<path class="st4" d="M368.7,383.5h4.5v0.6h-4.5V383.5z M368.9,381.2h4.5v0.6h-4.5V381.2z M370.2,379.2h0.6l-0.9,7.2h-0.6
			L370.2,379.2z M372.2,379.2h0.6l-0.9,7.2h-0.6L372.2,379.2z"/>
		<path class="st4" d="M381.8,385c0-1.2,1.1-1.8,3.9-2c0-0.7-0.4-1.3-1.4-1.3c-0.7,0-1.4,0.3-1.9,0.6l-0.4-0.6
			c0.5-0.4,1.5-0.8,2.4-0.8c1.5,0,2.2,0.9,2.2,2.2v3.3h-0.8l-0.1-0.7h0c-0.6,0.5-1.4,0.9-2.1,0.9C382.6,386.5,381.8,385.9,381.8,385
			z M385.7,384.9v-1.4c-2.3,0.2-3,0.6-3,1.3c0,0.6,0.6,0.8,1.2,0.8C384.5,385.7,385.1,385.5,385.7,384.9z"/>
		<path class="st4" d="M388.4,383.7c0-1.8,1.4-2.8,3-2.8c0.9,0,1.5,0.4,1.9,0.8l-0.5,0.6c-0.4-0.4-0.9-0.6-1.5-0.6
			c-1.2,0-2.1,0.8-2.1,2.1c0,1.2,0.8,2,2.1,2c0.7,0,1.2-0.3,1.7-0.7l0.4,0.6c-0.6,0.5-1.3,0.8-2.1,0.8
			C389.7,386.5,388.4,385.5,388.4,383.7z"/>
		<path class="st4" d="M396.4,384.3v-2.5h-1.5v-0.7l1.6-0.1l0.1-1.7h0.8v1.7h2.6v0.7h-2.6v2.5c0,1,0.3,1.5,1.4,1.5
			c0.5,0,0.9-0.1,1.3-0.2l0.2,0.7c-0.5,0.2-1,0.3-1.7,0.3C396.9,386.5,396.4,385.6,396.4,384.3z"/>
		<path class="st4" d="M404.2,381.7h-2.5V381h3.4v5.3h-0.9V381.7z M403.8,379.2c0-0.4,0.3-0.7,0.7-0.7s0.7,0.3,0.7,0.7
			c0,0.4-0.3,0.7-0.7,0.7S403.8,379.6,403.8,379.2z"/>
		<path class="st4" d="M408,383.7c0-1.8,1.2-2.8,2.6-2.8s2.6,1,2.6,2.8c0,1.8-1.2,2.8-2.6,2.8S408,385.5,408,383.7z M412.3,383.7
			c0-1.2-0.7-2.1-1.7-2.1c-1,0-1.7,0.8-1.7,2.1c0,1.2,0.7,2,1.7,2C411.7,385.7,412.3,384.9,412.3,383.7z"/>
		<path class="st4" d="M415,381h0.7l0.1,0.9h0c0.6-0.6,1.2-1,2-1c1.3,0,1.8,0.7,1.8,2.2v3.3h-0.9v-3.2c0-1-0.4-1.5-1.2-1.5
			c-0.6,0-1.1,0.3-1.7,1v3.7H415V381z"/>
		<path class="st4" d="M428.2,385.6h2v-5.1h-1.6v-0.6c0.8-0.1,1.4-0.3,1.8-0.5h0.7v6.3h1.8v0.8h-4.8V385.6z"/>
		<path d="M342.4,400.7h0.6c1.1,0,1.4-0.3,1.4-1c0-0.7-0.1-1.2-0.1-2c0-0.7,0.2-1.1,1-1.2v0c-0.8-0.1-1-0.5-1-1.2
			c0-0.7,0.1-1.4,0.1-2c0-0.7-0.3-1-1.4-1h-0.6v-0.5h0.7c1.4,0,2,0.3,2,1.5c0,0.8-0.1,1.4-0.1,2.1c0,0.4,0.3,0.8,1.6,0.9v0.6
			c-1.3,0-1.6,0.4-1.6,0.9c0,0.7,0.1,1.3,0.1,2.1c0,1.1-0.6,1.5-2,1.5h-0.7V400.7z"/>
	</g>
</g>
<rect x="329.2" y="342.4" class="st1" width="182" height="79.4"/>
<rect x="606.4" y="264.2" class="st1" width="182" height="27.8"/>
<text transform="matrix(1 0 0 1 673.2415 281.4209)" class="st2 st3">Method 2</text>
<g>
	<g>
		<line class="st1" x1="697.4" y1="230.9" x2="697.4" y2="256.6"/>
		<g>
			<polygon points="692.4,255.1 697.4,263.7 702.4,255.1 			"/>
		</g>
	</g>
</g>
<line class="st1" x1="420.2" y1="230.9" x2="697.4" y2="230.9"/>
<line class="st1" x1="558.8" y1="169.1" x2="558.8" y2="230.9"/>
<g>
	<g>
		<path d="M338.9,212.2l3.3-2.2v0l-3.3-2.2v-0.9l4.1,2.8v0.7l-4.1,2.8V212.2z"/>
		<path d="M351.6,212.7l0.5-0.6c0.6,0.5,1.3,0.9,2.1,0.9c1,0,1.6-0.5,1.6-1.1c0-0.8-0.6-1-1.3-1.3l-1-0.5c-0.7-0.3-1.6-0.8-1.6-1.9
			c0-1.1,1-1.9,2.4-1.9c0.9,0,1.7,0.4,2.2,0.9l-0.5,0.6c-0.5-0.4-1-0.7-1.8-0.7c-0.8,0-1.4,0.4-1.4,1c0,0.7,0.7,0.9,1.3,1.2l1,0.5
			c0.9,0.4,1.6,0.9,1.6,1.9c0,1.1-1,2.1-2.6,2.1C353.2,213.7,352.3,213.3,351.6,212.7z"/>
		<path d="M361.5,208.8c0-0.4,0-0.9,0.1-1.2h-0.1c-0.2,0.3-0.5,0.7-0.7,1l-1.9,2.4h4.6v0.7h-5.6v-0.6l3.5-4.5h1v7h-0.9V208.8z"/>
		<path d="M364.7,210c0-2.3,1.3-3.7,3.2-3.7c1,0,1.6,0.5,2,0.9l-0.5,0.6c-0.3-0.4-0.8-0.6-1.5-0.6c-1.4,0-2.2,1.1-2.2,2.9
			c0,1.8,0.8,2.9,2.2,2.9c0.5,0,1-0.2,1.2-0.4v-1.9h-1.4v-0.8h2.3v3c-0.5,0.5-1.2,0.8-2.2,0.8C366,213.7,364.7,212.4,364.7,210z"/>
		<path d="M371.4,210.9c0-1.7,1.3-2.8,2.7-2.8c1.5,0,2.4,1,2.4,2.5c0,0.2,0,0.4,0,0.5H372v-0.7h4l-0.2,0.3c0-1.3-0.6-1.9-1.6-1.9
			c-1,0-1.8,0.7-1.8,2.1c0,1.4,0.9,2.1,2.1,2.1c0.6,0,1.1-0.2,1.6-0.5l0.3,0.6c-0.5,0.4-1.2,0.6-2.1,0.6
			C372.7,213.7,371.4,212.7,371.4,210.9z"/>
		<path d="M378.3,208.3h0.7l0.1,0.9h0c0.6-0.6,1.2-1,2-1c1.3,0,1.8,0.7,1.8,2.2v3.3h-0.9v-3.2c0-1-0.4-1.5-1.2-1.5
			c-0.6,0-1.1,0.3-1.7,1v3.7h-0.9V208.3z"/>
		<path d="M384.6,210.9c0-1.7,1.3-2.8,2.7-2.8c1.5,0,2.4,1,2.4,2.5c0,0.2,0,0.4,0,0.5h-4.5v-0.7h4l-0.2,0.3c0-1.3-0.6-1.9-1.6-1.9
			c-1,0-1.8,0.7-1.8,2.1c0,1.4,0.9,2.1,2.1,2.1c0.6,0,1.1-0.2,1.6-0.5l0.3,0.6c-0.5,0.4-1.2,0.6-2.1,0.6
			C385.9,213.7,384.6,212.7,384.6,210.9z"/>
		<path d="M392.1,208.3h0.8l0.1,1.3h0c0.6-0.9,1.4-1.4,2.4-1.4c0.4,0,0.7,0.1,1.1,0.2l-0.2,0.8c-0.4-0.1-0.6-0.2-1-0.2
			c-0.8,0-1.6,0.4-2.2,1.5v3.1h-0.9V208.3z"/>
		<path d="M400.6,209h-2.5v-0.7h3.4v5.3h-0.9V209z M400.2,206.4c0-0.4,0.3-0.7,0.7-0.7s0.7,0.3,0.7,0.7c0,0.4-0.3,0.7-0.7,0.7
			S400.2,206.9,400.2,206.4z"/>
		<path d="M404.6,210.9c0-1.8,1.4-2.8,3-2.8c0.9,0,1.5,0.4,1.9,0.8l-0.5,0.6c-0.4-0.4-0.9-0.6-1.5-0.6c-1.2,0-2.1,0.8-2.1,2.1
			c0,1.2,0.8,2,2.1,2c0.7,0,1.2-0.3,1.7-0.7l0.4,0.6c-0.6,0.5-1.3,0.8-2.1,0.8C405.8,213.7,404.6,212.7,404.6,210.9z"/>
		<path d="M411.4,212.9h2v-5.1h-1.6v-0.6c0.8-0.1,1.4-0.3,1.8-0.5h0.7v6.3h1.8v0.8h-4.8V212.9z"/>
		<path d="M419.2,210.6c0-2.1,0.9-3.8,2.5-5l0.5,0.5c-1.5,1.2-2.2,2.7-2.2,4.5c0,1.8,0.7,3.3,2.2,4.5l-0.5,0.5
			C420.1,214.4,419.2,212.7,419.2,210.6z"/>
		<path d="M426.2,210.8l-1.9-2.6h1l0.8,1.2c0.2,0.3,0.4,0.6,0.6,0.9h0c0.2-0.3,0.4-0.6,0.6-0.9l0.8-1.2h1l-1.9,2.7l2,2.7h-1
			l-0.9-1.2c-0.2-0.3-0.5-0.7-0.7-1h0c-0.2,0.3-0.4,0.6-0.7,1l-0.9,1.2h-1L426.2,210.8z"/>
		<path d="M437.6,208.5h4.7v0.7h-4.7V208.5z M437.6,210.8h4.7v0.7h-4.7V210.8z"/>
		<path class="st4" d="M450.5,210.9c0-1.8,1.2-2.8,2.6-2.8s2.6,1,2.6,2.8c0,1.8-1.2,2.8-2.6,2.8S450.5,212.7,450.5,210.9z
			 M454.9,210.9c0-1.2-0.7-2.1-1.7-2.1s-1.7,0.8-1.7,2.1c0,1.2,0.7,2,1.7,2S454.9,212.2,454.9,210.9z"/>
		<path class="st4" d="M458.4,213L458.4,213l-0.1,0.6h-0.7v-7.8h0.9v2.1l0,1h0c0.5-0.5,1.2-0.8,1.8-0.8c1.4,0,2.2,1.1,2.2,2.7
			c0,1.8-1.1,2.9-2.4,2.9C459.5,213.7,458.9,213.5,458.4,213z M461.5,210.9c0-1.2-0.4-2-1.5-2c-0.5,0-1,0.2-1.6,0.8v2.7
			c0.5,0.5,1.1,0.6,1.4,0.6C460.8,213,461.5,212.2,461.5,210.9z"/>
		<path class="st4" d="M463.7,215.6l0.3-0.7c0.4,0.2,0.8,0.3,1.2,0.3c1.1,0,1.3-0.5,1.3-1.4V209h-2.5v-0.7h3.4v5.5
			c0,1.3-0.5,2.3-2.2,2.3C464.7,216,464.1,215.8,463.7,215.6z M466.2,206.4c0-0.4,0.3-0.7,0.7-0.7s0.7,0.3,0.7,0.7
			c0,0.4-0.3,0.7-0.7,0.7S466.2,206.9,466.2,206.4z"/>
		<path class="st4" d="M470.4,210.9c0-1.7,1.3-2.8,2.7-2.8c1.5,0,2.4,1,2.4,2.5c0,0.2,0,0.4,0,0.5H471v-0.7h4l-0.2,0.3
			c0-1.3-0.6-1.9-1.6-1.9c-1,0-1.8,0.7-1.8,2.1c0,1.4,0.9,2.1,2.1,2.1c0.6,0,1.1-0.2,1.6-0.5l0.3,0.6c-0.5,0.4-1.2,0.6-2.1,0.6
			C471.7,213.7,470.4,212.7,470.4,210.9z"/>
		<path class="st4" d="M477.2,210.9c0-1.8,1.4-2.8,3-2.8c0.9,0,1.5,0.4,1.9,0.8l-0.5,0.6c-0.4-0.4-0.9-0.6-1.5-0.6
			c-1.2,0-2.1,0.8-2.1,2.1c0,1.2,0.8,2,2.1,2c0.7,0,1.2-0.3,1.7-0.7l0.4,0.6c-0.6,0.5-1.3,0.8-2.1,0.8
			C478.4,213.7,477.2,212.7,477.2,210.9z"/>
		<path class="st4" d="M485.2,211.5V209h-1.5v-0.7l1.6-0.1l0.1-1.7h0.8v1.7h2.6v0.7h-2.6v2.5c0,1,0.3,1.5,1.4,1.5
			c0.5,0,0.9-0.1,1.3-0.2l0.2,0.7c-0.5,0.2-1,0.3-1.7,0.3C485.7,213.7,485.2,212.9,485.2,211.5z"/>
		<path class="st4" d="M490.6,212.9h2v-5.1H491v-0.6c0.8-0.1,1.4-0.3,1.8-0.5h0.7v6.3h1.8v0.8h-4.8V212.9z"/>
		<path d="M497.4,215.1c1.5-1.2,2.2-2.7,2.2-4.5c0-1.8-0.7-3.3-2.2-4.5l0.5-0.5c1.5,1.2,2.5,2.9,2.5,5c0,2.1-0.9,3.8-2.5,5
			L497.4,215.1z"/>
	</g>
</g>
<rect x="329.2" y="292.1" class="st1" width="182" height="50.1"/>
<text transform="matrix(1 0 0 1 341.2819 314.2284)"><tspan x="0" y="0" class="st2 st3">signature:</tspan><tspan x="0" y="14.4" class="st2 st3">- x: </tspan><tspan x="16.8" y="14.4" class="st4 st2 st3">S4Class1</tspan></text>
<g>
	<g>
		<path d="M619.7,368.4l1.6-0.1h3.1v0.7h-4.7V368.4z M621.2,367.9c0-1.3,0.7-2.2,2.2-2.2c0.5,0,1,0.1,1.5,0.3l-0.2,0.7
			c-0.4-0.2-0.8-0.3-1.2-0.3c-1,0-1.3,0.5-1.3,1.4v5.8h-0.9V367.9z"/>
		<path d="M626,371.6v-3.3h0.9v3.2c0,1,0.4,1.5,1.2,1.5c0.6,0,1.1-0.3,1.7-1v-3.7h0.9v5.3H630l-0.1-0.9h0c-0.5,0.6-1.2,1.1-2,1.1
			C626.6,373.8,626,373,626,371.6z"/>
		<path d="M632.8,368.3h0.7l0.1,0.9h0c0.6-0.6,1.2-1,2-1c1.3,0,1.8,0.7,1.8,2.2v3.3h-0.9v-3.2c0-1-0.4-1.5-1.2-1.5
			c-0.6,0-1.1,0.3-1.7,1v3.7h-0.9V368.3z"/>
		<path d="M639.2,371c0-1.8,1.4-2.8,3-2.8c0.9,0,1.5,0.4,1.9,0.8l-0.5,0.6c-0.4-0.4-0.9-0.6-1.5-0.6c-1.2,0-2.1,0.8-2.1,2.1
			c0,1.2,0.8,2,2.1,2c0.7,0,1.2-0.3,1.7-0.7l0.4,0.6c-0.6,0.5-1.3,0.8-2.1,0.8C640.5,373.8,639.2,372.8,639.2,371z"/>
		<path d="M647.2,371.6V369h-1.5v-0.7l1.6-0.1l0.1-1.7h0.8v1.7h2.6v0.7h-2.6v2.5c0,1,0.3,1.5,1.4,1.5c0.5,0,0.9-0.1,1.3-0.2l0.2,0.7
			c-0.5,0.2-1,0.3-1.7,0.3C647.7,373.8,647.2,372.9,647.2,371.6z"/>
		<path d="M655,369h-2.5v-0.7h3.4v5.3H655V369z M654.7,366.5c0-0.4,0.3-0.7,0.7-0.7s0.7,0.3,0.7,0.7c0,0.4-0.3,0.7-0.7,0.7
			S654.7,366.9,654.7,366.5z"/>
		<path d="M658.8,371c0-1.8,1.2-2.8,2.6-2.8s2.6,1,2.6,2.8c0,1.8-1.2,2.8-2.6,2.8S658.8,372.8,658.8,371z M663.2,371
			c0-1.2-0.7-2.1-1.7-2.1s-1.7,0.8-1.7,2.1c0,1.2,0.7,2,1.7,2S663.2,372.2,663.2,371z"/>
		<path d="M665.8,368.3h0.7l0.1,0.9h0c0.6-0.6,1.2-1,2-1c1.3,0,1.8,0.7,1.8,2.2v3.3h-0.9v-3.2c0-1-0.4-1.5-1.2-1.5
			c-0.6,0-1.1,0.3-1.7,1v3.7h-0.9V368.3z"/>
		<path d="M673.6,370.6c0-2.1,0.9-3.8,2.5-5l0.5,0.5c-1.5,1.2-2.2,2.7-2.2,4.5s0.7,3.3,2.2,4.5l-0.5,0.5
			C674.6,374.4,673.6,372.7,673.6,370.6z"/>
		<path d="M680.7,370.9l-1.9-2.6h1l0.8,1.2c0.2,0.3,0.4,0.6,0.6,0.9h0c0.2-0.3,0.4-0.6,0.6-0.9l0.8-1.2h1l-1.9,2.7l2,2.7h-1
			l-0.9-1.2c-0.2-0.3-0.5-0.7-0.7-1h0c-0.2,0.3-0.4,0.6-0.7,1l-0.9,1.2h-1L680.7,370.9z"/>
		<path d="M686.7,375.4c0.9-0.4,1.4-1,1.4-1.9l-0.2-1l0.6,0.9c-0.2,0.2-0.4,0.3-0.6,0.3c-0.5,0-0.9-0.3-0.9-0.8
			c0-0.5,0.4-0.8,0.9-0.8c0.6,0,1,0.5,1,1.4c0,1.3-0.7,2.2-1.9,2.6L686.7,375.4z"/>
		<path d="M698.5,375.8l0.2-0.7c0.1,0,0.3,0.1,0.5,0.1c0.7,0,1.2-0.5,1.5-1.1l0.2-0.4l-2.5-5.4h0.9l1.3,2.9c0.2,0.5,0.4,1,0.7,1.6h0
			c0.2-0.5,0.4-1.1,0.6-1.6l1.2-2.9h0.9l-2.4,5.8c-0.4,1.1-1,1.9-2.3,1.9C698.9,375.9,698.7,375.9,698.5,375.8z"/>
		<path d="M706.5,375.4c0.9-0.4,1.4-1,1.4-1.9l-0.2-1l0.6,0.9c-0.2,0.2-0.4,0.3-0.6,0.3c-0.5,0-0.9-0.3-0.9-0.8
			c0-0.5,0.4-0.8,0.9-0.8c0.6,0,1,0.5,1,1.4c0,1.3-0.7,2.2-1.9,2.6L706.5,375.4z"/>
		<path d="M720,372.8c0-0.5,0.4-0.9,0.9-0.9s0.9,0.4,0.9,0.9c0,0.6-0.4,0.9-0.9,0.9S720,373.4,720,372.8z"/>
		<path d="M726.6,372.8c0-0.5,0.4-0.9,0.9-0.9s0.9,0.4,0.9,0.9c0,0.6-0.4,0.9-0.9,0.9S726.6,373.4,726.6,372.8z"/>
		<path d="M733.2,372.8c0-0.5,0.4-0.9,0.9-0.9s0.9,0.4,0.9,0.9c0,0.6-0.4,0.9-0.9,0.9S733.2,373.4,733.2,372.8z"/>
		<path d="M738.7,375.1c1.5-1.2,2.2-2.7,2.2-4.5s-0.7-3.3-2.2-4.5l0.5-0.5c1.5,1.2,2.5,2.9,2.5,5s-0.9,3.8-2.5,5L738.7,375.1z"/>
		<path d="M753.4,373.9c0-0.8,0.1-1.4,0.1-2.1c0-0.4-0.3-0.8-1.6-0.9v-0.6c1.3,0,1.6-0.4,1.6-0.9c0-0.7-0.1-1.4-0.1-2.1
			c0-1.1,0.7-1.5,2-1.5h0.7v0.5h-0.6c-1.1,0-1.4,0.3-1.4,1c0,0.6,0.1,1.3,0.1,2c0,0.7-0.2,1.1-1,1.2v0c0.8,0.1,1,0.5,1,1.2
			c0,0.7-0.1,1.3-0.1,2c0,0.7,0.2,1,1.4,1h0.6v0.5h-0.7C754,375.3,753.4,375,753.4,373.9z"/>
		<path class="st4" d="M645.9,384h4.5v0.6h-4.5V384z M646.1,381.7h4.5v0.6h-4.5V381.7z M647.4,379.7h0.6l-0.9,7.2h-0.6L647.4,379.7z
			 M649.4,379.7h0.6l-0.9,7.2h-0.6L649.4,379.7z"/>
		<path class="st4" d="M659,385.5c0-1.2,1.1-1.8,3.9-2c0-0.7-0.4-1.3-1.4-1.3c-0.7,0-1.4,0.3-1.9,0.6l-0.4-0.6
			c0.5-0.4,1.5-0.8,2.4-0.8c1.5,0,2.2,0.9,2.2,2.2v3.3h-0.8l-0.1-0.7h0c-0.6,0.5-1.4,0.9-2.1,0.9C659.9,387,659,386.4,659,385.5z
			 M662.9,385.5v-1.4c-2.3,0.2-3,0.6-3,1.3c0,0.6,0.6,0.8,1.2,0.8C661.7,386.2,662.3,386,662.9,385.5z"/>
		<path class="st4" d="M665.6,384.2c0-1.8,1.4-2.8,3-2.8c0.9,0,1.5,0.4,1.9,0.8l-0.5,0.6c-0.4-0.4-0.9-0.6-1.5-0.6
			c-1.2,0-2.1,0.8-2.1,2.1c0,1.2,0.8,2,2.1,2c0.7,0,1.2-0.3,1.7-0.7l0.4,0.6c-0.6,0.5-1.3,0.8-2.1,0.8
			C666.9,387,665.6,386,665.6,384.2z"/>
		<path class="st4" d="M673.6,384.8v-2.5h-1.5v-0.7l1.6-0.1l0.1-1.7h0.8v1.7h2.6v0.7h-2.6v2.5c0,1,0.3,1.5,1.4,1.5
			c0.5,0,0.9-0.1,1.3-0.2l0.2,0.7c-0.5,0.2-1,0.3-1.7,0.3C674.1,387,673.6,386.1,673.6,384.8z"/>
		<path class="st4" d="M681.4,382.2h-2.5v-0.7h3.4v5.3h-0.9V382.2z M681.1,379.7c0-0.4,0.3-0.7,0.7-0.7s0.7,0.3,0.7,0.7
			c0,0.4-0.3,0.7-0.7,0.7S681.1,380.1,681.1,379.7z"/>
		<path class="st4" d="M685.2,384.2c0-1.8,1.2-2.8,2.6-2.8s2.6,1,2.6,2.8c0,1.8-1.2,2.8-2.6,2.8S685.2,386,685.2,384.2z
			 M689.6,384.2c0-1.2-0.7-2.1-1.7-2.1s-1.7,0.8-1.7,2.1c0,1.2,0.7,2,1.7,2S689.6,385.4,689.6,384.2z"/>
		<path class="st4" d="M692.2,381.5h0.7l0.1,0.9h0c0.6-0.6,1.2-1,2-1c1.3,0,1.8,0.7,1.8,2.2v3.3H696v-3.2c0-1-0.4-1.5-1.2-1.5
			c-0.6,0-1.1,0.3-1.7,1v3.7h-0.9V381.5z"/>
		<path class="st4" d="M705.2,386.3c2.4-2.1,3.7-3.3,3.7-4.5c0-0.8-0.5-1.4-1.5-1.4c-0.7,0-1.2,0.4-1.7,0.8l-0.5-0.5
			c0.6-0.6,1.3-1.1,2.3-1.1c1.4,0,2.3,0.8,2.3,2.1c0,1.3-1.3,2.6-3.2,4.4c0.4,0,0.9-0.1,1.3-0.1h2.3v0.8h-4.9V386.3z"/>
		<path d="M619.6,401.2h0.6c1.1,0,1.4-0.3,1.4-1c0-0.7-0.1-1.2-0.1-2c0-0.7,0.2-1.1,1-1.2v0c-0.8-0.1-1-0.5-1-1.2
			c0-0.7,0.1-1.4,0.1-2c0-0.7-0.3-1-1.4-1h-0.6v-0.5h0.7c1.4,0,2,0.3,2,1.5c0,0.8-0.1,1.4-0.1,2.1c0,0.4,0.3,0.8,1.6,0.9v0.6
			c-1.3,0-1.6,0.4-1.6,0.9c0,0.7,0.1,1.3,0.1,2.1c0,1.1-0.6,1.5-2,1.5h-0.7V401.2z"/>
	</g>
</g>
<rect x="606.4" y="342.9" class="st1" width="182" height="79.4"/>
<rect x="606.4" y="292.6" class="st1" width="182" height="50.1"/>
<text transform="matrix(1 0 0 1 618.5087 314.733)"><tspan x="0" y="0" class="st2 st3">signature:</tspan><tspan x="0" y="14.4" class="st2 st3">- x: </tspan><tspan x="16.8" y="14.4" class="st4 st2 st3">S4Class2</tspan></text>
<g>
	<g>
		<path d="M74.2,514l3.3-2.2v0l-3.3-2.2v-0.9l4.1,2.8v0.7l-4.1,2.8V514z"/>
		<path d="M86.9,512.7c0-1.8,1.2-2.8,2.6-2.8s2.6,1,2.6,2.8c0,1.8-1.2,2.8-2.6,2.8S86.9,514.5,86.9,512.7z M91.2,512.7
			c0-1.2-0.7-2.1-1.7-2.1c-1,0-1.7,0.8-1.7,2.1c0,1.2,0.7,2,1.7,2C90.6,514.7,91.2,513.9,91.2,512.7z"/>
		<path d="M94.7,514.8L94.7,514.8l-0.1,0.6h-0.7v-7.8h0.9v2.1l0,1h0c0.5-0.5,1.2-0.8,1.8-0.8c1.4,0,2.2,1.1,2.2,2.7
			c0,1.8-1.1,2.9-2.4,2.9C95.8,515.5,95.2,515.2,94.7,514.8z M97.8,512.6c0-1.2-0.4-2-1.5-2c-0.5,0-1,0.2-1.6,0.8v2.7
			c0.5,0.5,1.1,0.6,1.4,0.6C97.1,514.7,97.8,513.9,97.8,512.6z"/>
		<path d="M100,517.4l0.3-0.7c0.4,0.2,0.8,0.3,1.2,0.3c1.1,0,1.3-0.5,1.3-1.4v-4.8h-2.5V510h3.4v5.5c0,1.3-0.5,2.3-2.2,2.3
			C101,517.8,100.5,517.6,100,517.4z M102.5,508.2c0-0.4,0.3-0.7,0.7-0.7s0.7,0.3,0.7,0.7c0,0.4-0.3,0.7-0.7,0.7
			S102.5,508.6,102.5,508.2z"/>
		<path d="M106.8,512.7c0-1.7,1.3-2.8,2.7-2.8c1.5,0,2.4,1,2.4,2.5c0,0.2,0,0.4,0,0.5h-4.5v-0.7h4l-0.2,0.3c0-1.3-0.6-1.9-1.6-1.9
			c-1,0-1.8,0.7-1.8,2.1c0,1.4,0.9,2.1,2.1,2.1c0.6,0,1.1-0.2,1.6-0.5l0.3,0.6c-0.5,0.4-1.2,0.6-2.1,0.6
			C108.1,515.5,106.8,514.5,106.8,512.7z"/>
		<path d="M113.5,512.7c0-1.8,1.4-2.8,3-2.8c0.9,0,1.5,0.4,1.9,0.8l-0.5,0.6c-0.4-0.4-0.9-0.6-1.5-0.6c-1.2,0-2.1,0.8-2.1,2.1
			c0,1.2,0.8,2,2.1,2c0.7,0,1.2-0.3,1.7-0.7l0.4,0.6c-0.6,0.5-1.3,0.8-2.1,0.8C114.8,515.5,113.5,514.5,113.5,512.7z"/>
		<path d="M121.5,513.3v-2.5H120v-0.7l1.6-0.1l0.1-1.7h0.8v1.7h2.6v0.7h-2.6v2.5c0,1,0.3,1.5,1.4,1.5c0.5,0,0.9-0.1,1.3-0.2l0.2,0.7
			c-0.5,0.2-1,0.3-1.7,0.3C122,515.5,121.5,514.6,121.5,513.3z"/>
		<path d="M126.9,514.6h2v-5.1h-1.6v-0.6c0.8-0.1,1.4-0.3,1.8-0.5h0.7v6.3h1.8v0.8h-4.8V514.6z"/>
		<path d="M140.4,512.1v-0.7l4.1-2.8v0.9l-3.3,2.2v0l3.3,2.2v0.9L140.4,512.1z"/>
		<path d="M146.6,511.4h4.7v0.7h-4.7V511.4z"/>
		<path d="M159.6,514.4l0.5-0.6c0.6,0.5,1.3,0.9,2.1,0.9c1,0,1.6-0.5,1.6-1.1c0-0.8-0.6-1-1.3-1.3l-1-0.5c-0.7-0.3-1.6-0.8-1.6-1.9
			c0-1.1,1-1.9,2.4-1.9c0.9,0,1.7,0.4,2.2,0.9l-0.5,0.6c-0.5-0.4-1-0.7-1.8-0.7c-0.8,0-1.4,0.4-1.4,1c0,0.7,0.7,0.9,1.3,1.2l1,0.5
			c0.9,0.4,1.6,0.9,1.6,1.9c0,1.1-1,2.1-2.6,2.1C161.1,515.5,160.2,515.1,159.6,514.4z"/>
		<path d="M169.5,510.5c0-0.4,0-0.9,0.1-1.2h-0.1c-0.2,0.3-0.5,0.7-0.7,1l-1.9,2.4h4.6v0.7h-5.6v-0.6l3.5-4.5h1v7h-0.9V510.5z"/>
		<path d="M172.8,511.8c0-2.3,1.4-3.7,3.2-3.7c0.9,0,1.6,0.4,2,0.9l-0.5,0.6c-0.4-0.4-0.8-0.6-1.5-0.6c-1.4,0-2.3,1.1-2.3,2.9
			c0,1.8,0.9,2.9,2.3,2.9c0.7,0,1.2-0.3,1.6-0.8l0.5,0.6c-0.6,0.7-1.3,1-2.2,1C174.1,515.5,172.8,514.1,172.8,511.8z"/>
		<path d="M181.3,513.6v-5.3h-1.9v-0.7h2.8v6.1c0,0.8,0.4,1.1,1.1,1.1c0.3,0,0.6-0.1,1-0.2l0.2,0.7c-0.5,0.2-0.8,0.3-1.4,0.3
			C182,515.5,181.3,514.8,181.3,513.6z"/>
		<path d="M186.1,514c0-1.2,1.1-1.8,3.9-2c0-0.7-0.4-1.3-1.4-1.3c-0.7,0-1.4,0.3-1.9,0.6l-0.4-0.6c0.5-0.4,1.5-0.8,2.4-0.8
			c1.5,0,2.2,0.9,2.2,2.2v3.3h-0.8l-0.1-0.7h0c-0.6,0.5-1.4,0.9-2.1,0.9C186.9,515.5,186.1,514.9,186.1,514z M190,514v-1.4
			c-2.3,0.2-3,0.6-3,1.3c0,0.6,0.6,0.8,1.2,0.8C188.8,514.8,189.4,514.5,190,514z"/>
		<path d="M192.6,514.7l0.4-0.6c0.6,0.4,1.3,0.7,2.3,0.7c0.9,0,1.3-0.4,1.3-0.8c0-0.4-0.2-0.7-1.7-1c-1.4-0.3-2.1-0.8-2.1-1.6
			c0-0.9,0.8-1.5,2.2-1.5c0.8,0,1.6,0.3,2.2,0.7l-0.4,0.6c-0.5-0.3-1.1-0.6-1.8-0.6c-0.9,0-1.2,0.4-1.2,0.8c0,0.5,0.5,0.7,1.6,0.9
			c1.8,0.4,2.2,0.8,2.2,1.7c0,0.9-0.8,1.6-2.4,1.6C194.2,515.5,193.3,515.1,192.6,514.7z"/>
		<path d="M199.2,514.7l0.4-0.6c0.6,0.4,1.3,0.7,2.3,0.7c0.9,0,1.3-0.4,1.3-0.8c0-0.4-0.2-0.7-1.7-1c-1.4-0.3-2.1-0.8-2.1-1.6
			c0-0.9,0.8-1.5,2.2-1.5c0.8,0,1.6,0.3,2.2,0.7l-0.4,0.6c-0.5-0.3-1.1-0.6-1.8-0.6c-0.9,0-1.2,0.4-1.2,0.8c0,0.5,0.5,0.7,1.6,0.9
			c1.8,0.4,2.2,0.8,2.2,1.7c0,0.9-0.8,1.6-2.4,1.6C200.8,515.5,199.9,515.1,199.2,514.7z"/>
		<path d="M206.1,514.6h2v-5.1h-1.6v-0.6c0.8-0.1,1.4-0.3,1.8-0.5h0.7v6.3h1.8v0.8h-4.8V514.6z"/>
		<path d="M213.9,512.3c0-2.1,0.9-3.8,2.5-5l0.5,0.5c-1.5,1.2-2.2,2.7-2.2,4.5c0,1.8,0.7,3.3,2.2,4.5l-0.5,0.5
			C214.9,516.1,213.9,514.4,213.9,512.3z"/>
		<path d="M220.6,514.6c0-0.5,0.4-0.9,0.9-0.9s0.9,0.4,0.9,0.9c0,0.6-0.4,0.9-0.9,0.9S220.6,515.1,220.6,514.6z"/>
		<path d="M227.2,514.6c0-0.5,0.4-0.9,0.9-0.9s0.9,0.4,0.9,0.9c0,0.6-0.4,0.9-0.9,0.9S227.2,515.1,227.2,514.6z"/>
		<path d="M233.8,514.6c0-0.5,0.4-0.9,0.9-0.9s0.9,0.4,0.9,0.9c0,0.6-0.4,0.9-0.9,0.9S233.8,515.1,233.8,514.6z"/>
		<path d="M239.4,516.8c1.5-1.2,2.2-2.7,2.2-4.5c0-1.8-0.7-3.3-2.2-4.5l0.5-0.5c1.5,1.2,2.5,2.9,2.5,5c0,2.1-0.9,3.8-2.5,5
			L239.4,516.8z"/>
	</g>
</g>
<g>
	<g>
		<path d="M74.7,535.4l3.3-2.2v0l-3.3-2.2V530l4.1,2.8v0.7l-4.1,2.8V535.4z"/>
		<path d="M87.4,534.1c0-1.8,1.2-2.8,2.6-2.8s2.6,1,2.6,2.8c0,1.8-1.2,2.8-2.6,2.8S87.4,535.9,87.4,534.1z M91.7,534.1
			c0-1.2-0.7-2.1-1.7-2.1c-1,0-1.7,0.8-1.7,2.1c0,1.2,0.7,2,1.7,2C91,536.2,91.7,535.4,91.7,534.1z"/>
		<path d="M95.2,536.2L95.2,536.2l-0.1,0.6h-0.7V529h0.9v2.1l0,1h0c0.5-0.5,1.2-0.8,1.8-0.8c1.4,0,2.2,1.1,2.2,2.7
			c0,1.8-1.1,2.9-2.4,2.9C96.3,536.9,95.7,536.7,95.2,536.2z M98.3,534c0-1.2-0.4-2-1.5-2c-0.5,0-1,0.2-1.6,0.8v2.7
			c0.5,0.5,1.1,0.6,1.4,0.6C97.6,536.2,98.3,535.4,98.3,534z"/>
		<path d="M100.5,538.8l0.3-0.7c0.4,0.2,0.8,0.3,1.2,0.3c1.1,0,1.3-0.5,1.3-1.4v-4.8h-2.5v-0.7h3.4v5.5c0,1.3-0.5,2.3-2.2,2.3
			C101.5,539.2,100.9,539,100.5,538.8z M103,529.6c0-0.4,0.3-0.7,0.7-0.7s0.7,0.3,0.7,0.7c0,0.4-0.3,0.7-0.7,0.7
			S103,530.1,103,529.6z"/>
		<path d="M107.2,534.1c0-1.7,1.3-2.8,2.7-2.8c1.5,0,2.4,1,2.4,2.5c0,0.2,0,0.4,0,0.5h-4.5v-0.7h4l-0.2,0.3c0-1.3-0.6-1.9-1.6-1.9
			c-1,0-1.8,0.7-1.8,2.1c0,1.4,0.9,2.1,2.1,2.1c0.6,0,1.1-0.2,1.6-0.5l0.3,0.6c-0.5,0.4-1.2,0.6-2.1,0.6
			C108.5,536.9,107.2,535.9,107.2,534.1z"/>
		<path d="M114,534.1c0-1.8,1.4-2.8,3-2.8c0.9,0,1.5,0.4,1.9,0.8l-0.5,0.6c-0.4-0.4-0.9-0.6-1.5-0.6c-1.2,0-2.1,0.8-2.1,2.1
			c0,1.2,0.8,2,2.1,2c0.7,0,1.2-0.3,1.7-0.7l0.4,0.6c-0.6,0.5-1.3,0.8-2.1,0.8C115.2,536.9,114,535.9,114,534.1z"/>
		<path d="M122,534.7v-2.5h-1.5v-0.7l1.6-0.1l0.1-1.7h0.8v1.7h2.6v0.7h-2.6v2.5c0,1,0.3,1.5,1.4,1.5c0.5,0,0.9-0.1,1.3-0.2l0.2,0.7
			c-0.5,0.2-1,0.3-1.7,0.3C122.5,536.9,122,536,122,534.7z"/>
		<path d="M127.1,536.3c2.4-2.1,3.7-3.3,3.7-4.5c0-0.8-0.5-1.4-1.5-1.4c-0.7,0-1.2,0.4-1.7,0.8l-0.5-0.5c0.6-0.6,1.3-1.1,2.3-1.1
			c1.4,0,2.3,0.8,2.3,2.1c0,1.3-1.3,2.6-3.2,4.4c0.4,0,0.9-0.1,1.3-0.1h2.3v0.8h-4.9V536.3z"/>
		<path d="M140.8,533.5v-0.7l4.1-2.8v0.9l-3.3,2.2v0l3.3,2.2v0.9L140.8,533.5z"/>
		<path d="M147,532.8h4.7v0.7H147V532.8z"/>
		<path d="M160,535.9l0.5-0.6c0.6,0.5,1.3,0.9,2.1,0.9c1,0,1.6-0.5,1.6-1.1c0-0.8-0.6-1-1.3-1.3l-1-0.5c-0.7-0.3-1.6-0.8-1.6-1.9
			c0-1.1,1-1.9,2.4-1.9c0.9,0,1.7,0.4,2.2,0.9l-0.5,0.6c-0.5-0.4-1-0.7-1.8-0.7c-0.8,0-1.4,0.4-1.4,1c0,0.7,0.7,0.9,1.3,1.2l1,0.5
			c0.9,0.4,1.6,0.9,1.6,1.9c0,1.1-1,2.1-2.6,2.1C161.6,536.9,160.7,536.5,160,535.9z"/>
		<path d="M169.9,532c0-0.4,0-0.9,0.1-1.2h-0.1c-0.2,0.3-0.5,0.7-0.7,1l-1.9,2.4h4.6v0.7h-5.6v-0.6l3.5-4.5h1v7h-0.9V532z"/>
		<path d="M173.2,533.2c0-2.3,1.4-3.7,3.2-3.7c0.9,0,1.6,0.4,2,0.9l-0.5,0.6c-0.4-0.4-0.8-0.6-1.5-0.6c-1.4,0-2.3,1.1-2.3,2.9
			c0,1.8,0.9,2.9,2.3,2.9c0.7,0,1.2-0.3,1.6-0.8l0.5,0.6c-0.6,0.7-1.3,1-2.2,1C174.6,536.9,173.2,535.5,173.2,533.2z"/>
		<path d="M181.8,535v-5.3h-1.9V529h2.8v6.1c0,0.8,0.4,1.1,1.1,1.1c0.3,0,0.6-0.1,1-0.2l0.2,0.7c-0.5,0.2-0.8,0.3-1.4,0.3
			C182.4,536.9,181.8,536.3,181.8,535z"/>
		<path d="M186.6,535.4c0-1.2,1.1-1.8,3.9-2c0-0.7-0.4-1.3-1.4-1.3c-0.7,0-1.4,0.3-1.9,0.6l-0.4-0.6c0.5-0.4,1.5-0.8,2.4-0.8
			c1.5,0,2.2,0.9,2.2,2.2v3.3h-0.8l-0.1-0.7h0c-0.6,0.5-1.4,0.9-2.1,0.9C187.4,536.9,186.6,536.4,186.6,535.4z M190.5,535.4V534
			c-2.3,0.2-3,0.6-3,1.3c0,0.6,0.6,0.8,1.2,0.8C189.2,536.2,189.8,535.9,190.5,535.4z"/>
		<path d="M193.1,536.1l0.4-0.6c0.6,0.4,1.3,0.7,2.3,0.7c0.9,0,1.3-0.4,1.3-0.8c0-0.4-0.2-0.7-1.7-1c-1.4-0.3-2.1-0.8-2.1-1.6
			c0-0.9,0.8-1.5,2.2-1.5c0.8,0,1.6,0.3,2.2,0.7l-0.4,0.6c-0.5-0.3-1.1-0.6-1.8-0.6c-0.9,0-1.2,0.4-1.2,0.8c0,0.5,0.5,0.7,1.6,0.9
			c1.8,0.4,2.2,0.8,2.2,1.6c0,0.9-0.8,1.6-2.4,1.6C194.7,536.9,193.7,536.5,193.1,536.1z"/>
		<path d="M199.7,536.1l0.4-0.6c0.6,0.4,1.3,0.7,2.3,0.7c0.9,0,1.3-0.4,1.3-0.8c0-0.4-0.2-0.7-1.7-1c-1.4-0.3-2.1-0.8-2.1-1.6
			c0-0.9,0.8-1.5,2.2-1.5c0.8,0,1.6,0.3,2.2,0.7l-0.4,0.6c-0.5-0.3-1.1-0.6-1.8-0.6c-0.9,0-1.2,0.4-1.2,0.8c0,0.5,0.5,0.7,1.6,0.9
			c1.8,0.4,2.2,0.8,2.2,1.6c0,0.9-0.8,1.6-2.4,1.6C201.3,536.9,200.3,536.5,199.7,536.1z"/>
		<path d="M206.3,536.3c2.4-2.1,3.7-3.3,3.7-4.5c0-0.8-0.5-1.4-1.5-1.4c-0.7,0-1.2,0.4-1.7,0.8l-0.5-0.5c0.6-0.6,1.3-1.1,2.3-1.1
			c1.4,0,2.3,0.8,2.3,2.1c0,1.3-1.3,2.6-3.2,4.4c0.4,0,0.9-0.1,1.3-0.1h2.3v0.8h-4.9V536.3z"/>
		<path d="M214.4,533.7c0-2.1,0.9-3.8,2.5-5l0.5,0.5c-1.5,1.2-2.2,2.7-2.2,4.5s0.7,3.3,2.2,4.5l-0.5,0.5
			C215.3,537.5,214.4,535.9,214.4,533.7z"/>
		<path d="M221.1,536c0-0.5,0.4-0.9,0.9-0.9s0.9,0.4,0.9,0.9c0,0.6-0.4,0.9-0.9,0.9S221.1,536.6,221.1,536z"/>
		<path d="M227.7,536c0-0.5,0.4-0.9,0.9-0.9s0.9,0.4,0.9,0.9c0,0.6-0.4,0.9-0.9,0.9S227.7,536.6,227.7,536z"/>
		<path d="M234.3,536c0-0.5,0.4-0.9,0.9-0.9s0.9,0.4,0.9,0.9c0,0.6-0.4,0.9-0.9,0.9S234.3,536.6,234.3,536z"/>
		<path d="M239.8,538.3c1.5-1.2,2.2-2.7,2.2-4.5s-0.7-3.3-2.2-4.5l0.5-0.5c1.5,1.2,2.5,2.9,2.5,5c0,2.1-0.9,3.8-2.5,5L239.8,538.3z"
			/>
	</g>
</g>
<rect x="606.4" y="199.3" class="st0" width="176.3" height="24.7"/>
<g>
	<g>
		<path d="M613.1,212.2l3.3-2.2v0l-3.3-2.2v-0.9l4.1,2.8v0.7l-4.1,2.8V212.2z"/>
		<path d="M625.9,212.7l0.5-0.6c0.5,0.5,1.3,0.9,2.1,0.9c1,0,1.6-0.5,1.6-1.1c0-0.8-0.6-1-1.3-1.3l-1-0.5c-0.7-0.3-1.6-0.8-1.6-1.9
			c0-1.1,1-1.9,2.4-1.9c0.9,0,1.7,0.4,2.2,0.9l-0.5,0.6c-0.5-0.4-1-0.7-1.8-0.7c-0.8,0-1.4,0.4-1.4,1c0,0.7,0.7,0.9,1.3,1.2l1,0.5
			c0.9,0.4,1.6,0.9,1.6,1.9c0,1.1-1,2.1-2.6,2.1C627.5,213.7,626.6,213.3,625.9,212.7z"/>
		<path d="M635.8,208.8c0-0.4,0-0.9,0.1-1.2h-0.1c-0.2,0.3-0.5,0.7-0.7,1l-1.9,2.4h4.6v0.7h-5.6v-0.6l3.5-4.5h1v7h-0.9V208.8z"/>
		<path d="M639,210c0-2.3,1.3-3.7,3.2-3.7c1,0,1.6,0.5,2,0.9l-0.5,0.6c-0.3-0.4-0.8-0.6-1.5-0.6c-1.4,0-2.2,1.1-2.2,2.9
			c0,1.8,0.8,2.9,2.2,2.9c0.5,0,1-0.2,1.2-0.4v-1.9h-1.4v-0.8h2.3v3c-0.5,0.5-1.2,0.8-2.2,0.8C640.3,213.7,639,212.4,639,210z"/>
		<path d="M645.7,210.9c0-1.7,1.3-2.8,2.7-2.8c1.5,0,2.4,1,2.4,2.5c0,0.2,0,0.4,0,0.5h-4.5v-0.7h4l-0.2,0.3c0-1.3-0.6-1.9-1.6-1.9
			c-1,0-1.8,0.7-1.8,2.1c0,1.4,0.9,2.1,2.1,2.1c0.6,0,1.1-0.2,1.6-0.5l0.3,0.6c-0.5,0.4-1.2,0.6-2.1,0.6
			C647,213.7,645.7,212.7,645.7,210.9z"/>
		<path d="M652.6,208.3h0.7l0.1,0.9h0c0.6-0.6,1.2-1,2-1c1.3,0,1.8,0.7,1.8,2.2v3.3h-0.9v-3.2c0-1-0.4-1.5-1.2-1.5
			c-0.6,0-1.1,0.3-1.7,1v3.7h-0.9V208.3z"/>
		<path d="M658.9,210.9c0-1.7,1.3-2.8,2.7-2.8c1.5,0,2.4,1,2.4,2.5c0,0.2,0,0.4,0,0.5h-4.5v-0.7h4l-0.2,0.3c0-1.3-0.6-1.9-1.6-1.9
			c-1,0-1.8,0.7-1.8,2.1c0,1.4,0.9,2.1,2.1,2.1c0.6,0,1.1-0.2,1.6-0.5l0.3,0.6c-0.5,0.4-1.2,0.6-2.1,0.6
			C660.2,213.7,658.9,212.7,658.9,210.9z"/>
		<path d="M666.4,208.3h0.8l0.1,1.3h0c0.6-0.9,1.4-1.4,2.4-1.4c0.4,0,0.7,0.1,1.1,0.2l-0.2,0.8c-0.4-0.1-0.6-0.2-1-0.2
			c-0.8,0-1.6,0.4-2.2,1.5v3.1h-0.9V208.3z"/>
		<path d="M674.8,209h-2.5v-0.7h3.4v5.3h-0.9V209z M674.5,206.4c0-0.4,0.3-0.7,0.7-0.7s0.7,0.3,0.7,0.7c0,0.4-0.3,0.7-0.7,0.7
			S674.5,206.9,674.5,206.4z"/>
		<path d="M678.9,210.9c0-1.8,1.4-2.8,3-2.8c0.9,0,1.5,0.4,1.9,0.8l-0.5,0.6c-0.4-0.4-0.9-0.6-1.5-0.6c-1.2,0-2.1,0.8-2.1,2.1
			c0,1.2,0.8,2,2.1,2c0.7,0,1.2-0.3,1.7-0.7l0.4,0.6c-0.6,0.5-1.3,0.8-2.1,0.8C680.1,213.7,678.9,212.7,678.9,210.9z"/>
		<path d="M685.6,212.9h2v-5.1h-1.6v-0.6c0.8-0.1,1.4-0.3,1.8-0.5h0.7v6.3h1.8v0.8h-4.8V212.9z"/>
		<path d="M693.5,210.6c0-2.1,0.9-3.8,2.5-5l0.5,0.5c-1.5,1.2-2.2,2.7-2.2,4.5c0,1.8,0.7,3.3,2.2,4.5l-0.5,0.5
			C694.4,214.4,693.5,212.7,693.5,210.6z"/>
		<path d="M700.5,210.8l-1.9-2.6h1l0.8,1.2c0.2,0.3,0.4,0.6,0.6,0.9h0c0.2-0.3,0.4-0.6,0.6-0.9l0.8-1.2h1l-1.9,2.7l2,2.7h-1
			l-0.9-1.2c-0.2-0.3-0.5-0.7-0.7-1h0c-0.2,0.3-0.4,0.6-0.7,1l-0.9,1.2h-1L700.5,210.8z"/>
		<path d="M711.9,208.5h4.7v0.7h-4.7V208.5z M711.9,210.8h4.7v0.7h-4.7V210.8z"/>
		<path class="st4" d="M724.8,210.9c0-1.8,1.2-2.8,2.6-2.8s2.6,1,2.6,2.8c0,1.8-1.2,2.8-2.6,2.8S724.8,212.7,724.8,210.9z
			 M729.2,210.9c0-1.2-0.7-2.1-1.7-2.1s-1.7,0.8-1.7,2.1c0,1.2,0.7,2,1.7,2S729.2,212.2,729.2,210.9z"/>
		<path class="st4" d="M732.6,213L732.6,213l-0.1,0.6h-0.7v-7.8h0.9v2.1l0,1h0c0.5-0.5,1.2-0.8,1.8-0.8c1.4,0,2.2,1.1,2.2,2.7
			c0,1.8-1.1,2.9-2.4,2.9C733.8,213.7,733.1,213.5,732.6,213z M735.8,210.9c0-1.2-0.4-2-1.5-2c-0.5,0-1,0.2-1.6,0.8v2.7
			c0.5,0.5,1.1,0.6,1.4,0.6C735.1,213,735.8,212.2,735.8,210.9z"/>
		<path class="st4" d="M738,215.6l0.3-0.7c0.4,0.2,0.8,0.3,1.2,0.3c1.1,0,1.3-0.5,1.3-1.4V209h-2.5v-0.7h3.4v5.5
			c0,1.3-0.5,2.3-2.2,2.3C738.9,216,738.4,215.8,738,215.6z M740.5,206.4c0-0.4,0.3-0.7,0.7-0.7s0.7,0.3,0.7,0.7
			c0,0.4-0.3,0.7-0.7,0.7S740.5,206.9,740.5,206.4z"/>
		<path class="st4" d="M744.7,210.9c0-1.7,1.3-2.8,2.7-2.8c1.5,0,2.4,1,2.4,2.5c0,0.2,0,0.4,0,0.5h-4.5v-0.7h4l-0.2,0.3
			c0-1.3-0.6-1.9-1.6-1.9c-1,0-1.8,0.7-1.8,2.1c0,1.4,0.9,2.1,2.1,2.1c0.6,0,1.1-0.2,1.6-0.5l0.3,0.6c-0.5,0.4-1.2,0.6-2.1,0.6
			C746,213.7,744.7,212.7,744.7,210.9z"/>
		<path class="st4" d="M751.4,210.9c0-1.8,1.4-2.8,3-2.8c0.9,0,1.5,0.4,1.9,0.8l-0.5,0.6c-0.4-0.4-0.9-0.6-1.5-0.6
			c-1.2,0-2.1,0.8-2.1,2.1c0,1.2,0.8,2,2.1,2c0.7,0,1.2-0.3,1.7-0.7l0.4,0.6c-0.6,0.5-1.3,0.8-2.1,0.8
			C752.7,213.7,751.4,212.7,751.4,210.9z"/>
		<path class="st4" d="M759.4,211.5V209h-1.5v-0.7l1.6-0.1l0.1-1.7h0.8v1.7h2.6v0.7h-2.6v2.5c0,1,0.3,1.5,1.4,1.5
			c0.5,0,0.9-0.1,1.3-0.2l0.2,0.7c-0.5,0.2-1,0.3-1.7,0.3C759.9,213.7,759.4,212.9,759.4,211.5z"/>
		<path class="st4" d="M764.6,213.1c2.4-2.1,3.7-3.3,3.7-4.5c0-0.8-0.5-1.4-1.5-1.4c-0.7,0-1.2,0.4-1.7,0.8l-0.5-0.5
			c0.6-0.6,1.3-1.1,2.3-1.1c1.4,0,2.3,0.8,2.3,2.1c0,1.3-1.3,2.6-3.2,4.4c0.4,0,0.9-0.1,1.3-0.1h2.3v0.8h-4.9V213.1z"/>
		<path d="M771.7,215.1c1.5-1.2,2.2-2.7,2.2-4.5c0-1.8-0.7-3.3-2.2-4.5l0.5-0.5c1.5,1.2,2.5,2.9,2.5,5c0,2.1-0.9,3.8-2.5,5
			L771.7,215.1z"/>
	</g>
</g>
</svg>
