<svg id="Layer_1" data-name="Layer 1" xmlns="http://www.w3.org/2000/svg" viewBox="0 0 841.89 595.28"><defs><style>.cls-1{fill:#f4d6e9;}.cls-1,.cls-10,.cls-12,.cls-2{stroke:#1d1d1b;}.cls-1,.cls-10,.cls-2{stroke-linejoin:round;}.cls-2{fill:#c9e5f9;}.cls-3{font-size:11px;font-family:ArialMT, Arial;}.cls-11,.cls-3{fill:#1d1d1b;}.cls-4{letter-spacing:-0.06em;}.cls-5{letter-spacing:-0.02em;}.cls-6{letter-spacing:-0.07em;}.cls-7{letter-spacing:-0.11em;}.cls-8{letter-spacing:-0.02em;}.cls-9{letter-spacing:-0.04em;}.cls-10,.cls-12{fill:none;}.cls-12{stroke-miterlimit:10;}</style></defs><rect class="cls-1" x="186.33" y="342.89" width="129.37" height="21.35" rx="3.48"/><rect class="cls-1" x="186.33" y="428.57" width="129.37" height="41.98" rx="3.48"/><rect class="cls-1" x="186.33" y="537.89" width="129.37" height="21.35" rx="3.48"/><rect class="cls-2" x="179.54" y="507.17" width="68.14" height="21.35" rx="3.48"/><text class="cls-3" transform="translate(32.21 51.94)">Sequencing</text><text class="cls-3" transform="translate(36.81 106.18)">Alignment</text><text class="cls-3" transform="translate(35.9 162.09)">Reduction</text><rect class="cls-2" x="111.4" y="66.91" width="68.14" height="21.35" rx="3.48"/><text class="cls-3" transform="translate(127.44 81.1)"><tspan class="cls-4">F</tspan><tspan x="6.11" y="0">ASTQ</tspan></text><rect class="cls-2" x="111.4" y="117.06" width="68.14" height="21.35" rx="3.48"/><text class="cls-3" transform="translate(133.55 131.25)">BAM</text><rect class="cls-1" x="188.75" y="66.91" width="178.64" height="21.35" rx="3.48"/><text class="cls-3" transform="translate(200.43 81.1)">ShortReads, Biostrings, qrqc, ...</text><rect class="cls-1" x="188.75" y="117.06" width="181.19" height="21.35" rx="3.48"/><text class="cls-3" transform="translate(194.38 131.33)">Rsamtools, GenomicAlignments, ...</text><rect class="cls-2" x="370.74" y="195.72" width="151.29" height="42.91" rx="3.48"/><text class="cls-3" transform="translate(392.07 213.5)">Di<tspan class="cls-5" x="10.39" y="0">f</tspan><tspan x="13.25" y="0">ferential expression</tspan><tspan x="7.24" y="13.2">(genes, transcripts)</tspan></text><rect class="cls-1" x="186.33" y="235.14" width="129.37" height="51.27" rx="3.48"/><text class="cls-3" transform="translate(231.45 249.9)">Base R,<tspan x="-31.18" y="13.2">GenomicAlignments,</tspan><tspan x="-11.92" y="26.4">Rsubread, ...</tspan></text><rect class="cls-1" x="377.14" y="246.64" width="157.98" height="35.32" rx="3.48"/><text class="cls-3" transform="translate(414.86 260.62)">edgeR, DESeq2,<tspan x="-8.25" y="13.2">DEXSeq, SGSeq, ...</tspan></text><rect class="cls-2" x="179.89" y="313.08" width="99.23" height="21.35" rx="3.48"/><text class="cls-3" transform="translate(185.49 327.27)">Peaks (.bed, .wig)</text><text class="cls-3" transform="translate(225.34 357.7)">rtracklayer</text><rect class="cls-2" x="369.95" y="304.54" width="152.08" height="39.87" rx="3.48"/><text class="cls-3" transform="translate(418.16 320.8)">Annotation;<tspan x="-17.63" y="13.2">Di</tspan><tspan class="cls-5" x="-7.24" y="13.2">f</tspan><tspan x="-4.38" y="13.2">ferential binding</tspan></text><rect class="cls-1" x="377.14" y="352.29" width="157.98" height="35.32" rx="3.48"/><text class="cls-3" transform="translate(395.39 366.27)">ChIPpeakAnno, Di<tspan class="cls-5" x="90.5" y="0">f</tspan><tspan x="93.35" y="0">fBind,</tspan><tspan x="9.39" y="13.2">ChIPseeke</tspan><tspan class="cls-4" x="63.19" y="13.2">r</tspan><tspan x="66.25" y="13.2">, csa</tspan><tspan class="cls-4" x="89.48" y="13.2">w</tspan><tspan x="96.82" y="13.2">, ...</tspan></text><rect class="cls-2" x="179.89" y="397.48" width="99.46" height="21.35" rx="3.48"/><text class="cls-3" transform="translate(196.1 411.68)"><tspan class="cls-6">V</tspan><tspan x="6.52" y="0">ariants (.vcf)</tspan></text><text class="cls-3" transform="translate(206.17 445.88)"><tspan class="cls-6">V</tspan><tspan x="6.52" y="0">ariantAnnotation,</tspan><tspan class="cls-6" x="-7.33" y="13.2">V</tspan><tspan x="-0.81" y="13.2">ariant</tspan><tspan class="cls-7" x="26.71" y="13.2">T</tspan><tspan x="32.21" y="13.2">ools, h5vc, ...</tspan></text><rect class="cls-2" x="371.29" y="397.88" width="150.74" height="21.35" rx="3.48"/><text class="cls-3" transform="translate(383.2 412.08) scale(1.03 1)">E<tspan class="cls-8" x="7.34" y="0">f</tspan><tspan x="10.19" y="0">fect predictions; G</tspan><tspan class="cls-9" x="98.84" y="0">W</tspan><tspan x="108.82" y="0">AS</tspan></text><rect class="cls-1" x="377.14" y="427.11" width="157.98" height="42.09" rx="3.48"/><text class="cls-3" transform="translate(395.39 444.47)">ChIPpeakAnno, Di<tspan class="cls-5" x="90.5" y="0">f</tspan><tspan x="93.35" y="0">fBind,</tspan><tspan x="9.39" y="13.2">ChIPseeke</tspan><tspan class="cls-4" x="63.19" y="13.2">r</tspan><tspan x="66.25" y="13.2">, csa</tspan><tspan class="cls-4" x="89.48" y="13.2">w</tspan><tspan x="96.82" y="13.2">, ...</tspan></text><text class="cls-3" transform="translate(206.76 523.33)">...</text><text class="cls-3" transform="translate(246.43 552.08)">...</text><rect class="cls-1" x="646.84" y="231.31" width="157.98" height="72.2" rx="3.48"/><text class="cls-3" transform="translate(703.82 249.33)">IRanges,<tspan x="-20.48" y="13.2">GenomicRanges,</tspan><tspan x="-28.73" y="26.4">GenomicAlignments,</tspan><tspan x="17.43" y="39.6">...</tspan></text><rect class="cls-1" x="648.49" y="323.33" width="157.98" height="89.28" rx="3.48"/><text class="cls-3" transform="translate(691.4 342.69)">AnnotationDbi,<tspan x="-9.16" y="13.2">GenomicFeatures,</tspan><tspan x="4.7" y="26.4">org.*,</tspan><tspan class="cls-5" x="30.99" y="26.4"> </tspan><tspan x="33.85" y="26.4">TxDb*,</tspan><tspan x="-15.57" y="39.6">biomaRt, PSICQUIC,</tspan><tspan x="-1.51" y="52.8">KEGGRES</tspan><tspan class="cls-7" x="52.89" y="52.8">T</tspan><tspan x="58.39" y="52.8">, ...</tspan></text><rect class="cls-1" x="648.49" y="435.42" width="157.98" height="48.68" rx="3.48"/><text class="cls-3" transform="translate(679.79 456.08)">Gviz, ggbio, epivis<tspan class="cls-4" x="89.26" y="0">r</tspan><tspan x="92.32" y="0">,</tspan><tspan x="-5.8" y="13.2">rtracklaye</tspan><tspan class="cls-4" x="41.88" y="13.2">r</tspan><tspan x="44.93" y="13.2">, SRAdb, ...</tspan></text><line class="cls-10" x1="145.47" y1="88.26" x2="145.47" y2="111.68"/><polygon class="cls-11" points="141.73 110.58 145.47 117.06 149.21 110.58 141.73 110.58"/><line class="cls-10" x1="145.47" y1="138.41" x2="145.47" y2="517.85"/><line class="cls-10" x1="145.47" y1="517.85" x2="174.51" y2="517.85"/><polygon class="cls-11" points="173.41 521.59 179.89 517.85 173.41 514.11 173.41 521.59"/><text class="cls-3" transform="translate(336.91 167.21)">Analysis</text><text class="cls-3" transform="translate(658.14 167.88)">Integration &amp; <tspan class="cls-5" x="65.43" y="0">V</tspan><tspan x="72.57" y="0">isualization</tspan></text><line class="cls-10" x1="145.47" y1="216.57" x2="174.51" y2="216.57"/><polygon class="cls-11" points="173.41 220.31 179.89 216.57 173.41 212.83 173.41 220.31"/><line class="cls-10" x1="145.47" y1="323.75" x2="174.51" y2="323.75"/><polygon class="cls-11" points="173.41 327.49 179.89 323.75 173.41 320.01 173.41 327.49"/><rect class="cls-2" x="179.75" y="205.9" width="99.23" height="21.35" rx="3.48"/><text class="cls-3" transform="translate(196.97 220.09)">Counts (.csv)</text><line class="cls-10" x1="145.47" y1="408.15" x2="174.51" y2="408.15"/><polygon class="cls-11" points="173.41 411.89 179.89 408.15 173.41 404.41 173.41 411.89"/><rect class="cls-1" x="404.63" y="537.89" width="129.37" height="21.35" rx="3.48"/><rect class="cls-2" x="397.85" y="507.17" width="68.14" height="21.35" rx="3.48"/><text class="cls-3" transform="translate(425.07 523.33)">...</text><text class="cls-3" transform="translate(464.73 552.08)">...</text><line class="cls-10" x1="246.85" y1="517.85" x2="390.32" y2="517.85"/><polygon class="cls-11" points="389.22 521.59 395.7 517.85 389.22 514.11 389.22 521.59"/><line class="cls-10" x1="278.85" y1="217.18" x2="364.57" y2="217.18"/><polygon class="cls-11" points="363.47 220.92 369.95 217.18 363.47 213.44 363.47 220.92"/><line class="cls-10" x1="278.85" y1="324.48" x2="364.57" y2="324.48"/><polygon class="cls-11" points="363.47 328.22 369.95 324.48 363.47 320.74 363.47 328.22"/><line class="cls-10" x1="280.27" y1="408.15" x2="365.99" y2="408.15"/><polygon class="cls-11" points="364.89 411.89 371.37 408.15 364.89 404.41 364.89 411.89"/><path class="cls-12" d="M564.26,207c6.16-.89,12.12,3.51,15,9s3.48,11.91,4,18.13l9.12,114.61c.44,5.46.91,11.06,3.18,16.05s6.76,9.34,12.22,9.87"/><path class="cls-12" d="M564.26,542.73c6.16.89,12.12-3.51,15-9s3.48-11.92,4-18.13L592.39,401c.44-5.47.91-11.06,3.18-16.05s6.76-9.34,12.22-9.88"/></svg>