<?xml version="1.0" encoding="utf-8"?>
<!-- Generator: Adobe Illustrator 25.4.1, SVG Export Plug-In . SVG Version: 6.00 Build 0)  -->
<svg version="1.1" id="Layer_1" xmlns="http://www.w3.org/2000/svg" xmlns:xlink="http://www.w3.org/1999/xlink" x="0px" y="0px"
	 viewBox="0 0 652 198.4" style="enable-background:new 0 0 652 198.4;" xml:space="preserve">
<style type="text/css">
	.st0{fill:#FFFFFF;stroke:#000000;stroke-width:0.5;stroke-miterlimit:10;}
	.st1{fill:#FFFFFF;stroke:#000000;stroke-miterlimit:10;}
	.st2{font-family:'MyriadPro-Regular';}
	.st3{font-size:12px;}
</style>
<rect x="180.3" y="132.4" class="st0" width="32.6" height="13.8"/>
<rect x="212.9" y="132.4" class="st0" width="32.6" height="13.8"/>
<rect x="180.3" y="146.2" class="st0" width="32.6" height="13.8"/>
<rect x="212.9" y="146.2" class="st0" width="32.6" height="13.8"/>
<rect x="180.3" y="160" class="st0" width="32.6" height="13.8"/>
<rect x="212.9" y="160" class="st0" width="32.6" height="13.8"/>
<rect x="306.7" y="45.7" class="st0" width="44.7" height="13.8"/>
<rect x="306.7" y="59.5" class="st0" width="44.7" height="13.8"/>
<rect x="180.3" y="118.7" class="st1" width="32.6" height="13.8"/>
<text transform="matrix(1 0 0 1 192.8965 129.0856)" class="st2 st3">A</text>
<rect x="212.9" y="118.7" class="st1" width="32.6" height="13.8"/>
<text transform="matrix(1 0 0 1 225.9251 129.0856)" class="st2 st3">B</text>
<rect x="274.1" y="45.7" class="st1" width="32.6" height="13.8"/>
<text transform="matrix(1 0 0 1 286.7208 56.1554)" class="st2 st3">A</text>
<rect x="274.1" y="59.5" class="st1" width="32.6" height="13.8"/>
<text transform="matrix(1 0 0 1 287.1407 69.9235)" class="st2 st3">B</text>
<rect x="306.7" y="32" class="st1" width="44.7" height="13.8"/>
<text transform="matrix(1 0 0 1 313.0991 42.3874)" class="st2 st3">meta1</text>
<polyline class="st0" points="351.4,45.7 396.2,45.7 396.2,59.5 351.4,59.5 "/>
<polyline class="st0" points="351.4,59.5 396.2,59.5 396.2,73.3 351.4,73.3 "/>
<polyline class="st1" points="351.4,32 396.2,32 396.2,45.7 351.4,45.7 "/>
<text transform="matrix(1 0 0 1 357.8351 42.3874)" class="st2 st3">meta2</text>
<path class="st0" d="M179.8,118c2.1-9.5,7.2-25.3,20-40.1c27.4-31.5,67.4-32.2,74.3-32.2"/>
<path class="st0" d="M246,118.7c-0.5-4.4-0.7-12.8,3.4-22.1c7-15.8,21.4-22,24.7-23.3"/>
<g>
	<g>
		<path d="M25.7,125.5l3.6-2.4v0l-3.6-2.4v-1l4.5,3v0.8l-4.5,3V125.5z"/>
		<path d="M39.8,119.1h1.9c2.4,0,3.6,1.4,3.6,3.9c0,2.5-1.3,4-3.6,4h-2V119.1z M41.7,126.2c1.8,0,2.7-1.2,2.7-3.1
			c0-2-0.9-3.1-2.7-3.1h-0.9v6.2H41.7z"/>
		<path d="M47.6,119.1h4.8v0.9h-3.8v2.7h3.2v0.9h-3.2v3.5h-1V119.1z"/>
		<path d="M61.4,121.4h5.2v0.7h-5.2V121.4z M61.4,124h5.2v0.7h-5.2V124z"/>
		<path d="M75.8,119.1h1.9c2.4,0,3.6,1.4,3.6,3.9c0,2.5-1.3,4-3.6,4h-2V119.1z M77.7,126.2c1.8,0,2.7-1.2,2.7-3.1
			c0-2-0.9-3.1-2.7-3.1h-0.9v6.2H77.7z"/>
		<path d="M83,125.5c0-1.3,1.2-1.9,4.2-2.2c0-0.8-0.4-1.5-1.5-1.5c-0.8,0-1.5,0.4-2,0.7l-0.4-0.7c0.6-0.4,1.6-0.8,2.6-0.8
			c1.6,0,2.4,0.9,2.4,2.4v3.6h-0.8l-0.1-0.8h0c-0.6,0.5-1.5,0.9-2.3,0.9C83.9,127.2,83,126.5,83,125.5z M87.2,125.5V124
			c-2.5,0.2-3.3,0.7-3.3,1.5c0,0.7,0.6,0.9,1.3,0.9C85.9,126.4,86.5,126,87.2,125.5z"/>
		<path d="M91.7,124.7V122H90v-0.7l1.7-0.1l0.1-1.9h0.8v1.9h2.9v0.8h-2.9v2.8c0,1,0.3,1.6,1.5,1.6c0.5,0,1-0.1,1.4-0.3l0.2,0.7
			c-0.5,0.2-1.1,0.3-1.8,0.3C92.2,127.2,91.7,126.2,91.7,124.7z"/>
		<path d="M97.4,125.5c0-1.3,1.2-1.9,4.2-2.2c0-0.8-0.4-1.5-1.5-1.5c-0.8,0-1.5,0.4-2,0.7l-0.4-0.7c0.6-0.4,1.6-0.8,2.6-0.8
			c1.6,0,2.4,0.9,2.4,2.4v3.6h-0.8l-0.1-0.8h0c-0.6,0.5-1.5,0.9-2.3,0.9C98.3,127.2,97.4,126.5,97.4,125.5z M101.6,125.5V124
			c-2.5,0.2-3.3,0.7-3.3,1.5c0,0.7,0.6,0.9,1.3,0.9C100.3,126.4,100.9,126,101.6,125.5z"/>
		<path d="M105.2,119.1h4.8v0.9h-3.8v2.7h3.2v0.9h-3.2v3.5h-1V119.1z"/>
		<path d="M112.5,121.2h0.8l0.1,1.4h0c0.6-0.9,1.5-1.5,2.6-1.5c0.4,0,0.8,0.1,1.2,0.2l-0.2,0.9c-0.4-0.1-0.6-0.2-1.1-0.2
			c-0.9,0-1.7,0.4-2.4,1.7v3.4h-1V121.2z"/>
		<path d="M119,125.5c0-1.3,1.2-1.9,4.2-2.2c0-0.8-0.4-1.5-1.5-1.5c-0.8,0-1.5,0.4-2,0.7l-0.4-0.7c0.6-0.4,1.6-0.8,2.6-0.8
			c1.6,0,2.4,0.9,2.4,2.4v3.6h-0.8l-0.1-0.8h0c-0.6,0.5-1.5,0.9-2.3,0.9C119.9,127.2,119,126.5,119,125.5z M123.2,125.5V124
			c-2.5,0.2-3.3,0.7-3.3,1.5c0,0.7,0.6,0.9,1.3,0.9C121.9,126.4,122.5,126,123.2,125.5z"/>
		<path d="M125.9,121.2h0.8l0.1,0.8h0c0.3-0.5,0.7-0.9,1.3-0.9c0.6,0,0.9,0.3,1.1,1c0.3-0.6,0.7-1,1.4-1c0.8,0,1.3,0.6,1.3,1.8v4.2
			h-1v-4.1c0-0.7-0.2-1-0.6-1c-0.4,0-0.6,0.3-0.9,0.9v4.2h-0.9v-4.1c0-0.7-0.2-1-0.6-1c-0.4,0-0.7,0.3-1,0.9v4.2h-1V121.2z"/>
		<path d="M133.2,124.1c0-1.9,1.4-3,3-3c1.7,0,2.7,1.1,2.7,2.7c0,0.2,0,0.4,0,0.6h-4.9v-0.8h4.3l-0.3,0.3c0-1.4-0.7-2.1-1.8-2.1
			c-1.1,0-2,0.8-2,2.3c0,1.5,1,2.3,2.3,2.3c0.7,0,1.2-0.2,1.8-0.6l0.4,0.6c-0.6,0.4-1.3,0.7-2.3,0.7
			C134.6,127.2,133.2,126,133.2,124.1z"/>
		<path d="M142.1,123.7c0-2.3,1-4.2,2.7-5.4l0.6,0.5c-1.6,1.4-2.4,2.9-2.4,4.9s0.7,3.6,2.4,4.9l-0.6,0.5
			C143.1,127.8,142.1,126,142.1,123.7z"/>
		<path d="M41.8,133.5H43l2.7,7.9h-1.1l-1.4-4.4c-0.3-0.9-0.5-1.7-0.8-2.7h0c-0.3,0.9-0.5,1.8-0.8,2.7l-1.4,4.4h-1L41.8,133.5z
			 M40.6,138.2h3.6v0.8h-3.6V138.2z"/>
		<path d="M54.2,135.8h5.2v0.7h-5.2V135.8z M54.2,138.4h5.2v0.7h-5.2V138.4z"/>
		<path d="M70.2,140.5c0-0.6,0.4-1,1-1c0.5,0,1,0.4,1,1c0,0.6-0.4,1-1,1C70.7,141.6,70.2,141.2,70.2,140.5z"/>
		<path d="M77.4,140.5c0-0.6,0.4-1,1-1c0.5,0,1,0.4,1,1c0,0.6-0.4,1-1,1C77.9,141.6,77.4,141.2,77.4,140.5z"/>
		<path d="M84.6,140.5c0-0.6,0.4-1,1-1c0.5,0,1,0.4,1,1c0,0.6-0.4,1-1,1C85.1,141.6,84.6,141.2,84.6,140.5z"/>
		<path d="M91.5,143.3c1-0.5,1.5-1.1,1.5-2.1l-0.2-1.1l0.7,0.9c-0.2,0.2-0.4,0.3-0.7,0.3c-0.5,0-0.9-0.3-0.9-0.9
			c0-0.6,0.4-0.9,1-0.9c0.7,0,1.1,0.6,1.1,1.5c0,1.4-0.8,2.4-2.1,2.9L91.5,143.3z"/>
		<path d="M40,147.9h2.2c1.6,0,2.7,0.5,2.7,1.9c0,0.8-0.4,1.5-1.4,1.7v0c1.2,0.2,1.8,0.8,1.8,1.9c0,1.5-1.2,2.3-3,2.3H40V147.9z
			 M42.1,151.3c1.3,0,1.9-0.4,1.9-1.3c0-0.9-0.6-1.2-1.8-1.2H41v2.5H42.1z M42.3,155c1.3,0,2.1-0.4,2.1-1.5c0-1-0.7-1.4-2.1-1.4H41
			v2.9H42.3z"/>
		<path d="M54.2,150.2h5.2v0.7h-5.2V150.2z M54.2,152.8h5.2v0.7h-5.2V152.8z"/>
		<path d="M63,154.9c0-0.6,0.4-1,1-1c0.5,0,1,0.4,1,1c0,0.6-0.4,1-1,1C63.5,156,63,155.6,63,154.9z"/>
		<path d="M70.2,154.9c0-0.6,0.4-1,1-1c0.5,0,1,0.4,1,1c0,0.6-0.4,1-1,1C70.7,156,70.2,155.6,70.2,154.9z"/>
		<path d="M77.4,154.9c0-0.6,0.4-1,1-1c0.5,0,1,0.4,1,1c0,0.6-0.4,1-1,1C77.9,156,77.4,155.6,77.4,154.9z"/>
		<path d="M25.9,171.8c1.6-1.4,2.4-2.9,2.4-4.9s-0.7-3.6-2.4-4.9l0.6-0.5c1.7,1.3,2.7,3.1,2.7,5.4s-1,4.1-2.7,5.4L25.9,171.8z"/>
	</g>
</g>
<g>
	<g>
		<path d="M423.4,37.3l3.6-2.4v0l-3.6-2.4v-1l4.5,3v0.8l-4.5,3V37.3z"/>
		<path d="M437.2,33h0.8l0.1,0.8h0c0.3-0.5,0.7-0.9,1.3-0.9c0.6,0,0.9,0.3,1.1,1c0.3-0.6,0.7-1,1.4-1c0.8,0,1.3,0.6,1.3,1.8v4.2h-1
			v-4.1c0-0.7-0.2-1-0.6-1c-0.4,0-0.6,0.3-0.9,0.9v4.2h-0.9v-4.1c0-0.7-0.2-1-0.6-1c-0.4,0-0.7,0.3-1,0.9v4.2h-1V33z"/>
		<path d="M444.7,36c0-2,1.5-3.1,3.2-3.1c0.9,0,1.6,0.4,2.1,0.9l-0.5,0.6c-0.5-0.4-1-0.7-1.6-0.7c-1.3,0-2.3,0.9-2.3,2.2
			c0,1.3,0.9,2.2,2.2,2.2c0.7,0,1.3-0.3,1.8-0.7l0.4,0.6c-0.6,0.6-1.5,0.9-2.3,0.9C446.1,39,444.7,37.9,444.7,36z"/>
		<path d="M451.7,36c0-2,1.3-3.1,2.9-3.1s2.9,1.1,2.9,3.1c0,1.9-1.3,3-2.9,3S451.7,37.9,451.7,36z M456.4,36c0-1.3-0.7-2.2-1.9-2.2
			s-1.9,0.9-1.9,2.2c0,1.3,0.7,2.2,1.9,2.2S456.4,37.3,456.4,36z"/>
		<path d="M461.1,36.9v-5.8H459v-0.8h3.1V37c0,0.8,0.5,1.2,1.2,1.2c0.3,0,0.7-0.1,1.1-0.3l0.3,0.7c-0.5,0.2-0.9,0.3-1.6,0.3
			C461.8,39,461.1,38.3,461.1,36.9z"/>
		<path d="M466.2,38.1l0.5-0.7c0.7,0.5,1.5,0.8,2.5,0.8c1,0,1.5-0.4,1.5-0.9c0-0.4-0.2-0.8-1.8-1.1c-1.5-0.3-2.3-0.8-2.3-1.7
			c0-0.9,0.8-1.7,2.4-1.7c0.9,0,1.8,0.3,2.4,0.7l-0.5,0.6c-0.5-0.4-1.2-0.6-2-0.6c-1,0-1.3,0.4-1.3,0.8c0,0.5,0.5,0.7,1.7,1
			c1.9,0.4,2.4,0.9,2.4,1.8c0,0.9-0.9,1.7-2.6,1.7C467.9,39,466.9,38.6,466.2,38.1z"/>
		<path d="M475,35.5c0-2.3,1-4.2,2.7-5.4l0.6,0.5c-1.6,1.4-2.4,2.9-2.4,4.9s0.7,3.6,2.4,4.9l-0.6,0.5C476,39.7,475,37.8,475,35.5z"
			/>
		<path d="M480.8,31h1.9c2.4,0,3.6,1.4,3.6,3.9c0,2.5-1.3,4-3.6,4h-2V31z M482.6,38c1.8,0,2.7-1.2,2.7-3.1c0-2-0.9-3.1-2.7-3.1h-0.9
			V38H482.6z"/>
		<path d="M488.5,31h4.8v0.9h-3.8v2.7h3.2v0.9h-3.2v3.5h-1V31z"/>
		<path d="M495.6,40.5c1.6-1.4,2.4-2.9,2.4-4.9s-0.7-3.6-2.4-4.9l0.6-0.5c1.7,1.3,2.7,3.1,2.7,5.4s-1,4.1-2.7,5.4L495.6,40.5z"/>
		<path d="M509.6,33.3h5.2V34h-5.2V33.3z M509.6,35.8h5.2v0.7h-5.2V35.8z"/>
		<path d="M524,31h1.9c2.4,0,3.6,1.4,3.6,3.9c0,2.5-1.3,4-3.6,4h-2V31z M525.8,38c1.8,0,2.7-1.2,2.7-3.1c0-2-0.9-3.1-2.7-3.1H525V38
			H525.8z"/>
		<path d="M531.1,37.4c0-1.3,1.2-1.9,4.2-2.2c0-0.8-0.4-1.5-1.5-1.5c-0.8,0-1.5,0.4-2,0.7l-0.4-0.7c0.6-0.4,1.6-0.8,2.6-0.8
			c1.6,0,2.4,0.9,2.4,2.4v3.6h-0.8l-0.1-0.8h0c-0.6,0.5-1.5,0.9-2.3,0.9C532,39,531.1,38.4,531.1,37.4z M535.3,37.3v-1.5
			c-2.5,0.2-3.2,0.7-3.2,1.5c0,0.7,0.6,0.9,1.3,0.9C534,38.2,534.7,37.9,535.3,37.3z"/>
		<path d="M539.8,36.6v-2.8h-1.7v-0.7l1.7-0.1l0.1-1.9h0.8V33h2.9v0.8h-2.9v2.8c0,1,0.3,1.6,1.5,1.6c0.5,0,1-0.1,1.4-0.3l0.2,0.7
			c-0.5,0.2-1.1,0.3-1.8,0.3C540.4,39,539.8,38,539.8,36.6z"/>
		<path d="M545.5,37.4c0-1.3,1.2-1.9,4.2-2.2c0-0.8-0.4-1.5-1.5-1.5c-0.8,0-1.5,0.4-2,0.7l-0.4-0.7c0.6-0.4,1.6-0.8,2.6-0.8
			c1.6,0,2.4,0.9,2.4,2.4v3.6h-0.8l-0.1-0.8h0c-0.6,0.5-1.5,0.9-2.3,0.9C546.4,39,545.5,38.4,545.5,37.4z M549.7,37.3v-1.5
			c-2.5,0.2-3.2,0.7-3.2,1.5c0,0.7,0.6,0.9,1.3,0.9C548.4,38.2,549.1,37.9,549.7,37.3z"/>
		<path d="M553.3,31h4.8v0.9h-3.8v2.7h3.2v0.9h-3.2v3.5h-1V31z"/>
		<path d="M560.7,33h0.8l0.1,1.4h0c0.6-0.9,1.5-1.5,2.6-1.5c0.4,0,0.8,0.1,1.2,0.2l-0.2,0.9c-0.4-0.1-0.6-0.2-1.1-0.2
			c-0.9,0-1.7,0.4-2.4,1.7v3.4h-1V33z"/>
		<path d="M567.1,37.4c0-1.3,1.2-1.9,4.2-2.2c0-0.8-0.4-1.5-1.5-1.5c-0.8,0-1.5,0.4-2,0.7l-0.4-0.7c0.6-0.4,1.6-0.8,2.6-0.8
			c1.6,0,2.4,0.9,2.4,2.4v3.6h-0.8l-0.1-0.8h0c-0.6,0.5-1.5,0.9-2.3,0.9C568,39,567.1,38.4,567.1,37.4z M571.3,37.3v-1.5
			c-2.5,0.2-3.3,0.7-3.3,1.5c0,0.7,0.6,0.9,1.3,0.9C570,38.2,570.7,37.9,571.3,37.3z"/>
		<path d="M574,33h0.8l0.1,0.8h0c0.3-0.5,0.7-0.9,1.3-0.9c0.6,0,0.9,0.3,1.1,1c0.3-0.6,0.7-1,1.4-1c0.8,0,1.3,0.6,1.3,1.8v4.2h-1
			v-4.1c0-0.7-0.2-1-0.6-1c-0.4,0-0.6,0.3-0.9,0.9v4.2h-0.9v-4.1c0-0.7-0.2-1-0.6-1c-0.4,0-0.7,0.3-1,0.9v4.2h-1V33z"/>
		<path d="M581.3,35.9c0-1.9,1.4-3,3-3c1.7,0,2.7,1.1,2.7,2.7c0,0.2,0,0.4,0,0.6H582v-0.8h4.3l-0.3,0.3c0-1.4-0.7-2.1-1.8-2.1
			c-1.1,0-2,0.8-2,2.3c0,1.5,1,2.3,2.3,2.3c0.7,0,1.2-0.2,1.8-0.6l0.4,0.6c-0.6,0.4-1.3,0.7-2.3,0.7C582.7,39,581.3,37.9,581.3,35.9
			z"/>
		<path d="M590.2,35.5c0-2.3,1-4.2,2.7-5.4l0.6,0.5c-1.6,1.4-2.4,2.9-2.4,4.9s0.7,3.6,2.4,4.9l-0.6,0.5
			C591.2,39.7,590.2,37.8,590.2,35.5z"/>
		<path d="M437.2,47.4h0.8l0.1,0.8h0c0.3-0.5,0.7-0.9,1.3-0.9c0.6,0,0.9,0.3,1.1,1c0.3-0.6,0.7-1,1.4-1c0.8,0,1.3,0.6,1.3,1.8v4.2
			h-1v-4.1c0-0.7-0.2-1-0.6-1c-0.4,0-0.6,0.3-0.9,0.9v4.2h-0.9v-4.1c0-0.7-0.2-1-0.6-1c-0.4,0-0.7,0.3-1,0.9v4.2h-1V47.4z"/>
		<path d="M444.5,50.3c0-1.9,1.4-3,3-3c1.7,0,2.7,1.1,2.7,2.7c0,0.2,0,0.4,0,0.6h-4.9v-0.8h4.3l-0.3,0.3c0-1.4-0.7-2.1-1.8-2.1
			c-1.1,0-2,0.8-2,2.3c0,1.5,1,2.3,2.3,2.3c0.7,0,1.2-0.2,1.8-0.6l0.4,0.6c-0.6,0.4-1.3,0.7-2.3,0.7
			C445.9,53.4,444.5,52.3,444.5,50.3z"/>
		<path d="M453.4,51v-2.8h-1.7v-0.7l1.7-0.1l0.1-1.9h0.8v1.9h2.9v0.8h-2.9V51c0,1,0.3,1.6,1.5,1.6c0.5,0,1-0.1,1.4-0.3l0.2,0.7
			c-0.5,0.2-1.1,0.3-1.8,0.3C454,53.4,453.4,52.4,453.4,51z"/>
		<path d="M459.1,51.8c0-1.3,1.2-1.9,4.2-2.2c0-0.8-0.4-1.5-1.5-1.5c-0.8,0-1.5,0.4-2,0.7l-0.4-0.7c0.6-0.4,1.6-0.8,2.6-0.8
			c1.6,0,2.4,0.9,2.4,2.4v3.6h-0.8l-0.1-0.8h0c-0.6,0.5-1.5,0.9-2.3,0.9C460,53.4,459.1,52.8,459.1,51.8z M463.3,51.7v-1.5
			c-2.5,0.2-3.2,0.7-3.2,1.5c0,0.7,0.6,0.9,1.3,0.9C462,52.6,462.7,52.3,463.3,51.7z"/>
		<path d="M466.5,52.4h2.2v-5.6H467v-0.6c0.9-0.1,1.5-0.3,2-0.6h0.7v6.8h2v0.8h-5.2V52.4z"/>
		<path d="M480.8,47.7h5.2v0.7h-5.2V47.7z M480.8,50.2h5.2V51h-5.2V50.2z"/>
		<path d="M496.8,52.4c0-0.6,0.4-1,1-1s1,0.4,1,1c0,0.6-0.4,1-1,1S496.8,53,496.8,52.4z"/>
		<path d="M504,52.4c0-0.6,0.4-1,1-1c0.5,0,1,0.4,1,1c0,0.6-0.4,1-1,1C504.4,53.4,504,53,504,52.4z"/>
		<path d="M511.2,52.4c0-0.6,0.4-1,1-1s1,0.4,1,1c0,0.6-0.4,1-1,1S511.2,53,511.2,52.4z"/>
		<path d="M518.1,55.2c1-0.5,1.5-1.1,1.5-2.1l-0.2-1.1l0.7,0.9c-0.2,0.2-0.4,0.3-0.7,0.3c-0.5,0-0.9-0.3-0.9-0.9
			c0-0.6,0.4-0.9,1-0.9c0.7,0,1.1,0.6,1.1,1.5c0,1.4-0.8,2.4-2.1,2.9L518.1,55.2z"/>
		<path d="M437.2,61.8h0.8l0.1,0.8h0c0.3-0.5,0.7-0.9,1.3-0.9c0.6,0,0.9,0.3,1.1,1c0.3-0.6,0.7-1,1.4-1c0.8,0,1.3,0.6,1.3,1.8v4.2
			h-1v-4.1c0-0.7-0.2-1-0.6-1c-0.4,0-0.6,0.3-0.9,0.9v4.2h-0.9v-4.1c0-0.7-0.2-1-0.6-1c-0.4,0-0.7,0.3-1,0.9v4.2h-1V61.8z"/>
		<path d="M444.5,64.7c0-1.9,1.4-3,3-3c1.7,0,2.7,1.1,2.7,2.7c0,0.2,0,0.4,0,0.6h-4.9v-0.8h4.3l-0.3,0.3c0-1.4-0.7-2.1-1.8-2.1
			c-1.1,0-2,0.8-2,2.3c0,1.5,1,2.3,2.3,2.3c0.7,0,1.2-0.2,1.8-0.6l0.4,0.6c-0.6,0.4-1.3,0.7-2.3,0.7
			C445.9,67.8,444.5,66.7,444.5,64.7z"/>
		<path d="M453.4,65.4v-2.8h-1.7v-0.7l1.7-0.1l0.1-1.9h0.8v1.9h2.9v0.8h-2.9v2.8c0,1,0.3,1.6,1.5,1.6c0.5,0,1-0.1,1.4-0.3l0.2,0.7
			c-0.5,0.2-1.1,0.3-1.8,0.3C454,67.8,453.4,66.8,453.4,65.4z"/>
		<path d="M459.1,66.2c0-1.3,1.2-1.9,4.2-2.2c0-0.8-0.4-1.5-1.5-1.5c-0.8,0-1.5,0.4-2,0.7l-0.4-0.7c0.6-0.4,1.6-0.8,2.6-0.8
			c1.6,0,2.4,0.9,2.4,2.4v3.6h-0.8l-0.1-0.8h0c-0.6,0.5-1.5,0.9-2.3,0.9C460,67.8,459.1,67.2,459.1,66.2z M463.3,66.1v-1.5
			c-2.5,0.2-3.2,0.7-3.2,1.5c0,0.7,0.6,0.9,1.3,0.9C462,67,462.7,66.7,463.3,66.1z"/>
		<path d="M466.2,67.1c2.6-2.3,4-3.6,4-4.9c0-0.9-0.5-1.5-1.7-1.5c-0.7,0-1.3,0.4-1.8,0.9l-0.6-0.6c0.7-0.7,1.5-1.2,2.5-1.2
			c1.5,0,2.5,0.9,2.5,2.3c0,1.4-1.4,2.9-3.5,4.7c0.5,0,1-0.1,1.4-0.1h2.5v0.9h-5.4V67.1z"/>
		<path d="M480.8,62.1h5.2v0.7h-5.2V62.1z M480.8,64.6h5.2v0.7h-5.2V64.6z"/>
		<path d="M489.6,66.8c0-0.6,0.4-1,1-1s1,0.4,1,1c0,0.6-0.4,1-1,1S489.6,67.4,489.6,66.8z"/>
		<path d="M496.8,66.8c0-0.6,0.4-1,1-1s1,0.4,1,1c0,0.6-0.4,1-1,1S496.8,67.4,496.8,66.8z"/>
		<path d="M504,66.8c0-0.6,0.4-1,1-1c0.5,0,1,0.4,1,1c0,0.6-0.4,1-1,1C504.4,67.8,504,67.4,504,66.8z"/>
		<path d="M423.6,83.7c1.6-1.4,2.4-2.9,2.4-4.9s-0.7-3.6-2.4-4.9l0.6-0.5c1.7,1.3,2.7,3.1,2.7,5.4s-1,4.1-2.7,5.4L423.6,83.7z"/>
	</g>
</g>
</svg>
