<?xml version="1.0" encoding="utf-8"?>
<!-- Generator: Adobe Illustrator 25.4.1, SVG Export Plug-In . SVG Version: 6.00 Build 0)  -->
<svg version="1.1" id="Layer_1" xmlns="http://www.w3.org/2000/svg" xmlns:xlink="http://www.w3.org/1999/xlink" x="0px" y="0px"
	 viewBox="0 0 652 198.4" style="enable-background:new 0 0 652 198.4;" xml:space="preserve">
<style type="text/css">
	.st0{fill:#EDEDED;stroke:#706F6F;stroke-miterlimit:10;}
	.st1{fill:#FFFFFF;stroke:#000000;stroke-width:0.5;stroke-miterlimit:10;}
	.st2{fill:#FFFFFF;stroke:#000000;stroke-miterlimit:10;}
	.st3{font-family:'MyriadPro-Regular';}
	.st4{font-size:12px;}
</style>
<rect x="452" y="15.5" class="st0" width="187.1" height="71.1"/>
<rect x="7.3" y="107" class="st0" width="187.1" height="85.2"/>
<rect x="218" y="128.8" class="st1" width="32.6" height="13.8"/>
<rect x="250.7" y="128.8" class="st1" width="32.6" height="13.8"/>
<rect x="218" y="142.6" class="st1" width="32.6" height="13.8"/>
<rect x="250.7" y="142.6" class="st1" width="32.6" height="13.8"/>
<rect x="218" y="156.3" class="st1" width="32.6" height="13.8"/>
<rect x="250.7" y="156.3" class="st1" width="32.6" height="13.8"/>
<rect x="344.5" y="42.1" class="st1" width="44.7" height="13.8"/>
<rect x="344.5" y="55.9" class="st1" width="44.7" height="13.8"/>
<rect x="218" y="115" class="st2" width="32.6" height="13.8"/>
<text transform="matrix(1 0 0 1 230.6787 125.4315)" class="st3 st4">A</text>
<rect x="250.7" y="115" class="st2" width="32.6" height="13.8"/>
<text transform="matrix(1 0 0 1 263.7073 125.4315)" class="st3 st4">B</text>
<rect x="311.9" y="42.1" class="st2" width="32.6" height="13.8"/>
<text transform="matrix(1 0 0 1 324.503 52.5013)" class="st3 st4">A</text>
<rect x="311.9" y="55.9" class="st2" width="32.6" height="13.8"/>
<text transform="matrix(1 0 0 1 324.9229 66.2695)" class="st3 st4">B</text>
<rect x="344.5" y="28.3" class="st2" width="44.7" height="13.8"/>
<text transform="matrix(1 0 0 1 350.8814 38.7334)" class="st3 st4">meta1</text>
<polyline class="st1" points="389.2,42.1 434,42.1 434,55.9 389.2,55.9 "/>
<polyline class="st1" points="389.2,55.9 434,55.9 434,69.6 389.2,69.6 "/>
<polyline class="st2" points="389.2,28.3 434,28.3 434,42.1 389.2,42.1 "/>
<text transform="matrix(1 0 0 1 395.6174 38.7334)" class="st3 st4">meta2</text>
<path class="st1" d="M217.6,114.4c2.1-9.5,7.2-25.3,20-40.1c27.4-31.5,67.4-32.2,74.3-32.2"/>
<path class="st1" d="M283.8,115c-0.5-4.4-0.7-12.8,3.4-22.1c7-15.8,21.4-22,24.7-23.3"/>
<g>
	<g>
		<path d="M17.5,127.5l3.3-2.2v0l-3.3-2.2v-0.9l4.1,2.8v0.7l-4.1,2.8V127.5z"/>
		<path d="M30.5,121.7h1.8c2.2,0,3.3,1.3,3.3,3.6c0,2.3-1.2,3.6-3.3,3.6h-1.8V121.7z M32.2,128.2c1.6,0,2.5-1.1,2.5-2.9
			c0-1.8-0.8-2.8-2.5-2.8h-0.8v5.7H32.2z"/>
		<path d="M37.6,121.7H42v0.8h-3.5v2.4h3v0.8h-3v3.2h-0.9V121.7z"/>
		<path d="M50.3,123.8H55v0.7h-4.7V123.8z M50.3,126.2H55v0.7h-4.7V126.2z"/>
		<path d="M63.5,121.7h1.8c2.2,0,3.3,1.3,3.3,3.6c0,2.3-1.2,3.6-3.3,3.6h-1.8V121.7z M65.2,128.2c1.6,0,2.5-1.1,2.5-2.9
			c0-1.8-0.8-2.8-2.5-2.8h-0.8v5.7H65.2z"/>
		<path d="M70,127.6c0-1.2,1.1-1.8,3.9-2c0-0.7-0.4-1.3-1.4-1.3c-0.7,0-1.4,0.3-1.9,0.6l-0.4-0.6c0.5-0.4,1.5-0.8,2.4-0.8
			c1.5,0,2.2,0.9,2.2,2.2v3.3H74l-0.1-0.7h0c-0.6,0.5-1.4,0.9-2.1,0.9C70.8,129.1,70,128.5,70,127.6z M73.9,127.6v-1.4
			c-2.3,0.2-3,0.6-3,1.3c0,0.6,0.6,0.8,1.2,0.8C72.7,128.3,73.3,128.1,73.9,127.6z"/>
		<path d="M78,126.9v-2.5h-1.5v-0.7l1.6-0.1l0.1-1.7h0.8v1.7h2.6v0.7h-2.6v2.5c0,1,0.3,1.5,1.4,1.5c0.5,0,0.9-0.1,1.3-0.2l0.2,0.7
			c-0.5,0.2-1,0.3-1.7,0.3C78.5,129.1,78,128.2,78,126.9z"/>
		<path d="M83.2,127.6c0-1.2,1.1-1.8,3.9-2c0-0.7-0.4-1.3-1.4-1.3c-0.7,0-1.4,0.3-1.9,0.6l-0.4-0.6c0.5-0.4,1.5-0.8,2.4-0.8
			c1.5,0,2.2,0.9,2.2,2.2v3.3h-0.8l-0.1-0.7h0c-0.6,0.5-1.4,0.9-2.1,0.9C84,129.1,83.2,128.5,83.2,127.6z M87.1,127.6v-1.4
			c-2.3,0.2-3,0.6-3,1.3c0,0.6,0.6,0.8,1.2,0.8C85.9,128.3,86.5,128.1,87.1,127.6z"/>
		<path d="M90.4,121.7h4.4v0.8h-3.5v2.4h3v0.8h-3v3.2h-0.9V121.7z"/>
		<path d="M97.1,123.6h0.8l0.1,1.3h0c0.6-0.9,1.4-1.4,2.4-1.4c0.4,0,0.7,0.1,1.1,0.2l-0.2,0.8c-0.4-0.1-0.6-0.2-1-0.2
			c-0.8,0-1.6,0.4-2.2,1.5v3.1h-0.9V123.6z"/>
		<path d="M103,127.6c0-1.2,1.1-1.8,3.9-2c0-0.7-0.4-1.3-1.4-1.3c-0.7,0-1.4,0.3-1.9,0.6l-0.4-0.6c0.5-0.4,1.5-0.8,2.4-0.8
			c1.5,0,2.2,0.9,2.2,2.2v3.3H107l-0.1-0.7h0c-0.6,0.5-1.4,0.9-2.1,0.9C103.8,129.1,103,128.5,103,127.6z M106.9,127.6v-1.4
			c-2.3,0.2-3,0.6-3,1.3c0,0.6,0.6,0.8,1.2,0.8C105.7,128.3,106.3,128.1,106.9,127.6z"/>
		<path d="M109.4,123.6h0.7l0.1,0.7h0c0.3-0.5,0.6-0.8,1.2-0.8c0.5,0,0.9,0.3,1,0.9c0.3-0.6,0.6-0.9,1.3-0.9c0.7,0,1.2,0.6,1.2,1.7
			v3.8H114v-3.8c0-0.6-0.2-0.9-0.6-0.9c-0.4,0-0.6,0.3-0.9,0.8v3.9h-0.8v-3.8c0-0.6-0.2-0.9-0.5-0.9c-0.4,0-0.6,0.3-0.9,0.8v3.9
			h-0.9V123.6z"/>
		<path d="M116.1,126.3c0-1.7,1.3-2.8,2.7-2.8c1.5,0,2.4,1,2.4,2.5c0,0.2,0,0.4,0,0.6h-4.5v-0.7h4l-0.2,0.3c0-1.3-0.6-1.9-1.6-1.9
			c-1,0-1.8,0.7-1.8,2.1c0,1.4,0.9,2.1,2.1,2.1c0.6,0,1.1-0.2,1.6-0.5l0.3,0.6c-0.5,0.4-1.2,0.6-2.1,0.6
			C117.3,129.1,116.1,128,116.1,126.3z"/>
		<path d="M124.2,125.9c0-2.1,0.9-3.8,2.5-5l0.5,0.5c-1.5,1.2-2.2,2.7-2.2,4.5c0,1.8,0.7,3.3,2.2,4.5l-0.5,0.5
			C125.1,129.7,124.2,128,124.2,125.9z"/>
		<path d="M32.3,134.9h1.1l2.4,7.2h-1l-1.2-4c-0.3-0.8-0.5-1.6-0.7-2.4h0c-0.2,0.8-0.5,1.6-0.7,2.4l-1.3,4h-0.9L32.3,134.9z
			 M31.2,139.2h3.3v0.7h-3.3V139.2z"/>
		<path d="M43.7,137h4.7v0.7h-4.7V137z M43.7,139.4h4.7v0.7h-4.7V139.4z"/>
		<path d="M58.3,141.3c0-0.6,0.4-0.9,0.9-0.9s0.9,0.4,0.9,0.9c0,0.6-0.4,0.9-0.9,0.9S58.3,141.9,58.3,141.3z"/>
		<path d="M64.9,141.3c0-0.6,0.4-0.9,0.9-0.9s0.9,0.4,0.9,0.9c0,0.6-0.4,0.9-0.9,0.9S64.9,141.9,64.9,141.3z"/>
		<path d="M71.5,141.3c0-0.6,0.4-0.9,0.9-0.9s0.9,0.4,0.9,0.9c0,0.6-0.4,0.9-0.9,0.9S71.5,141.9,71.5,141.3z"/>
		<path d="M77.9,143.9c0.9-0.4,1.4-1,1.4-1.9l-0.2-1l0.6,0.9c-0.2,0.2-0.4,0.3-0.6,0.3c-0.5,0-0.9-0.3-0.9-0.8
			c0-0.5,0.4-0.8,0.9-0.8c0.6,0,1,0.5,1,1.4c0,1.3-0.7,2.2-1.9,2.6L77.9,143.9z"/>
		<path d="M30.6,148.1h2c1.5,0,2.5,0.5,2.5,1.8c0,0.7-0.4,1.4-1.3,1.6v0c1.1,0.2,1.7,0.7,1.7,1.7c0,1.4-1.1,2.1-2.7,2.1h-2.2V148.1z
			 M32.5,151.2c1.2,0,1.7-0.4,1.7-1.2c0-0.8-0.6-1.1-1.7-1.1h-1v2.3H32.5z M32.7,154.6c1.2,0,1.9-0.4,1.9-1.4c0-0.9-0.7-1.3-1.9-1.3
			h-1.2v2.6H32.7z"/>
		<path d="M43.7,150.2h4.7v0.7h-4.7V150.2z M43.7,152.6h4.7v0.7h-4.7V152.6z"/>
		<path d="M51.7,154.5c0-0.6,0.4-0.9,0.9-0.9s0.9,0.4,0.9,0.9c0,0.6-0.4,0.9-0.9,0.9S51.7,155.1,51.7,154.5z"/>
		<path d="M58.3,154.5c0-0.6,0.4-0.9,0.9-0.9s0.9,0.4,0.9,0.9c0,0.6-0.4,0.9-0.9,0.9S58.3,155.1,58.3,154.5z"/>
		<path d="M64.9,154.5c0-0.6,0.4-0.9,0.9-0.9s0.9,0.4,0.9,0.9c0,0.6-0.4,0.9-0.9,0.9S64.9,155.1,64.9,154.5z"/>
		<path d="M71.3,157.1c0.9-0.4,1.4-1,1.4-1.9l-0.2-1l0.6,0.9c-0.2,0.2-0.4,0.3-0.6,0.3c-0.5,0-0.9-0.3-0.9-0.8
			c0-0.5,0.4-0.8,0.9-0.8c0.6,0,1,0.5,1,1.4c0,1.3-0.7,2.2-1.9,2.6L71.3,157.1z"/>
		<path d="M31.1,163.2h0.8l0.1,1.3h0c0.6-0.9,1.4-1.4,2.4-1.4c0.4,0,0.7,0.1,1.1,0.2l-0.2,0.8c-0.4-0.1-0.6-0.2-1-0.2
			c-0.8,0-1.6,0.4-2.2,1.5v3.1h-0.9V163.2z"/>
		<path d="M36.8,165.9c0-1.8,1.2-2.8,2.6-2.8s2.6,1,2.6,2.8c0,1.8-1.2,2.8-2.6,2.8S36.8,167.7,36.8,165.9z M41.1,165.9
			c0-1.2-0.7-2.1-1.7-2.1c-1,0-1.7,0.8-1.7,2.1c0,1.2,0.7,2,1.7,2C40.4,167.9,41.1,167.1,41.1,165.9z"/>
		<path d="M42.8,163.2h0.9l0.6,3.1c0.1,0.5,0.2,1,0.2,1.5h0c0.1-0.5,0.2-1,0.3-1.5l0.7-2.8h0.9l0.6,2.8c0.1,0.5,0.3,1,0.3,1.5h0
			c0.1-0.5,0.1-1,0.2-1.5l0.6-3.1h0.8l-1.1,5.3h-1.2l-0.6-2.6c-0.1-0.4-0.2-0.9-0.3-1.6h0c-0.1,0.7-0.2,1.2-0.3,1.6l-0.6,2.6H44
			L42.8,163.2z"/>
		<path d="M51.7,167.7c0-0.6,0.4-0.9,0.9-0.9s0.9,0.4,0.9,0.9c0,0.6-0.4,0.9-0.9,0.9S51.7,168.3,51.7,167.7z"/>
		<path d="M56.9,163.2h0.7l0.1,0.9h0c0.6-0.6,1.2-1,2-1c1.3,0,1.8,0.7,1.8,2.2v3.3h-0.9v-3.2c0-1-0.4-1.5-1.2-1.5
			c-0.6,0-1.1,0.3-1.7,1v3.7h-0.9V163.2z"/>
		<path d="M63.4,167.2c0-1.2,1.1-1.8,3.9-2c0-0.7-0.4-1.3-1.4-1.3c-0.7,0-1.4,0.3-1.9,0.6l-0.4-0.6c0.5-0.4,1.5-0.8,2.4-0.8
			c1.5,0,2.2,0.9,2.2,2.2v3.3h-0.8l-0.1-0.7h0c-0.6,0.5-1.4,0.9-2.1,0.9C64.2,168.7,63.4,168.1,63.4,167.2z M67.3,167.2v-1.4
			c-2.3,0.2-3,0.6-3,1.3c0,0.6,0.6,0.8,1.2,0.8C66.1,167.9,66.7,167.7,67.3,167.2z"/>
		<path d="M69.8,163.2h0.7l0.1,0.7h0c0.3-0.5,0.6-0.8,1.2-0.8c0.5,0,0.9,0.3,1,0.9c0.3-0.6,0.6-0.9,1.3-0.9c0.7,0,1.2,0.6,1.2,1.7
			v3.8h-0.9v-3.8c0-0.6-0.2-0.9-0.6-0.9c-0.4,0-0.6,0.3-0.9,0.8v3.9h-0.8v-3.8c0-0.6-0.2-0.9-0.5-0.9c-0.4,0-0.6,0.3-0.9,0.8v3.9
			h-0.9V163.2z"/>
		<path d="M76.5,165.9c0-1.7,1.3-2.8,2.7-2.8c1.5,0,2.4,1,2.4,2.5c0,0.2,0,0.4,0,0.6h-4.5v-0.7h4l-0.2,0.3c0-1.3-0.6-1.9-1.6-1.9
			c-1,0-1.8,0.7-1.8,2.1c0,1.4,0.9,2.1,2.1,2.1c0.6,0,1.1-0.2,1.6-0.5l0.3,0.6c-0.5,0.4-1.2,0.6-2.1,0.6
			C77.7,168.7,76.5,167.6,76.5,165.9z"/>
		<path d="M83.1,167.8l0.4-0.6c0.6,0.4,1.3,0.7,2.3,0.7c0.9,0,1.3-0.4,1.3-0.8c0-0.4-0.2-0.7-1.7-1c-1.4-0.3-2.1-0.8-2.1-1.6
			c0-0.9,0.8-1.5,2.2-1.5c0.8,0,1.6,0.3,2.2,0.7l-0.4,0.6c-0.5-0.3-1.1-0.6-1.8-0.6c-0.9,0-1.2,0.4-1.2,0.8c0,0.5,0.5,0.7,1.6,0.9
			c1.8,0.4,2.2,0.8,2.2,1.7c0,0.9-0.8,1.6-2.4,1.6C84.7,168.7,83.8,168.3,83.1,167.8z"/>
		<path d="M96.5,163.4h4.7v0.7h-4.7V163.4z M96.5,165.8h4.7v0.7h-4.7V165.8z"/>
		<path d="M109.6,165.9c0-1.8,1.4-2.8,3-2.8c0.9,0,1.5,0.4,1.9,0.8l-0.5,0.6c-0.4-0.4-0.9-0.6-1.5-0.6c-1.2,0-2.1,0.8-2.1,2.1
			c0,1.2,0.8,2,2.1,2c0.7,0,1.2-0.3,1.7-0.7l0.4,0.6c-0.6,0.5-1.3,0.8-2.1,0.8C110.9,168.7,109.6,167.7,109.6,165.9z"/>
		<path d="M117.6,165.5c0-2.1,0.9-3.8,2.5-5l0.5,0.5c-1.5,1.2-2.2,2.7-2.2,4.5c0,1.8,0.7,3.3,2.2,4.5l-0.5,0.5
			C118.5,169.3,117.6,167.6,117.6,165.5z"/>
		<path d="M123.4,162.2l0-1.2h1.2l0,1.2l-0.3,2.5h-0.6L123.4,162.2z M125.9,162.2l0-1.2h1.2l0,1.2l-0.3,2.5h-0.6L125.9,162.2z"/>
		<path d="M131.3,161.3h1.1l2.4,7.2h-1l-1.2-4c-0.3-0.8-0.5-1.6-0.7-2.4h0c-0.2,0.8-0.5,1.6-0.7,2.4l-1.3,4h-0.9L131.3,161.3z
			 M130.2,165.6h3.3v0.7h-3.3V165.6z"/>
		<path d="M136.6,162.2l0-1.2h1.2l0,1.2l-0.3,2.5h-0.6L136.6,162.2z M139.1,162.2l0-1.2h1.2l0,1.2l-0.3,2.5h-0.6L139.1,162.2z"/>
		<path d="M143.9,170.3c0.9-0.4,1.4-1,1.4-1.9l-0.2-1l0.6,0.9c-0.2,0.2-0.4,0.3-0.6,0.3c-0.5,0-0.9-0.3-0.9-0.8
			c0-0.5,0.4-0.8,0.9-0.8c0.6,0,1,0.5,1,1.4c0,1.3-0.7,2.2-1.9,2.6L143.9,170.3z"/>
		<path d="M156.4,162.2l0-1.2h1.2l0,1.2l-0.3,2.5h-0.6L156.4,162.2z M158.9,162.2l0-1.2h1.2l0,1.2l-0.3,2.5h-0.6L158.9,162.2z"/>
		<path d="M162.6,161.3h2c1.5,0,2.5,0.5,2.5,1.8c0,0.7-0.4,1.4-1.3,1.6v0c1.1,0.2,1.7,0.7,1.7,1.7c0,1.4-1.1,2.1-2.7,2.1h-2.2V161.3
			z M164.5,164.4c1.2,0,1.7-0.4,1.7-1.2c0-0.8-0.6-1.1-1.7-1.1h-1v2.3H164.5z M164.7,167.8c1.2,0,1.9-0.4,1.9-1.4
			c0-0.9-0.7-1.3-1.9-1.3h-1.2v2.6H164.7z"/>
		<path d="M169.6,162.2l0-1.2h1.2l0,1.2l-0.3,2.5h-0.6L169.6,162.2z M172.1,162.2l0-1.2h1.2l0,1.2l-0.3,2.5h-0.6L172.1,162.2z"/>
		<path d="M176.1,170c1.5-1.2,2.2-2.7,2.2-4.5c0-1.8-0.7-3.3-2.2-4.5l0.5-0.5c1.5,1.2,2.5,2.9,2.5,5s-0.9,3.8-2.5,5L176.1,170z"/>
		<path d="M17.7,183.2c1.5-1.2,2.2-2.7,2.2-4.5c0-1.8-0.7-3.3-2.2-4.5l0.5-0.5c1.5,1.2,2.5,2.9,2.5,5s-0.9,3.8-2.5,5L17.7,183.2z"/>
	</g>
</g>
<g>
	<g>
		<path d="M465.4,33.8l3.3-2.2v0l-3.3-2.2v-0.9l4.1,2.8v0.7l-4.1,2.8V33.8z"/>
		<path d="M478.1,29.9h0.7l0.1,0.7h0c0.3-0.5,0.6-0.8,1.2-0.8c0.5,0,0.9,0.3,1,0.9c0.3-0.6,0.6-0.9,1.3-0.9c0.7,0,1.2,0.6,1.2,1.7
			v3.8h-0.9v-3.8c0-0.6-0.2-0.9-0.6-0.9c-0.4,0-0.6,0.3-0.9,0.8v3.9h-0.8v-3.8c0-0.6-0.2-0.9-0.5-0.9c-0.4,0-0.6,0.3-0.9,0.8v3.9
			h-0.9V29.9z"/>
		<path d="M484.9,32.5c0-1.8,1.4-2.8,3-2.8c0.9,0,1.5,0.4,1.9,0.8l-0.5,0.6c-0.4-0.4-0.9-0.6-1.5-0.6c-1.2,0-2.1,0.8-2.1,2.1
			c0,1.2,0.8,2,2.1,2c0.7,0,1.2-0.3,1.7-0.7l0.4,0.6c-0.6,0.5-1.3,0.8-2.1,0.8C486.2,35.3,484.9,34.3,484.9,32.5z"/>
		<path d="M491.3,32.5c0-1.8,1.2-2.8,2.6-2.8s2.6,1,2.6,2.8c0,1.8-1.2,2.8-2.6,2.8S491.3,34.3,491.3,32.5z M495.6,32.5
			c0-1.2-0.7-2.1-1.7-2.1c-1,0-1.7,0.8-1.7,2.1c0,1.2,0.7,2,1.7,2C494.9,34.6,495.6,33.8,495.6,32.5z"/>
		<path d="M499.9,33.4v-5.3H498v-0.7h2.8v6.1c0,0.8,0.4,1.1,1.1,1.1c0.3,0,0.6-0.1,1-0.2l0.2,0.7c-0.5,0.2-0.8,0.3-1.4,0.3
			C500.6,35.3,499.9,34.7,499.9,33.4z"/>
		<path d="M504.6,34.5l0.4-0.6c0.6,0.4,1.3,0.7,2.3,0.7c0.9,0,1.3-0.4,1.3-0.8c0-0.4-0.2-0.7-1.7-1c-1.4-0.3-2.1-0.8-2.1-1.6
			c0-0.9,0.8-1.5,2.2-1.5c0.8,0,1.6,0.3,2.2,0.7l-0.4,0.6c-0.5-0.3-1.1-0.6-1.8-0.6c-0.9,0-1.2,0.4-1.2,0.8c0,0.5,0.5,0.7,1.6,0.9
			c1.8,0.4,2.2,0.8,2.2,1.7c0,0.9-0.8,1.6-2.4,1.6C506.2,35.3,505.3,35,504.6,34.5z"/>
		<path d="M512.7,32.2c0-2.1,0.9-3.8,2.5-5l0.5,0.5c-1.5,1.2-2.2,2.7-2.2,4.5c0,1.8,0.7,3.3,2.2,4.5l-0.5,0.5
			C513.6,36,512.7,34.3,512.7,32.2z"/>
		<path d="M518,28h1.8c2.2,0,3.3,1.3,3.3,3.6c0,2.3-1.2,3.6-3.3,3.6H518V28z M519.7,34.5c1.6,0,2.5-1.1,2.5-2.9
			c0-1.8-0.8-2.8-2.5-2.8h-0.8v5.7H519.7z"/>
		<path d="M525.1,28h4.4v0.8H526v2.4h3V32h-3v3.2h-0.9V28z"/>
		<path d="M531.6,36.7c1.5-1.2,2.2-2.7,2.2-4.5c0-1.8-0.7-3.3-2.2-4.5l0.5-0.5c1.5,1.2,2.5,2.9,2.5,5s-0.9,3.8-2.5,5L531.6,36.7z"/>
		<path d="M544.4,30.1h4.7v0.7h-4.7V30.1z M544.4,32.4h4.7v0.7h-4.7V32.4z"/>
		<path d="M557.6,28h1.8c2.2,0,3.3,1.3,3.3,3.6c0,2.3-1.2,3.6-3.3,3.6h-1.8V28z M559.3,34.5c1.6,0,2.5-1.1,2.5-2.9
			c0-1.8-0.8-2.8-2.5-2.8h-0.8v5.7H559.3z"/>
		<path d="M564.1,33.8c0-1.2,1.1-1.8,3.9-2c0-0.7-0.4-1.3-1.4-1.3c-0.7,0-1.4,0.3-1.9,0.6l-0.4-0.6c0.5-0.4,1.5-0.8,2.4-0.8
			c1.5,0,2.2,0.9,2.2,2.2v3.3h-0.8l-0.1-0.7h0c-0.6,0.5-1.4,0.9-2.1,0.9C564.9,35.3,564.1,34.8,564.1,33.8z M568,33.8v-1.4
			c-2.3,0.2-3,0.6-3,1.3c0,0.6,0.6,0.8,1.2,0.8C566.8,34.6,567.4,34.3,568,33.8z"/>
		<path d="M572.1,33.1v-2.5h-1.5v-0.7l1.6-0.1l0.1-1.7h0.8v1.7h2.6v0.7H573v2.5c0,1,0.3,1.5,1.4,1.5c0.5,0,0.9-0.1,1.3-0.2l0.2,0.7
			c-0.5,0.2-1,0.3-1.7,0.3C572.6,35.3,572.1,34.5,572.1,33.1z"/>
		<path d="M577.3,33.8c0-1.2,1.1-1.8,3.9-2c0-0.7-0.4-1.3-1.4-1.3c-0.7,0-1.4,0.3-1.9,0.6l-0.4-0.6c0.5-0.4,1.5-0.8,2.4-0.8
			c1.5,0,2.2,0.9,2.2,2.2v3.3h-0.8l-0.1-0.7h0c-0.6,0.5-1.4,0.9-2.1,0.9C578.1,35.3,577.3,34.8,577.3,33.8z M581.2,33.8v-1.4
			c-2.3,0.2-3,0.6-3,1.3c0,0.6,0.5,0.8,1.2,0.8C580,34.6,580.6,34.3,581.2,33.8z"/>
		<path d="M584.5,28h4.4v0.8h-3.5v2.4h3V32h-3v3.2h-0.9V28z"/>
		<path d="M591.2,29.9h0.8l0.1,1.3h0c0.6-0.9,1.4-1.4,2.4-1.4c0.4,0,0.7,0.1,1.1,0.2l-0.2,0.8c-0.4-0.1-0.6-0.2-1-0.2
			c-0.8,0-1.6,0.4-2.2,1.5v3.1h-0.9V29.9z"/>
		<path d="M597.1,33.8c0-1.2,1.1-1.8,3.9-2c0-0.7-0.4-1.3-1.4-1.3c-0.7,0-1.4,0.3-1.9,0.6l-0.4-0.6c0.5-0.4,1.5-0.8,2.4-0.8
			c1.5,0,2.2,0.9,2.2,2.2v3.3h-0.8l-0.1-0.7h0c-0.6,0.5-1.4,0.9-2.1,0.9C597.9,35.3,597.1,34.8,597.1,33.8z M601,33.8v-1.4
			c-2.3,0.2-3,0.6-3,1.3c0,0.6,0.5,0.8,1.2,0.8C599.8,34.6,600.4,34.3,601,33.8z"/>
		<path d="M603.5,29.9h0.7l0.1,0.7h0c0.3-0.5,0.6-0.8,1.2-0.8c0.5,0,0.9,0.3,1,0.9c0.3-0.6,0.6-0.9,1.3-0.9c0.7,0,1.2,0.6,1.2,1.7
			v3.8h-0.9v-3.8c0-0.6-0.2-0.9-0.6-0.9c-0.4,0-0.6,0.3-0.9,0.8v3.9h-0.8v-3.8c0-0.6-0.2-0.9-0.5-0.9c-0.4,0-0.6,0.3-0.9,0.8v3.9
			h-0.9V29.9z"/>
		<path d="M610.2,32.5c0-1.7,1.3-2.8,2.7-2.8c1.5,0,2.4,1,2.4,2.5c0,0.2,0,0.4,0,0.6h-4.5v-0.7h4l-0.2,0.3c0-1.3-0.6-1.9-1.6-1.9
			c-1,0-1.8,0.7-1.8,2.1c0,1.4,0.9,2.1,2.1,2.1c0.6,0,1.1-0.2,1.6-0.5l0.3,0.6c-0.5,0.4-1.2,0.6-2.1,0.6
			C611.4,35.3,610.2,34.3,610.2,32.5z"/>
		<path d="M618.3,32.2c0-2.1,0.9-3.8,2.5-5l0.5,0.5c-1.5,1.2-2.2,2.7-2.2,4.5c0,1.8,0.7,3.3,2.2,4.5l-0.5,0.5
			C619.2,36,618.3,34.3,618.3,32.2z"/>
		<path d="M478.1,43.1h0.7l0.1,0.7h0c0.3-0.5,0.6-0.8,1.2-0.8c0.5,0,0.9,0.3,1,0.9c0.3-0.6,0.6-0.9,1.3-0.9c0.7,0,1.2,0.6,1.2,1.7
			v3.8h-0.9v-3.8c0-0.6-0.2-0.9-0.6-0.9c-0.4,0-0.6,0.3-0.9,0.8v3.9h-0.8v-3.8c0-0.6-0.2-0.9-0.5-0.9c-0.4,0-0.6,0.3-0.9,0.8v3.9
			h-0.9V43.1z"/>
		<path d="M484.8,45.7c0-1.7,1.3-2.8,2.7-2.8c1.5,0,2.4,1,2.4,2.5c0,0.2,0,0.4,0,0.6h-4.5v-0.7h4l-0.2,0.3c0-1.3-0.6-1.9-1.6-1.9
			c-1,0-1.8,0.7-1.8,2.1c0,1.4,0.9,2.1,2.1,2.1c0.6,0,1.1-0.2,1.6-0.5l0.3,0.6c-0.5,0.4-1.2,0.6-2.1,0.6
			C486.1,48.5,484.8,47.5,484.8,45.7z"/>
		<path d="M492.9,46.3v-2.5h-1.5v-0.7l1.6-0.1l0.1-1.7h0.8v1.7h2.6v0.7h-2.6v2.5c0,1,0.3,1.5,1.4,1.5c0.5,0,0.9-0.1,1.3-0.2l0.2,0.7
			c-0.5,0.2-1,0.3-1.7,0.3C493.4,48.5,492.9,47.7,492.9,46.3z"/>
		<path d="M498.1,47c0-1.2,1.1-1.8,3.9-2c0-0.7-0.4-1.3-1.4-1.3c-0.7,0-1.4,0.3-1.9,0.6l-0.4-0.6c0.5-0.4,1.5-0.8,2.4-0.8
			c1.5,0,2.2,0.9,2.2,2.2v3.3h-0.8l-0.1-0.7h0c-0.6,0.5-1.4,0.9-2.1,0.9C498.9,48.5,498.1,48,498.1,47z M502,47v-1.4
			c-2.3,0.2-3,0.6-3,1.3c0,0.6,0.6,0.8,1.2,0.8C500.8,47.8,501.4,47.5,502,47z"/>
		<path d="M504.9,47.7h2v-5.1h-1.6v-0.6c0.8-0.1,1.4-0.3,1.8-0.5h0.7v6.3h1.8v0.8h-4.8V47.7z"/>
		<path d="M518,43.3h4.7v0.7H518V43.3z M518,45.6h4.7v0.7H518V45.6z"/>
		<path d="M532.6,47.6c0-0.6,0.4-0.9,0.9-0.9s0.9,0.4,0.9,0.9c0,0.6-0.4,0.9-0.9,0.9S532.6,48.2,532.6,47.6z"/>
		<path d="M539.2,47.6c0-0.6,0.4-0.9,0.9-0.9s0.9,0.4,0.9,0.9c0,0.6-0.4,0.9-0.9,0.9S539.2,48.2,539.2,47.6z"/>
		<path d="M545.8,47.6c0-0.6,0.4-0.9,0.9-0.9s0.9,0.4,0.9,0.9c0,0.6-0.4,0.9-0.9,0.9S545.8,48.2,545.8,47.6z"/>
		<path d="M552.2,50.2c0.9-0.4,1.4-1,1.4-1.9l-0.2-1l0.6,0.9c-0.2,0.2-0.4,0.3-0.6,0.3c-0.5,0-0.9-0.3-0.9-0.8
			c0-0.5,0.4-0.8,0.9-0.8c0.6,0,1,0.5,1,1.4c0,1.3-0.7,2.2-1.9,2.6L552.2,50.2z"/>
		<path d="M478.1,56.3h0.7l0.1,0.7h0c0.3-0.5,0.6-0.8,1.2-0.8c0.5,0,0.9,0.3,1,0.9c0.3-0.6,0.6-0.9,1.3-0.9c0.7,0,1.2,0.6,1.2,1.7
			v3.8h-0.9v-3.8c0-0.6-0.2-0.9-0.6-0.9c-0.4,0-0.6,0.3-0.9,0.8v3.9h-0.8v-3.8c0-0.6-0.2-0.9-0.5-0.9c-0.4,0-0.6,0.3-0.9,0.8v3.9
			h-0.9V56.3z"/>
		<path d="M484.8,58.9c0-1.7,1.3-2.8,2.7-2.8c1.5,0,2.4,1,2.4,2.5c0,0.2,0,0.4,0,0.6h-4.5v-0.7h4l-0.2,0.3c0-1.3-0.6-1.9-1.6-1.9
			c-1,0-1.8,0.7-1.8,2.1c0,1.4,0.9,2.1,2.1,2.1c0.6,0,1.1-0.2,1.6-0.5l0.3,0.6c-0.5,0.4-1.2,0.6-2.1,0.6
			C486.1,61.7,484.8,60.7,484.8,58.9z"/>
		<path d="M492.9,59.5V57h-1.5v-0.7l1.6-0.1l0.1-1.7h0.8v1.7h2.6V57h-2.6v2.5c0,1,0.3,1.5,1.4,1.5c0.5,0,0.9-0.1,1.3-0.2l0.2,0.7
			c-0.5,0.2-1,0.3-1.7,0.3C493.4,61.7,492.9,60.9,492.9,59.5z"/>
		<path d="M498.1,60.2c0-1.2,1.1-1.8,3.9-2c0-0.7-0.4-1.3-1.4-1.3c-0.7,0-1.4,0.3-1.9,0.6l-0.4-0.6c0.5-0.4,1.5-0.8,2.4-0.8
			c1.5,0,2.2,0.9,2.2,2.2v3.3h-0.8l-0.1-0.7h0c-0.6,0.5-1.4,0.9-2.1,0.9C498.9,61.7,498.1,61.2,498.1,60.2z M502,60.2v-1.4
			c-2.3,0.2-3,0.6-3,1.3c0,0.6,0.6,0.8,1.2,0.8C500.8,61,501.4,60.7,502,60.2z"/>
		<path d="M504.6,61.1c2.4-2.1,3.7-3.3,3.7-4.5c0-0.8-0.5-1.4-1.5-1.4c-0.7,0-1.2,0.4-1.7,0.8l-0.5-0.5c0.6-0.6,1.3-1.1,2.3-1.1
			c1.4,0,2.3,0.8,2.3,2.1c0,1.3-1.3,2.6-3.2,4.4c0.4,0,0.9-0.1,1.3-0.1h2.3v0.8h-4.9V61.1z"/>
		<path d="M518,56.5h4.7v0.7H518V56.5z M518,58.8h4.7v0.7H518V58.8z"/>
		<path d="M526,60.8c0-0.6,0.4-0.9,0.9-0.9s0.9,0.4,0.9,0.9c0,0.6-0.4,0.9-0.9,0.9S526,61.4,526,60.8z"/>
		<path d="M532.6,60.8c0-0.6,0.4-0.9,0.9-0.9s0.9,0.4,0.9,0.9c0,0.6-0.4,0.9-0.9,0.9S532.6,61.4,532.6,60.8z"/>
		<path d="M539.2,60.8c0-0.6,0.4-0.9,0.9-0.9s0.9,0.4,0.9,0.9c0,0.6-0.4,0.9-0.9,0.9S539.2,61.4,539.2,60.8z"/>
		<path d="M465.6,76.3c1.5-1.2,2.2-2.7,2.2-4.5c0-1.8-0.7-3.3-2.2-4.5l0.5-0.5c1.5,1.2,2.5,2.9,2.5,5s-0.9,3.8-2.5,5L465.6,76.3z"/>
	</g>
</g>
</svg>
