<svg id="Layer_1" data-name="Layer 1" xmlns="http://www.w3.org/2000/svg" viewBox="0 0 887.74 253.67"><defs><style>.cls-1,.cls-13,.cls-14,.cls-4{fill:none;}.cls-1,.cls-3,.cls-4,.cls-5{stroke:#1d1d1b;}.cls-1{stroke-linecap:square;}.cls-1,.cls-13,.cls-14,.cls-3,.cls-4,.cls-5{stroke-miterlimit:10;}.cls-2,.cls-6,.cls-7{fill:#1d1d1b;}.cls-3{fill:#98d6f2;}.cls-3,.cls-4,.cls-5{stroke-width:0.75px;}.cls-5{fill:#fbddea;}.cls-6{font-size:12px;}.cls-6,.cls-7{font-family:MyriadPro-Regular, Myriad Pro;}.cls-7{font-size:8px;}.cls-8{letter-spacing:0em;}.cls-9{letter-spacing:-0.02em;}.cls-10{letter-spacing:-0.01em;}.cls-11{letter-spacing:0em;}.cls-12{letter-spacing:0em;}.cls-13{stroke:#98d6f2;}.cls-14{stroke:#fbddea;}</style></defs><line class="cls-1" x1="208.89" y1="139.5" x2="672.04" y2="139.5"/><polygon class="cls-2" points="670.58 144.49 679.22 139.5 670.58 134.52 670.58 144.49"/><path class="cls-2" d="M209.92,130.43a1,1,0,1,1,1,1A1,1,0,0,1,209.92,130.43Z"/><path class="cls-2" d="M217.12,130.43a1,1,0,1,1,1,1A1,1,0,0,1,217.12,130.43Z"/><path class="cls-2" d="M224.32,130.43a1,1,0,1,1,1,1A1,1,0,0,1,224.32,130.43Z"/><path class="cls-2" d="M231.92,123.44h1.15l2.65,7.87h-1.08l-1.36-4.39c-.27-.87-.54-1.74-.78-2.65h0c-.26.91-.51,1.78-.78,2.65l-1.38,4.39h-1Zm-1.25,4.67h3.61v.81h-3.61Z"/><path class="cls-2" d="M239.19,124.29h-2.61v-.85h6.22v.85h-2.61v7h-1Z"/><path class="cls-2" d="M244.07,127.38c0-2.53,1.48-4.08,3.53-4.08a2.93,2.93,0,0,1,2.16,1l-.58.63a2.11,2.11,0,0,0-1.58-.7c-1.5,0-2.48,1.21-2.48,3.16s1,3.22,2.48,3.22a2.27,2.27,0,0,0,1.76-.87l.58.61a3,3,0,0,1-2.44,1.14C245.56,131.45,244.07,129.94,244.07,127.38Z"/><path class="cls-2" d="M251.13,127.38c0-2.55,1.45-4.08,3.49-4.08a2.88,2.88,0,0,1,2.17,1l-.58.63a2.06,2.06,0,0,0-1.59-.7c-1.48,0-2.44,1.21-2.44,3.16s.88,3.22,2.41,3.22a2,2,0,0,0,1.36-.46v-2.05h-1.56v-.83h2.5v3.31a3.32,3.32,0,0,1-2.36.91C252.56,131.45,251.13,129.94,251.13,127.38Z"/><path class="cls-2" d="M258.47,127.38c0-2.53,1.48-4.08,3.53-4.08a2.93,2.93,0,0,1,2.16,1l-.58.63a2.11,2.11,0,0,0-1.58-.7c-1.5,0-2.48,1.21-2.48,3.16s1,3.22,2.48,3.22a2.27,2.27,0,0,0,1.76-.87l.58.61a3,3,0,0,1-2.44,1.14C260,131.45,258.47,129.94,258.47,127.38Z"/><path class="cls-2" d="M268,124.29h-2.61v-.85h6.22v.85H269v7h-1Z"/><path class="cls-2" d="M272.87,127.38c0-2.53,1.48-4.08,3.53-4.08a2.93,2.93,0,0,1,2.16,1l-.58.63a2.11,2.11,0,0,0-1.58-.7c-1.5,0-2.48,1.21-2.48,3.16s1,3.22,2.48,3.22a2.27,2.27,0,0,0,1.76-.87l.58.61a3.05,3.05,0,0,1-2.44,1.14C274.36,131.45,272.87,129.94,272.87,127.38Z"/><path class="cls-2" d="M279.93,127.38c0-2.55,1.45-4.08,3.49-4.08a2.9,2.9,0,0,1,2.17,1l-.58.63a2.06,2.06,0,0,0-1.59-.7c-1.48,0-2.44,1.21-2.44,3.16s.88,3.22,2.41,3.22a2,2,0,0,0,1.36-.46v-2.05h-1.56v-.83h2.5v3.31a3.32,3.32,0,0,1-2.36.91C281.36,131.45,279.93,129.94,279.93,127.38Z"/><path class="cls-2" d="M287.27,127.38c0-2.53,1.48-4.08,3.53-4.08a2.93,2.93,0,0,1,2.16,1l-.58.63a2.11,2.11,0,0,0-1.58-.7c-1.5,0-2.49,1.21-2.49,3.16s1,3.22,2.49,3.22a2.27,2.27,0,0,0,1.76-.87l.58.61a3.05,3.05,0,0,1-2.44,1.14C288.76,131.45,287.27,129.94,287.27,127.38Z"/><path class="cls-2" d="M296.79,124.29h-2.61v-.85h6.22v.85h-2.61v7h-1Z"/><path class="cls-2" d="M301.67,127.38c0-2.53,1.48-4.08,3.53-4.08a3,3,0,0,1,2.16,1l-.58.63a2.11,2.11,0,0,0-1.58-.7c-1.5,0-2.48,1.21-2.48,3.16s1,3.22,2.48,3.22a2.27,2.27,0,0,0,1.76-.87l.58.61a3.07,3.07,0,0,1-2.44,1.14C303.16,131.45,301.67,129.94,301.67,127.38Z"/><path class="cls-2" d="M308.73,127.38c0-2.55,1.45-4.08,3.49-4.08a2.9,2.9,0,0,1,2.17,1l-.58.63a2.06,2.06,0,0,0-1.59-.7c-1.48,0-2.44,1.21-2.44,3.16s.88,3.22,2.41,3.22a2,2,0,0,0,1.36-.46v-2.05H312v-.83h2.49v3.31a3.27,3.27,0,0,1-2.35.91C310.15,131.45,308.73,129.94,308.73,127.38Z"/><path class="cls-2" d="M316.07,127.38c0-2.53,1.48-4.08,3.53-4.08a3,3,0,0,1,2.16,1l-.58.63a2.11,2.11,0,0,0-1.58-.7c-1.5,0-2.49,1.21-2.49,3.16s1,3.22,2.49,3.22a2.27,2.27,0,0,0,1.76-.87l.58.61a3.07,3.07,0,0,1-2.44,1.14C317.56,131.45,316.07,129.94,316.07,127.38Z"/><path class="cls-2" d="M325.59,124.29H323v-.85h6.22v.85h-2.61v7h-1Z"/><path class="cls-2" d="M330.47,127.38c0-2.53,1.48-4.08,3.53-4.08a3,3,0,0,1,2.16,1l-.58.63a2.11,2.11,0,0,0-1.58-.7c-1.5,0-2.49,1.21-2.49,3.16s1,3.22,2.49,3.22a2.27,2.27,0,0,0,1.76-.87l.58.61a3.07,3.07,0,0,1-2.44,1.14C332,131.45,330.47,129.94,330.47,127.38Z"/><path class="cls-2" d="M337.53,127.38c0-2.55,1.45-4.08,3.49-4.08a2.9,2.9,0,0,1,2.17,1l-.58.63a2.06,2.06,0,0,0-1.59-.7c-1.48,0-2.44,1.21-2.44,3.16s.88,3.22,2.41,3.22a2,2,0,0,0,1.36-.46v-2.05h-1.56v-.83h2.49v3.31a3.27,3.27,0,0,1-2.35.91C339,131.45,337.53,129.94,337.53,127.38Z"/><path class="cls-2" d="M344.87,127.38c0-2.53,1.48-4.08,3.53-4.08a3,3,0,0,1,2.16,1l-.58.63a2.11,2.11,0,0,0-1.58-.7c-1.5,0-2.49,1.21-2.49,3.16s1,3.22,2.49,3.22a2.27,2.27,0,0,0,1.76-.87l.58.61a3.07,3.07,0,0,1-2.44,1.14C346.36,131.45,344.87,129.94,344.87,127.38Z"/><path class="cls-2" d="M354.39,124.29h-2.61v-.85H358v.85h-2.61v7h-1Z"/><path class="cls-2" d="M359.13,127.38c0-2.55,1.45-4.08,3.49-4.08a2.9,2.9,0,0,1,2.17,1l-.58.63a2.06,2.06,0,0,0-1.59-.7c-1.48,0-2.44,1.21-2.44,3.16s.88,3.22,2.41,3.22a2,2,0,0,0,1.36-.46v-2.05h-1.56v-.83h2.49v3.31a3.27,3.27,0,0,1-2.35.91C360.55,131.45,359.13,129.94,359.13,127.38Z"/><path class="cls-2" d="M366.47,127.38c0-2.53,1.48-4.08,3.53-4.08a3,3,0,0,1,2.16,1l-.58.63a2.11,2.11,0,0,0-1.58-.7c-1.5,0-2.49,1.21-2.49,3.16s1,3.22,2.49,3.22a2.27,2.27,0,0,0,1.76-.87l.58.61a3.07,3.07,0,0,1-2.44,1.14C368,131.45,366.47,129.94,366.47,127.38Z"/><path class="cls-2" d="M373.53,127.38c0-2.55,1.45-4.08,3.49-4.08a2.9,2.9,0,0,1,2.17,1l-.58.63a2.06,2.06,0,0,0-1.59-.7c-1.48,0-2.44,1.21-2.44,3.16s.88,3.22,2.41,3.22a2,2,0,0,0,1.36-.46v-2.05h-1.56v-.83h2.49v3.31a3.27,3.27,0,0,1-2.35.91C375,131.45,373.53,129.94,373.53,127.38Z"/><path class="cls-2" d="M380.73,127.38c0-2.55,1.45-4.08,3.49-4.08a2.9,2.9,0,0,1,2.17,1l-.58.63a2.06,2.06,0,0,0-1.59-.7c-1.48,0-2.44,1.21-2.44,3.16s.88,3.22,2.41,3.22a2,2,0,0,0,1.36-.46v-2.05H384v-.83h2.49v3.31a3.27,3.27,0,0,1-2.35.91C382.15,131.45,380.73,129.94,380.73,127.38Z"/><path class="cls-2" d="M388.07,127.38c0-2.53,1.48-4.08,3.53-4.08a2.9,2.9,0,0,1,2.15,1l-.57.63a2.11,2.11,0,0,0-1.58-.7c-1.5,0-2.49,1.21-2.49,3.16s1,3.22,2.49,3.22a2.27,2.27,0,0,0,1.76-.87l.58.61a3.07,3.07,0,0,1-2.44,1.14C389.56,131.45,388.07,129.94,388.07,127.38Z"/><path class="cls-2" d="M397.58,124.29H395v-.85h6.21v.85h-2.6v7h-1Z"/><path class="cls-2" d="M402.47,127.38c0-2.53,1.48-4.08,3.53-4.08a2.9,2.9,0,0,1,2.15,1l-.57.63a2.11,2.11,0,0,0-1.58-.7c-1.5,0-2.49,1.21-2.49,3.16s1,3.22,2.49,3.22a2.27,2.27,0,0,0,1.76-.87l.57.61a3,3,0,0,1-2.43,1.14C404,131.45,402.47,129.94,402.47,127.38Z"/><path class="cls-2" d="M412,124.29h-2.6v-.85h6.21v.85H413v7h-1Z"/><path class="cls-2" d="M416.87,127.38c0-2.53,1.47-4.08,3.53-4.08a2.9,2.9,0,0,1,2.15,1l-.57.63a2.11,2.11,0,0,0-1.58-.7c-1.5,0-2.49,1.21-2.49,3.16s1,3.22,2.49,3.22a2.27,2.27,0,0,0,1.76-.87l.57.61a3,3,0,0,1-2.43,1.14C418.36,131.45,416.87,129.94,416.87,127.38Z"/><path class="cls-2" d="M426.38,124.29h-2.6v-.85H430v.85h-2.6v7h-1Z"/><path class="cls-2" d="M433.51,123.44h1.15l2.65,7.87h-1.08l-1.35-4.39c-.28-.87-.54-1.74-.78-2.65h-.05c-.25.91-.5,1.78-.78,2.65l-1.38,4.39h-1Zm-1.25,4.67h3.61v.81h-3.61Z"/><path class="cls-2" d="M440.78,124.29h-2.6v-.85h6.21v.85h-2.6v7h-1Z"/><path class="cls-2" d="M447.91,123.44h1.15l2.65,7.87h-1.08l-1.35-4.39c-.28-.87-.54-1.74-.78-2.65h-.05c-.25.91-.5,1.78-.78,2.65l-1.38,4.39h-1Zm-1.24,4.67h3.6v.81h-3.6Z"/><path class="cls-2" d="M455.11,123.44h1.15l2.65,7.87h-1.08l-1.35-4.39c-.28-.87-.54-1.74-.78-2.65h-.05c-.25.91-.5,1.78-.78,2.65l-1.38,4.39h-1Zm-1.25,4.67h3.61v.81h-3.61Z"/><path class="cls-2" d="M462.31,123.44h1.15l2.65,7.87H465l-1.35-4.39c-.28-.87-.54-1.74-.78-2.65h0c-.25.91-.5,1.78-.78,2.65l-1.38,4.39h-1Zm-1.25,4.67h3.61v.81h-3.61Z"/><path class="cls-2" d="M469.58,124.29H467v-.85h6.21v.85h-2.6v7h-1Z"/><path class="cls-2" d="M476.71,123.44h1.15l2.65,7.87h-1.08l-1.35-4.39c-.28-.87-.54-1.74-.78-2.65h-.05c-.25.91-.5,1.78-.78,2.65l-1.38,4.39h-1Zm-1.25,4.67h3.61v.81h-3.61Z"/><path class="cls-2" d="M483.91,123.44h1.15l2.65,7.87h-1.08l-1.35-4.39c-.28-.87-.54-1.74-.78-2.65h-.05c-.25.91-.5,1.78-.78,2.65l-1.38,4.39h-1Zm-1.25,4.67h3.61v.81h-3.61Z"/><path class="cls-2" d="M491.18,124.29h-2.6v-.85h6.21v.85h-2.6v7h-1Z"/><path class="cls-2" d="M496.07,127.38c0-2.53,1.47-4.08,3.52-4.08a2.91,2.91,0,0,1,2.16,1l-.57.63a2.13,2.13,0,0,0-1.59-.7c-1.5,0-2.48,1.21-2.48,3.16s1,3.22,2.48,3.22a2.29,2.29,0,0,0,1.77-.87l.57.61a3,3,0,0,1-2.43,1.14C497.55,131.45,496.07,129.94,496.07,127.38Z"/><path class="cls-2" d="M505.58,124.29H503v-.85h6.21v.85h-2.6v7h-1Z"/><path class="cls-2" d="M510.47,127.38c0-2.53,1.47-4.08,3.52-4.08a2.91,2.91,0,0,1,2.16,1l-.57.63a2.13,2.13,0,0,0-1.59-.7c-1.49,0-2.48,1.21-2.48,3.16s1,3.22,2.48,3.22a2.29,2.29,0,0,0,1.77-.87l.57.61a3,3,0,0,1-2.43,1.14C512,131.45,510.47,129.94,510.47,127.38Z"/><path class="cls-2" d="M520,124.29h-2.6v-.85h6.21v.85H521v7h-1Z"/><path class="cls-2" d="M527.11,123.44h1.15l2.65,7.87h-1.08l-1.35-4.39c-.28-.87-.54-1.74-.78-2.65h-.05c-.25.91-.5,1.78-.78,2.65l-1.38,4.39h-1Zm-1.25,4.67h3.61v.81h-3.61Z"/><path class="cls-2" d="M534.38,124.29h-2.6v-.85H538v.85h-2.6v7h-1Z"/><path class="cls-2" d="M541.51,123.44h1.15l2.65,7.87h-1.08l-1.35-4.39c-.28-.87-.54-1.74-.78-2.65h-.05c-.25.91-.5,1.78-.78,2.65l-1.38,4.39h-1Zm-1.25,4.67h3.61v.81h-3.61Z"/><path class="cls-2" d="M548.78,124.29h-2.6v-.85h6.21v.85h-2.6v7h-1Z"/><path class="cls-2" d="M555.91,123.44h1.15l2.65,7.87h-1.08l-1.35-4.39c-.28-.87-.54-1.74-.78-2.65h0c-.25.91-.5,1.78-.78,2.65l-1.38,4.39h-1Zm-1.25,4.67h3.61v.81h-3.61Z"/><path class="cls-2" d="M560.72,127.38c0-2.55,1.45-4.08,3.49-4.08a2.87,2.87,0,0,1,2.17,1l-.57.63a2.06,2.06,0,0,0-1.6-.7c-1.47,0-2.43,1.21-2.43,3.16s.87,3.22,2.41,3.22a1.93,1.93,0,0,0,1.35-.46v-2.05H564v-.83h2.49v3.31a3.27,3.27,0,0,1-2.35.91C562.15,131.45,560.72,129.94,560.72,127.38Z"/><path class="cls-2" d="M570.31,123.44h1.15l2.65,7.87H573l-1.35-4.39c-.28-.87-.54-1.74-.78-2.65h0c-.25.91-.5,1.78-.78,2.65l-1.38,4.39h-1Zm-1.25,4.67h3.61v.81h-3.61Z"/><path class="cls-2" d="M577.58,124.29H575v-.85h6.21v.85h-2.6v7h-1Z"/><path class="cls-2" d="M584.71,123.44h1.15l2.65,7.87h-1.08l-1.35-4.39c-.28-.87-.54-1.74-.78-2.65h0c-.25.91-.5,1.78-.78,2.65l-1.38,4.39h-1Zm-1.25,4.67h3.61v.81h-3.61Z"/><path class="cls-2" d="M592,124.29h-2.6v-.85h6.21v.85H593v7h-1Z"/><path class="cls-2" d="M599.11,123.44h1.15l2.65,7.87h-1.08l-1.35-4.39c-.28-.87-.54-1.74-.78-2.65h-.05c-.25.91-.5,1.78-.78,2.65l-1.38,4.39h-1Zm-1.25,4.67h3.61v.81h-3.61Z"/><path class="cls-2" d="M606.38,124.29h-2.6v-.85H610v.85h-2.6v7h-1Z"/><path class="cls-2" d="M613.51,123.44h1.15l2.65,7.87h-1.08l-1.35-4.39c-.28-.87-.54-1.74-.78-2.65h-.05c-.25.91-.5,1.78-.78,2.65l-1.38,4.39h-1Zm-1.25,4.67h3.61v.81h-3.61Z"/><path class="cls-2" d="M620.71,123.44h1.15l2.65,7.87h-1.08l-1.35-4.39c-.28-.87-.54-1.74-.78-2.65h0c-.25.91-.5,1.78-.78,2.65l-1.38,4.39h-1Zm-1.25,4.67h3.61v.81h-3.61Z"/><path class="cls-2" d="M627.91,123.44h1.15l2.65,7.87h-1.08l-1.35-4.39c-.28-.87-.54-1.74-.78-2.65h0c-.25.91-.5,1.78-.78,2.65l-1.38,4.39h-1Zm-1.25,4.67h3.61v.81h-3.61Z"/><path class="cls-2" d="M635.11,123.44h1.15l2.65,7.87h-1.08l-1.35-4.39c-.28-.87-.54-1.74-.78-2.65h-.05c-.25.91-.5,1.78-.78,2.65l-1.38,4.39h-1Zm-1.25,4.67h3.61v.81h-3.61Z"/><path class="cls-2" d="M639.92,127.38c0-2.55,1.45-4.08,3.49-4.08a2.87,2.87,0,0,1,2.17,1l-.57.63a2.08,2.08,0,0,0-1.6-.7c-1.47,0-2.43,1.21-2.43,3.16s.87,3.22,2.41,3.22a1.93,1.93,0,0,0,1.35-.46v-2.05h-1.56v-.83h2.5v3.31a3.27,3.27,0,0,1-2.35.91C641.35,131.45,639.92,129.94,639.92,127.38Z"/><path class="cls-2" d="M649.58,124.29H647v-.85h6.21v.85h-2.6v7h-1Z"/><path class="cls-2" d="M656.71,123.44h1.15l2.65,7.87h-1.08l-1.35-4.39c-.28-.87-.54-1.74-.78-2.65h0c-.25.91-.5,1.78-.78,2.65l-1.38,4.39h-1Zm-1.25,4.67h3.61v.81h-3.61Z"/><path class="cls-2" d="M661.52,127.38c0-2.55,1.45-4.08,3.49-4.08a2.88,2.88,0,0,1,2.17,1l-.57.63a2.08,2.08,0,0,0-1.6-.7c-1.47,0-2.43,1.21-2.43,3.16s.87,3.22,2.41,3.22a2,2,0,0,0,1.35-.46v-2.05h-1.56v-.83h2.5v3.31a3.27,3.27,0,0,1-2.35.91C663,131.45,661.52,129.94,661.52,127.38Z"/><path class="cls-2" d="M670.71,130.43a1,1,0,1,1,1,1A1,1,0,0,1,670.71,130.43Z"/><path class="cls-2" d="M677.91,130.43a1,1,0,1,1,1,1A1,1,0,0,1,677.91,130.43Z"/><path class="cls-2" d="M685.11,130.43a1,1,0,1,1,1,1A1,1,0,0,1,685.11,130.43Z"/><rect class="cls-3" x="228.45" y="74.99" width="84.23" height="10.83"/><line class="cls-4" x1="312.67" y1="80.4" x2="359.04" y2="80.4"/><polygon class="cls-2" points="358.22 83.21 363.08 80.4 358.22 77.6 358.22 83.21"/><rect class="cls-3" x="363.08" y="74.99" width="84.23" height="10.83"/><line class="cls-4" x1="312.2" y1="100.14" x2="358.74" y2="100.14"/><polygon class="cls-2" points="357.92 102.94 362.78 100.14 357.92 97.33 357.92 102.94"/><rect class="cls-3" x="250.52" y="94.72" width="61.68" height="10.83"/><rect class="cls-3" x="362.78" y="94.72" width="84.52" height="10.83"/><rect class="cls-5" x="487.72" y="153.72" width="24.51" height="10.83"/><line class="cls-4" x1="516.27" y1="159.14" x2="609.04" y2="159.14"/><polygon class="cls-2" points="517.09 161.94 512.23 159.14 517.09 156.33 517.09 161.94"/><rect class="cls-5" x="609.04" y="153.72" width="36.86" height="10.83"/><line class="cls-4" x1="515.79" y1="178.87" x2="562.34" y2="178.87"/><polygon class="cls-2" points="516.62 181.67 511.76 178.87 516.62 176.06 516.62 181.67"/><rect class="cls-5" x="500.93" y="173.46" width="10.83" height="10.83"/><rect class="cls-5" x="562.34" y="173.46" width="25.21" height="10.83"/><line class="cls-4" x1="591.58" y1="178.87" x2="609.04" y2="178.87"/><polygon class="cls-2" points="592.4 181.67 587.54 178.87 592.4 176.06 592.4 181.67"/><rect class="cls-5" x="609.04" y="173.46" width="36.86" height="10.83"/><text class="cls-6" transform="translate(722.71 139.62)">chr1</text><text class="cls-7" transform="translate(260.31 82.75)"><tspan class="cls-8">e</tspan><tspan class="cls-9" x="3.98" y="0">x</tspan><tspan x="7.57" y="0">on1</tspan></text><text class="cls-7" transform="translate(394.94 82.75)"><tspan class="cls-8">e</tspan><tspan class="cls-9" x="3.98" y="0">x</tspan><tspan x="7.57" y="0">on2</tspan></text><text class="cls-7" transform="translate(271.11 102.48)"><tspan class="cls-8">e</tspan><tspan class="cls-9" x="3.98" y="0">x</tspan><tspan x="7.57" y="0">on3</tspan></text><text class="cls-7" transform="translate(394.79 102.48)"><tspan class="cls-8">e</tspan><tspan class="cls-9" x="3.98" y="0">x</tspan><tspan x="7.57" y="0">on4</tspan></text><text class="cls-7" transform="translate(489.68 161.9)"><tspan class="cls-8">e</tspan><tspan class="cls-9" x="3.98" y="0">x</tspan><tspan x="7.57" y="0">on5</tspan></text><text class="cls-7" transform="translate(617.22 161.9)"><tspan class="cls-8">e</tspan><tspan class="cls-9" x="3.98" y="0">x</tspan><tspan x="7.57" y="0">on6</tspan></text><text class="cls-7" transform="translate(502.29 181.74)">e7</text><text class="cls-7" transform="translate(564.69 181.74)"><tspan class="cls-8">e</tspan><tspan class="cls-9" x="3.98" y="0">x</tspan><tspan x="7.57" y="0">on8</tspan></text><text class="cls-7" transform="translate(617.22 181.74)"><tspan class="cls-8">e</tspan><tspan class="cls-9" x="3.98" y="0">x</tspan><tspan x="7.57" y="0">on9</tspan></text><text class="cls-7" transform="translate(188.09 82.84)">t<tspan class="cls-10" x="2.65" y="0">r</tspan><tspan x="5.22" y="0">ansc</tspan><tspan class="cls-11" x="20.27" y="0">r</tspan><tspan class="cls-12" x="22.92" y="0">ipt1</tspan></text><text class="cls-7" transform="translate(210.4 102.48)">t<tspan class="cls-10" x="2.65" y="0">r</tspan><tspan x="5.22" y="0">ansc</tspan><tspan class="cls-11" x="20.27" y="0">r</tspan><tspan class="cls-12" x="22.92" y="0">ipt2</tspan></text><text class="cls-7" transform="translate(445.79 161.99)">t<tspan class="cls-10" x="2.65" y="0">r</tspan><tspan x="5.22" y="0">ansc</tspan><tspan class="cls-11" x="20.27" y="0">r</tspan><tspan class="cls-12" x="22.92" y="0">ipt3</tspan></text><text class="cls-7" transform="translate(458.57 181.83)">t<tspan class="cls-10" x="2.65" y="0">r</tspan><tspan x="5.22" y="0">ansc</tspan><tspan class="cls-11" x="20.27" y="0">r</tspan><tspan class="cls-12" x="22.92" y="0">ipt4</tspan></text><text class="cls-7" transform="translate(142.91 92.77)">gene1</text><text class="cls-7" transform="translate(392.16 172.95)">gene2</text><rect class="cls-13" x="176.21" y="65.83" width="282.51" height="48.44"/><rect class="cls-14" x="435.44" y="145.95" width="220.81" height="48.44"/></svg>