<svg id="Layer_1" data-name="Layer 1" xmlns="http://www.w3.org/2000/svg" viewBox="0 0 595.28 253.67"><defs><style>.cls-1,.cls-20{fill:none;}.cls-1,.cls-19,.cls-20,.cls-21{stroke:#1d1d1b;stroke-miterlimit:10;}.cls-1{stroke-linecap:square;}.cls-2,.cls-3{fill:#1d1d1b;}.cls-3{font-size:12px;font-family:MyriadPro-Regular, Myriad Pro;}.cls-4{letter-spacing:-0.08em;}.cls-5{letter-spacing:-0.03em;}.cls-6{letter-spacing:-0.02em;}.cls-7{letter-spacing:0.03em;}.cls-8{letter-spacing:-0.02em;}.cls-9{letter-spacing:-0.03em;}.cls-10{letter-spacing:0.03em;}.cls-11{letter-spacing:-0.07em;}.cls-12{letter-spacing:-0.08em;}.cls-13{letter-spacing:0em;}.cls-14{letter-spacing:-0.08em;}.cls-15{letter-spacing:0em;}.cls-16{letter-spacing:-0.07em;}.cls-17{letter-spacing:-0.08em;}.cls-18{letter-spacing:-0.01em;}.cls-19{fill:#98d6f2;}.cls-19,.cls-20,.cls-21{stroke-width:0.75px;}.cls-21{fill:#fbddea;}</style></defs><line class="cls-1" x1="74.92" y1="139.5" x2="538.07" y2="139.5"/><polygon class="cls-2" points="536.62 144.49 545.25 139.5 536.62 134.52 536.62 144.49"/><text class="cls-3" transform="translate(78.33 131.31)">...<tspan class="cls-4" x="7.45" y="0">A</tspan><tspan class="cls-5" x="13.87" y="0">T</tspan><tspan class="cls-6" x="19.51" y="0">C</tspan><tspan x="26.22" y="0">G</tspan><tspan class="cls-7" x="33.97" y="0">C</tspan><tspan class="cls-5" x="41.27" y="0">T</tspan><tspan class="cls-8" x="46.91" y="0">C</tspan><tspan x="53.62" y="0">G</tspan><tspan class="cls-7" x="61.37" y="0">C</tspan><tspan class="cls-9" x="68.66" y="0">T</tspan><tspan class="cls-8" x="74.3" y="0">C</tspan><tspan x="81.01" y="0">G</tspan><tspan class="cls-7" x="88.76" y="0">C</tspan><tspan class="cls-5" x="96.06" y="0">T</tspan><tspan class="cls-6" x="101.7" y="0">C</tspan><tspan x="108.41" y="0">G</tspan><tspan class="cls-7" x="116.16" y="0">C</tspan><tspan class="cls-5" x="123.45" y="0">T</tspan><tspan x="129.09" y="0">G</tspan><tspan class="cls-8" x="136.85" y="0">C</tspan><tspan x="143.55" y="0">GG</tspan><tspan class="cls-7" x="159.06" y="0">C</tspan><tspan class="cls-5" x="166.35" y="0">T</tspan><tspan class="cls-10" x="171.99" y="0">C</tspan><tspan class="cls-5" x="179.29" y="0">T</tspan><tspan class="cls-7" x="184.93" y="0">C</tspan><tspan class="cls-11" x="192.23" y="0">T</tspan><tspan class="cls-12" x="197.29" y="0">A</tspan><tspan class="cls-11" x="203.71" y="0">T</tspan><tspan class="cls-13" x="208.77" y="0">AA</tspan><tspan class="cls-12" x="223.46" y="0">A</tspan><tspan class="cls-14" x="229.88" y="0">T</tspan><tspan class="cls-15" x="234.95" y="0">A</tspan><tspan class="cls-12" x="242.29" y="0">A</tspan><tspan class="cls-9" x="248.71" y="0">T</tspan><tspan class="cls-7" x="254.35" y="0">C</tspan><tspan class="cls-9" x="261.65" y="0">T</tspan><tspan class="cls-7" x="267.29" y="0">C</tspan><tspan class="cls-16" x="274.58" y="0">T</tspan><tspan class="cls-12" x="279.65" y="0">A</tspan><tspan class="cls-14" x="286.07" y="0">T</tspan><tspan class="cls-17" x="291.13" y="0">A</tspan><tspan class="cls-14" x="297.55" y="0">T</tspan><tspan class="cls-18" x="302.61" y="0">A</tspan><tspan x="309.78" y="0">G</tspan><tspan class="cls-12" x="317.53" y="0">A</tspan><tspan class="cls-16" x="323.95" y="0">T</tspan><tspan class="cls-12" x="329.01" y="0">A</tspan><tspan class="cls-14" x="335.43" y="0">T</tspan><tspan class="cls-12" x="340.5" y="0">A</tspan><tspan class="cls-16" x="346.92" y="0">T</tspan><tspan x="351.98" y="0">AAAA</tspan><tspan class="cls-18" x="381.36" y="0">A</tspan><tspan x="388.52" y="0">G</tspan><tspan class="cls-7" x="396.27" y="0">C</tspan><tspan class="cls-9" x="403.57" y="0">T</tspan><tspan class="cls-7" x="409.21" y="0">C</tspan><tspan class="cls-9" x="416.5" y="0">T</tspan><tspan class="cls-8" x="422.14" y="0">C</tspan><tspan x="428.85" y="0">G</tspan><tspan class="cls-16" x="436.6" y="0">T</tspan><tspan class="cls-18" x="441.67" y="0">A</tspan><tspan x="448.83" y="0">G...</tspan></text><rect class="cls-19" x="94.48" y="74.99" width="84.23" height="10.83"/><line class="cls-20" x1="178.71" y1="80.4" x2="225.07" y2="80.4"/><polygon class="cls-2" points="224.25 83.21 229.11 80.4 224.25 77.6 224.25 83.21"/><rect class="cls-19" x="229.11" y="74.99" width="84.23" height="10.83"/><line class="cls-20" x1="178.23" y1="100.14" x2="224.78" y2="100.14"/><polygon class="cls-2" points="223.96 102.94 228.81 100.14 223.96 97.33 223.96 102.94"/><rect class="cls-19" x="116.56" y="94.72" width="61.68" height="10.83"/><rect class="cls-19" x="228.81" y="94.72" width="84.52" height="10.83"/><rect class="cls-21" x="353.75" y="153.72" width="24.51" height="10.83"/><line class="cls-20" x1="382.3" y1="159.14" x2="475.08" y2="159.14"/><polygon class="cls-2" points="383.12 161.94 378.27 159.14 383.12 156.33 383.12 161.94"/><rect class="cls-21" x="475.08" y="153.72" width="36.86" height="10.83"/><line class="cls-20" x1="381.83" y1="178.87" x2="428.37" y2="178.87"/><polygon class="cls-2" points="382.65 181.67 377.79 178.87 382.65 176.06 382.65 181.67"/><rect class="cls-21" x="366.96" y="173.46" width="10.83" height="10.83"/><rect class="cls-21" x="428.37" y="173.46" width="25.21" height="10.83"/><line class="cls-20" x1="457.62" y1="178.87" x2="475.08" y2="178.87"/><polygon class="cls-2" points="458.44 181.67 453.58 178.87 458.44 176.06 458.44 181.67"/><rect class="cls-21" x="475.08" y="173.46" width="36.86" height="10.83"/><line class="cls-1" x1="256.4" y1="123.92" x2="256.4" y2="129.12"/><text class="cls-3" transform="translate(15.68 139.5)">chr1</text></svg>