<?xml version="1.0" encoding="utf-8"?>
<!-- Generator: Adobe Illustrator 26.2.1, SVG Export Plug-In . SVG Version: 6.00 Build 0)  -->
<svg version="1.1" id="Layer_1" xmlns="http://www.w3.org/2000/svg" xmlns:xlink="http://www.w3.org/1999/xlink" x="0px" y="0px"
	 viewBox="0 0 887.7 253.7" style="enable-background:new 0 0 887.7 253.7;" xml:space="preserve">
<style type="text/css">
	.st0{fill:none;stroke:#000000;stroke-linecap:square;stroke-miterlimit:10;}
	.st1{fill:#98D6F2;stroke:#000000;stroke-width:0.75;stroke-miterlimit:10;}
	.st2{fill:none;stroke:#000000;stroke-width:0.75;stroke-miterlimit:10;}
	.st3{fill:#FBDDEA;stroke:#000000;stroke-width:0.75;stroke-miterlimit:10;}
	.st4{font-family:'ArialMT';}
	.st5{font-size:12px;}
	.st6{font-size:8px;}
	.st7{fill:none;stroke:#98D6F2;stroke-miterlimit:10;}
	.st8{fill:none;stroke:#FBDDEA;stroke-miterlimit:10;}
</style>
<g>
	<g>
		<line class="st0" x1="208.9" y1="139.5" x2="672" y2="139.5"/>
		<g>
			<polygon points="670.6,144.5 679.2,139.5 670.6,134.5 			"/>
		</g>
	</g>
</g>
<g>
	<g>
		<path d="M209.9,130.4c0-0.6,0.4-1,1-1c0.5,0,1,0.4,1,1c0,0.6-0.4,1-1,1C210.4,131.5,209.9,131,209.9,130.4z"/>
		<path d="M217.1,130.4c0-0.6,0.4-1,1-1c0.5,0,1,0.4,1,1c0,0.6-0.4,1-1,1C217.6,131.5,217.1,131,217.1,130.4z"/>
		<path d="M224.3,130.4c0-0.6,0.4-1,1-1c0.5,0,1,0.4,1,1c0,0.6-0.4,1-1,1C224.8,131.5,224.3,131,224.3,130.4z"/>
		<path d="M231.9,123.4h1.2l2.7,7.9h-1.1l-1.4-4.4c-0.3-0.9-0.5-1.7-0.8-2.7h0c-0.3,0.9-0.5,1.8-0.8,2.7l-1.4,4.4h-1L231.9,123.4z
			 M230.7,128.1h3.6v0.8h-3.6V128.1z"/>
		<path d="M239.2,124.3h-2.6v-0.9h6.2v0.9h-2.6v7h-1V124.3z"/>
		<path d="M244.1,127.4c0-2.5,1.5-4.1,3.5-4.1c0.9,0,1.7,0.5,2.2,1l-0.6,0.6c-0.4-0.4-0.9-0.7-1.6-0.7c-1.5,0-2.5,1.2-2.5,3.2
			c0,2,1,3.2,2.5,3.2c0.7,0,1.3-0.3,1.8-0.9l0.6,0.6c-0.6,0.7-1.4,1.1-2.4,1.1C245.6,131.5,244.1,129.9,244.1,127.4z"/>
		<path d="M251.1,127.4c0-2.5,1.5-4.1,3.5-4.1c1,0,1.7,0.5,2.2,1l-0.6,0.6c-0.4-0.4-0.8-0.7-1.6-0.7c-1.5,0-2.4,1.2-2.4,3.2
			c0,2,0.9,3.2,2.4,3.2c0.6,0,1.1-0.2,1.4-0.5v-2.1h-1.6v-0.8h2.5v3.3c-0.5,0.5-1.3,0.9-2.4,0.9
			C252.6,131.5,251.1,129.9,251.1,127.4z"/>
		<path d="M258.5,127.4c0-2.5,1.5-4.1,3.5-4.1c0.9,0,1.7,0.5,2.2,1l-0.6,0.6c-0.4-0.4-0.9-0.7-1.6-0.7c-1.5,0-2.5,1.2-2.5,3.2
			c0,2,1,3.2,2.5,3.2c0.7,0,1.3-0.3,1.8-0.9l0.6,0.6c-0.6,0.7-1.4,1.1-2.4,1.1C260,131.5,258.5,129.9,258.5,127.4z"/>
		<path d="M268,124.3h-2.6v-0.9h6.2v0.9H269v7h-1V124.3z"/>
		<path d="M272.9,127.4c0-2.5,1.5-4.1,3.5-4.1c0.9,0,1.7,0.5,2.2,1l-0.6,0.6c-0.4-0.4-0.9-0.7-1.6-0.7c-1.5,0-2.5,1.2-2.5,3.2
			c0,2,1,3.2,2.5,3.2c0.7,0,1.3-0.3,1.8-0.9l0.6,0.6c-0.6,0.7-1.4,1.1-2.4,1.1C274.4,131.5,272.9,129.9,272.9,127.4z"/>
		<path d="M279.9,127.4c0-2.5,1.5-4.1,3.5-4.1c1,0,1.7,0.5,2.2,1l-0.6,0.6c-0.4-0.4-0.8-0.7-1.6-0.7c-1.5,0-2.4,1.2-2.4,3.2
			c0,2,0.9,3.2,2.4,3.2c0.6,0,1.1-0.2,1.4-0.5v-2.1h-1.6v-0.8h2.5v3.3c-0.5,0.5-1.3,0.9-2.4,0.9
			C281.4,131.5,279.9,129.9,279.9,127.4z"/>
		<path d="M287.3,127.4c0-2.5,1.5-4.1,3.5-4.1c0.9,0,1.7,0.5,2.2,1l-0.6,0.6c-0.4-0.4-0.9-0.7-1.6-0.7c-1.5,0-2.5,1.2-2.5,3.2
			c0,2,1,3.2,2.5,3.2c0.7,0,1.3-0.3,1.8-0.9l0.6,0.6c-0.6,0.7-1.4,1.1-2.4,1.1C288.8,131.5,287.3,129.9,287.3,127.4z"/>
		<path d="M296.8,124.3h-2.6v-0.9h6.2v0.9h-2.6v7h-1V124.3z"/>
		<path d="M301.7,127.4c0-2.5,1.5-4.1,3.5-4.1c0.9,0,1.7,0.5,2.2,1l-0.6,0.6c-0.4-0.4-0.9-0.7-1.6-0.7c-1.5,0-2.5,1.2-2.5,3.2
			c0,2,1,3.2,2.5,3.2c0.7,0,1.3-0.3,1.8-0.9l0.6,0.6c-0.6,0.7-1.4,1.1-2.4,1.1C303.2,131.5,301.7,129.9,301.7,127.4z"/>
		<path d="M308.7,127.4c0-2.5,1.5-4.1,3.5-4.1c1,0,1.7,0.5,2.2,1l-0.6,0.6c-0.4-0.4-0.8-0.7-1.6-0.7c-1.5,0-2.4,1.2-2.4,3.2
			c0,2,0.9,3.2,2.4,3.2c0.6,0,1.1-0.2,1.4-0.5v-2.1H312v-0.8h2.5v3.3c-0.5,0.5-1.3,0.9-2.4,0.9C310.2,131.5,308.7,129.9,308.7,127.4
			z"/>
		<path d="M316.1,127.4c0-2.5,1.5-4.1,3.5-4.1c0.9,0,1.7,0.5,2.2,1l-0.6,0.6c-0.4-0.4-0.9-0.7-1.6-0.7c-1.5,0-2.5,1.2-2.5,3.2
			c0,2,1,3.2,2.5,3.2c0.7,0,1.3-0.3,1.8-0.9l0.6,0.6c-0.6,0.7-1.4,1.1-2.4,1.1C317.6,131.5,316.1,129.9,316.1,127.4z"/>
		<path d="M325.6,124.3H323v-0.9h6.2v0.9h-2.6v7h-1V124.3z"/>
		<path d="M330.5,127.4c0-2.5,1.5-4.1,3.5-4.1c0.9,0,1.7,0.5,2.2,1l-0.6,0.6c-0.4-0.4-0.9-0.7-1.6-0.7c-1.5,0-2.5,1.2-2.5,3.2
			c0,2,1,3.2,2.5,3.2c0.7,0,1.3-0.3,1.8-0.9l0.6,0.6c-0.6,0.7-1.4,1.1-2.4,1.1C332,131.5,330.5,129.9,330.5,127.4z"/>
		<path d="M337.5,127.4c0-2.5,1.5-4.1,3.5-4.1c1,0,1.7,0.5,2.2,1l-0.6,0.6c-0.4-0.4-0.8-0.7-1.6-0.7c-1.5,0-2.4,1.2-2.4,3.2
			c0,2,0.9,3.2,2.4,3.2c0.6,0,1.1-0.2,1.4-0.5v-2.1h-1.6v-0.8h2.5v3.3c-0.5,0.5-1.3,0.9-2.4,0.9C339,131.5,337.5,129.9,337.5,127.4z
			"/>
		<path d="M344.9,127.4c0-2.5,1.5-4.1,3.5-4.1c0.9,0,1.7,0.5,2.2,1l-0.6,0.6c-0.4-0.4-0.9-0.7-1.6-0.7c-1.5,0-2.5,1.2-2.5,3.2
			c0,2,1,3.2,2.5,3.2c0.7,0,1.3-0.3,1.8-0.9l0.6,0.6c-0.6,0.7-1.4,1.1-2.4,1.1C346.4,131.5,344.9,129.9,344.9,127.4z"/>
		<path d="M354.4,124.3h-2.6v-0.9h6.2v0.9h-2.6v7h-1V124.3z"/>
		<path d="M359.1,127.4c0-2.5,1.5-4.1,3.5-4.1c1,0,1.7,0.5,2.2,1l-0.6,0.6c-0.4-0.4-0.8-0.7-1.6-0.7c-1.5,0-2.4,1.2-2.4,3.2
			c0,2,0.9,3.2,2.4,3.2c0.6,0,1.1-0.2,1.4-0.5v-2.1h-1.6v-0.8h2.5v3.3c-0.5,0.5-1.3,0.9-2.4,0.9
			C360.6,131.5,359.1,129.9,359.1,127.4z"/>
		<path d="M366.5,127.4c0-2.5,1.5-4.1,3.5-4.1c0.9,0,1.7,0.5,2.2,1l-0.6,0.6c-0.4-0.4-0.9-0.7-1.6-0.7c-1.5,0-2.5,1.2-2.5,3.2
			c0,2,1,3.2,2.5,3.2c0.7,0,1.3-0.3,1.8-0.9l0.6,0.6c-0.6,0.7-1.4,1.1-2.4,1.1C368,131.5,366.5,129.9,366.5,127.4z"/>
		<path d="M373.5,127.4c0-2.5,1.5-4.1,3.5-4.1c1,0,1.7,0.5,2.2,1l-0.6,0.6c-0.4-0.4-0.8-0.7-1.6-0.7c-1.5,0-2.4,1.2-2.4,3.2
			c0,2,0.9,3.2,2.4,3.2c0.6,0,1.1-0.2,1.4-0.5v-2.1h-1.6v-0.8h2.5v3.3c-0.5,0.5-1.3,0.9-2.4,0.9C375,131.5,373.5,129.9,373.5,127.4z
			"/>
		<path d="M380.7,127.4c0-2.5,1.5-4.1,3.5-4.1c1,0,1.7,0.5,2.2,1l-0.6,0.6c-0.4-0.4-0.8-0.7-1.6-0.7c-1.5,0-2.4,1.2-2.4,3.2
			c0,2,0.9,3.2,2.4,3.2c0.6,0,1.1-0.2,1.4-0.5v-2.1H384v-0.8h2.5v3.3c-0.5,0.5-1.3,0.9-2.4,0.9C382.2,131.5,380.7,129.9,380.7,127.4
			z"/>
		<path d="M388.1,127.4c0-2.5,1.5-4.1,3.5-4.1c0.9,0,1.7,0.5,2.2,1l-0.6,0.6c-0.4-0.4-0.9-0.7-1.6-0.7c-1.5,0-2.5,1.2-2.5,3.2
			c0,2,1,3.2,2.5,3.2c0.7,0,1.3-0.3,1.8-0.9l0.6,0.6c-0.6,0.7-1.4,1.1-2.4,1.1C389.6,131.5,388.1,129.9,388.1,127.4z"/>
		<path d="M397.6,124.3H395v-0.9h6.2v0.9h-2.6v7h-1V124.3z"/>
		<path d="M402.5,127.4c0-2.5,1.5-4.1,3.5-4.1c0.9,0,1.7,0.5,2.2,1l-0.6,0.6c-0.4-0.4-0.9-0.7-1.6-0.7c-1.5,0-2.5,1.2-2.5,3.2
			c0,2,1,3.2,2.5,3.2c0.7,0,1.3-0.3,1.8-0.9l0.6,0.6c-0.6,0.7-1.4,1.1-2.4,1.1C404,131.5,402.5,129.9,402.5,127.4z"/>
		<path d="M412,124.3h-2.6v-0.9h6.2v0.9H413v7h-1V124.3z"/>
		<path d="M416.9,127.4c0-2.5,1.5-4.1,3.5-4.1c0.9,0,1.7,0.5,2.2,1l-0.6,0.6c-0.4-0.4-0.9-0.7-1.6-0.7c-1.5,0-2.5,1.2-2.5,3.2
			c0,2,1,3.2,2.5,3.2c0.7,0,1.3-0.3,1.8-0.9l0.6,0.6c-0.6,0.7-1.4,1.1-2.4,1.1C418.4,131.5,416.9,129.9,416.9,127.4z"/>
		<path d="M426.4,124.3h-2.6v-0.9h6.2v0.9h-2.6v7h-1V124.3z"/>
		<path d="M433.5,123.4h1.2l2.7,7.9h-1.1l-1.4-4.4c-0.3-0.9-0.5-1.7-0.8-2.7h0c-0.3,0.9-0.5,1.8-0.8,2.7l-1.4,4.4h-1L433.5,123.4z
			 M432.3,128.1h3.6v0.8h-3.6V128.1z"/>
		<path d="M440.8,124.3h-2.6v-0.9h6.2v0.9h-2.6v7h-1V124.3z"/>
		<path d="M447.9,123.4h1.2l2.7,7.9h-1.1l-1.4-4.4c-0.3-0.9-0.5-1.7-0.8-2.7h0c-0.3,0.9-0.5,1.8-0.8,2.7l-1.4,4.4h-1L447.9,123.4z
			 M446.7,128.1h3.6v0.8h-3.6V128.1z"/>
		<path d="M455.1,123.4h1.2l2.7,7.9h-1.1l-1.4-4.4c-0.3-0.9-0.5-1.7-0.8-2.7h0c-0.3,0.9-0.5,1.8-0.8,2.7l-1.4,4.4h-1L455.1,123.4z
			 M453.9,128.1h3.6v0.8h-3.6V128.1z"/>
		<path d="M462.3,123.4h1.2l2.7,7.9H465l-1.4-4.4c-0.3-0.9-0.5-1.7-0.8-2.7h0c-0.3,0.9-0.5,1.8-0.8,2.7l-1.4,4.4h-1L462.3,123.4z
			 M461.1,128.1h3.6v0.8h-3.6V128.1z"/>
		<path d="M469.6,124.3H467v-0.9h6.2v0.9h-2.6v7h-1V124.3z"/>
		<path d="M476.7,123.4h1.2l2.7,7.9h-1.1l-1.4-4.4c-0.3-0.9-0.5-1.7-0.8-2.7h0c-0.3,0.9-0.5,1.8-0.8,2.7l-1.4,4.4h-1L476.7,123.4z
			 M475.5,128.1h3.6v0.8h-3.6V128.1z"/>
		<path d="M483.9,123.4h1.2l2.7,7.9h-1.1l-1.4-4.4c-0.3-0.9-0.5-1.7-0.8-2.7h0c-0.3,0.9-0.5,1.8-0.8,2.7l-1.4,4.4h-1L483.9,123.4z
			 M482.7,128.1h3.6v0.8h-3.6V128.1z"/>
		<path d="M491.2,124.3h-2.6v-0.9h6.2v0.9h-2.6v7h-1V124.3z"/>
		<path d="M496.1,127.4c0-2.5,1.5-4.1,3.5-4.1c0.9,0,1.7,0.5,2.2,1l-0.6,0.6c-0.4-0.4-0.9-0.7-1.6-0.7c-1.5,0-2.5,1.2-2.5,3.2
			c0,2,1,3.2,2.5,3.2c0.7,0,1.3-0.3,1.8-0.9l0.6,0.6c-0.6,0.7-1.4,1.1-2.4,1.1C497.6,131.5,496.1,129.9,496.1,127.4z"/>
		<path d="M505.6,124.3H503v-0.9h6.2v0.9h-2.6v7h-1V124.3z"/>
		<path d="M510.5,127.4c0-2.5,1.5-4.1,3.5-4.1c0.9,0,1.7,0.5,2.2,1l-0.6,0.6c-0.4-0.4-0.9-0.7-1.6-0.7c-1.5,0-2.5,1.2-2.5,3.2
			c0,2,1,3.2,2.5,3.2c0.7,0,1.3-0.3,1.8-0.9l0.6,0.6c-0.6,0.7-1.4,1.1-2.4,1.1C512,131.5,510.5,129.9,510.5,127.4z"/>
		<path d="M520,124.3h-2.6v-0.9h6.2v0.9H521v7h-1V124.3z"/>
		<path d="M527.1,123.4h1.2l2.7,7.9h-1.1l-1.4-4.4c-0.3-0.9-0.5-1.7-0.8-2.7h0c-0.3,0.9-0.5,1.8-0.8,2.7l-1.4,4.4h-1L527.1,123.4z
			 M525.9,128.1h3.6v0.8h-3.6V128.1z"/>
		<path d="M534.4,124.3h-2.6v-0.9h6.2v0.9h-2.6v7h-1V124.3z"/>
		<path d="M541.5,123.4h1.2l2.7,7.9h-1.1l-1.4-4.4c-0.3-0.9-0.5-1.7-0.8-2.7h0c-0.3,0.9-0.5,1.8-0.8,2.7l-1.4,4.4h-1L541.5,123.4z
			 M540.3,128.1h3.6v0.8h-3.6V128.1z"/>
		<path d="M548.8,124.3h-2.6v-0.9h6.2v0.9h-2.6v7h-1V124.3z"/>
		<path d="M555.9,123.4h1.2l2.7,7.9h-1.1l-1.4-4.4c-0.3-0.9-0.5-1.7-0.8-2.7h0c-0.3,0.9-0.5,1.8-0.8,2.7l-1.4,4.4h-1L555.9,123.4z
			 M554.7,128.1h3.6v0.8h-3.6V128.1z"/>
		<path d="M560.7,127.4c0-2.5,1.5-4.1,3.5-4.1c1,0,1.7,0.5,2.2,1l-0.6,0.6c-0.4-0.4-0.8-0.7-1.6-0.7c-1.5,0-2.4,1.2-2.4,3.2
			c0,2,0.9,3.2,2.4,3.2c0.6,0,1.1-0.2,1.4-0.5v-2.1H564v-0.8h2.5v3.3c-0.5,0.5-1.3,0.9-2.4,0.9C562.2,131.5,560.7,129.9,560.7,127.4
			z"/>
		<path d="M570.3,123.4h1.2l2.7,7.9H573l-1.4-4.4c-0.3-0.9-0.5-1.7-0.8-2.7h0c-0.3,0.9-0.5,1.8-0.8,2.7l-1.4,4.4h-1L570.3,123.4z
			 M569.1,128.1h3.6v0.8h-3.6V128.1z"/>
		<path d="M577.6,124.3H575v-0.9h6.2v0.9h-2.6v7h-1V124.3z"/>
		<path d="M584.7,123.4h1.2l2.7,7.9h-1.1l-1.4-4.4c-0.3-0.9-0.5-1.7-0.8-2.7h0c-0.3,0.9-0.5,1.8-0.8,2.7l-1.4,4.4h-1L584.7,123.4z
			 M583.5,128.1h3.6v0.8h-3.6V128.1z"/>
		<path d="M592,124.3h-2.6v-0.9h6.2v0.9H593v7h-1V124.3z"/>
		<path d="M599.1,123.4h1.2l2.7,7.9h-1.1l-1.4-4.4c-0.3-0.9-0.5-1.7-0.8-2.7h0c-0.3,0.9-0.5,1.8-0.8,2.7l-1.4,4.4h-1L599.1,123.4z
			 M597.9,128.1h3.6v0.8h-3.6V128.1z"/>
		<path d="M606.4,124.3h-2.6v-0.9h6.2v0.9h-2.6v7h-1V124.3z"/>
		<path d="M613.5,123.4h1.2l2.7,7.9h-1.1l-1.4-4.4c-0.3-0.9-0.5-1.7-0.8-2.7h0c-0.3,0.9-0.5,1.8-0.8,2.7l-1.4,4.4h-1L613.5,123.4z
			 M612.3,128.1h3.6v0.8h-3.6V128.1z"/>
		<path d="M620.7,123.4h1.2l2.7,7.9h-1.1l-1.4-4.4c-0.3-0.9-0.5-1.7-0.8-2.7h0c-0.3,0.9-0.5,1.8-0.8,2.7l-1.4,4.4h-1L620.7,123.4z
			 M619.5,128.1h3.6v0.8h-3.6V128.1z"/>
		<path d="M627.9,123.4h1.2l2.7,7.9h-1.1l-1.4-4.4c-0.3-0.9-0.5-1.7-0.8-2.7h0c-0.3,0.9-0.5,1.8-0.8,2.7l-1.4,4.4h-1L627.9,123.4z
			 M626.7,128.1h3.6v0.8h-3.6V128.1z"/>
		<path d="M635.1,123.4h1.2l2.7,7.9h-1.1l-1.4-4.4c-0.3-0.9-0.5-1.7-0.8-2.7h0c-0.3,0.9-0.5,1.8-0.8,2.7l-1.4,4.4h-1L635.1,123.4z
			 M633.9,128.1h3.6v0.8h-3.6V128.1z"/>
		<path d="M639.9,127.4c0-2.5,1.5-4.1,3.5-4.1c1,0,1.7,0.5,2.2,1l-0.6,0.6c-0.4-0.4-0.8-0.7-1.6-0.7c-1.5,0-2.4,1.2-2.4,3.2
			c0,2,0.9,3.2,2.4,3.2c0.6,0,1.1-0.2,1.4-0.5v-2.1h-1.6v-0.8h2.5v3.3c-0.5,0.5-1.3,0.9-2.4,0.9
			C641.3,131.5,639.9,129.9,639.9,127.4z"/>
		<path d="M649.6,124.3H647v-0.9h6.2v0.9h-2.6v7h-1V124.3z"/>
		<path d="M656.7,123.4h1.2l2.7,7.9h-1.1l-1.4-4.4c-0.3-0.9-0.5-1.7-0.8-2.7h0c-0.3,0.9-0.5,1.8-0.8,2.7l-1.4,4.4h-1L656.7,123.4z
			 M655.5,128.1h3.6v0.8h-3.6V128.1z"/>
		<path d="M661.5,127.4c0-2.5,1.5-4.1,3.5-4.1c1,0,1.7,0.5,2.2,1l-0.6,0.6c-0.4-0.4-0.8-0.7-1.6-0.7c-1.5,0-2.4,1.2-2.4,3.2
			c0,2,0.9,3.2,2.4,3.2c0.6,0,1.1-0.2,1.4-0.5v-2.1h-1.6v-0.8h2.5v3.3c-0.5,0.5-1.3,0.9-2.4,0.9
			C662.9,131.5,661.5,129.9,661.5,127.4z"/>
		<path d="M670.7,130.4c0-0.6,0.4-1,1-1c0.5,0,1,0.4,1,1c0,0.6-0.4,1-1,1C671.1,131.5,670.7,131,670.7,130.4z"/>
		<path d="M677.9,130.4c0-0.6,0.4-1,1-1c0.5,0,1,0.4,1,1c0,0.6-0.4,1-1,1C678.3,131.5,677.9,131,677.9,130.4z"/>
		<path d="M685.1,130.4c0-0.6,0.4-1,1-1c0.5,0,1,0.4,1,1c0,0.6-0.4,1-1,1C685.5,131.5,685.1,131,685.1,130.4z"/>
	</g>
</g>
<rect x="228.4" y="75" class="st1" width="84.2" height="10.8"/>
<g>
	<g>
		<line class="st2" x1="312.7" y1="80.4" x2="359" y2="80.4"/>
		<g>
			<polygon points="358.2,83.2 363.1,80.4 358.2,77.6 			"/>
		</g>
	</g>
</g>
<rect x="363.1" y="75" class="st1" width="84.2" height="10.8"/>
<g>
	<g>
		<line class="st2" x1="312.2" y1="100.1" x2="358.7" y2="100.1"/>
		<g>
			<polygon points="357.9,102.9 362.8,100.1 357.9,97.3 			"/>
		</g>
	</g>
</g>
<rect x="250.5" y="94.7" class="st1" width="61.7" height="10.8"/>
<rect x="362.8" y="94.7" class="st1" width="84.5" height="10.8"/>
<rect x="487.7" y="153.7" class="st3" width="24.5" height="10.8"/>
<g>
	<g>
		<line class="st2" x1="516.3" y1="159.1" x2="609" y2="159.1"/>
		<g>
			<polygon points="517.1,161.9 512.2,159.1 517.1,156.3 			"/>
		</g>
	</g>
</g>
<rect x="609" y="153.7" class="st3" width="36.9" height="10.8"/>
<g>
	<g>
		<line class="st2" x1="515.8" y1="178.9" x2="562.3" y2="178.9"/>
		<g>
			<polygon points="516.6,181.7 511.8,178.9 516.6,176.1 			"/>
		</g>
	</g>
</g>
<rect x="500.9" y="173.5" class="st3" width="10.8" height="10.8"/>
<rect x="562.3" y="173.5" class="st3" width="25.2" height="10.8"/>
<g>
	<g>
		<line class="st2" x1="591.6" y1="178.9" x2="609" y2="178.9"/>
		<g>
			<polygon points="592.4,181.7 587.5,178.9 592.4,176.1 			"/>
		</g>
	</g>
</g>
<rect x="609" y="173.5" class="st3" width="36.9" height="10.8"/>
<text transform="matrix(1 0 0 1 722.097 139.623)" class="st4 st5">chr1</text>
<text transform="matrix(1 0 0 1 259.6622 82.7515)" class="st4 st6">exon1</text>
<text transform="matrix(1 0 0 1 394.2903 82.7518)" class="st4 st6">exon2</text>
<text transform="matrix(1 0 0 1 270.4619 102.4843)" class="st4 st6">exon3</text>
<text transform="matrix(1 0 0 1 394.1415 102.4843)" class="st4 st6">exon4</text>
<text transform="matrix(1 0 0 1 489.0323 161.9028)" class="st4 st6">exon5</text>
<text transform="matrix(1 0 0 1 616.5749 161.9029)" class="st4 st6">exon6</text>
<text transform="matrix(1 0 0 1 501.8944 181.7408)" class="st4 st6">e7</text>
<text transform="matrix(1 0 0 1 564.043 181.7404)" class="st4 st6">exon8</text>
<text transform="matrix(1 0 0 1 616.5748 181.7405)" class="st4 st6">exon9</text>
<text transform="matrix(1 0 0 1 187.462 82.8398)" class="st4 st6">transcript1</text>
<text transform="matrix(1 0 0 1 209.7738 102.4843)" class="st4 st6">transcript2</text>
<text transform="matrix(1 0 0 1 445.1668 161.9911)" class="st4 st6">transcript3</text>
<text transform="matrix(1 0 0 1 457.9441 181.8284)" class="st4 st6">transcript4</text>
<text transform="matrix(1 0 0 1 142.3045 92.7699)" class="st4 st6">gene1</text>
<text transform="matrix(1 0 0 1 391.5492 172.9483)" class="st4 st6">gene2</text>
<rect x="176.2" y="65.8" class="st7" width="282.5" height="48.4"/>
<rect x="435.4" y="145.9" class="st8" width="220.8" height="48.4"/>
</svg>
