<svg id="Layer_1" data-name="Layer 1" xmlns="http://www.w3.org/2000/svg" viewBox="0 0 595.28 253.67"><defs><style>.cls-1,.cls-4{fill:none;}.cls-1,.cls-3,.cls-4,.cls-5{stroke:#1d1d1b;stroke-miterlimit:10;}.cls-1{stroke-linecap:square;}.cls-2,.cls-6{fill:#1d1d1b;}.cls-3{fill:#98d6f2;}.cls-3,.cls-4,.cls-5{stroke-width:0.75px;}.cls-5{fill:#fbddea;}.cls-6{font-size:12px;font-family:MyriadPro-Regular, Myriad Pro;}</style></defs><line class="cls-1" x1="74.92" y1="139.5" x2="538.07" y2="139.5"/><polygon class="cls-2" points="536.62 144.49 545.25 139.5 536.62 134.52 536.62 144.49"/><path class="cls-2" d="M76,130.43a1,1,0,1,1,2,0,1,1,0,1,1-2,0Z"/><path class="cls-2" d="M83.15,130.43a1,1,0,1,1,1,1A1,1,0,0,1,83.15,130.43Z"/><path class="cls-2" d="M90.35,130.43a1,1,0,1,1,2,0,1,1,0,1,1-2,0Z"/><path class="cls-2" d="M98,123.44H99.1l2.65,7.87h-1.08l-1.35-4.39c-.28-.87-.54-1.74-.78-2.65h-.05c-.25.91-.51,1.78-.78,2.65l-1.38,4.39h-1Zm-1.25,4.67h3.61v.81H96.7Z"/><path class="cls-2" d="M105.22,124.29h-2.6v-.85h6.21v.85h-2.6v7h-1Z"/><path class="cls-2" d="M110.11,127.38c0-2.53,1.47-4.08,3.52-4.08a2.93,2.93,0,0,1,2.16,1l-.57.63a2.13,2.13,0,0,0-1.59-.7c-1.5,0-2.48,1.21-2.48,3.16s1,3.22,2.48,3.22a2.31,2.31,0,0,0,1.77-.87l.57.61a3,3,0,0,1-2.43,1.14C111.59,131.45,110.11,129.94,110.11,127.38Z"/><path class="cls-2" d="M117.16,127.38c0-2.55,1.45-4.08,3.49-4.08a2.87,2.87,0,0,1,2.17,1l-.57.63a2.06,2.06,0,0,0-1.6-.7c-1.47,0-2.43,1.21-2.43,3.16s.87,3.22,2.41,3.22a1.93,1.93,0,0,0,1.35-.46v-2.05h-1.56v-.83h2.5v3.31a3.27,3.27,0,0,1-2.35.91C118.59,131.45,117.16,129.94,117.16,127.38Z"/><path class="cls-2" d="M124.51,127.38c0-2.53,1.47-4.08,3.52-4.08a2.93,2.93,0,0,1,2.16,1l-.57.63a2.13,2.13,0,0,0-1.59-.7c-1.5,0-2.48,1.21-2.48,3.16s1,3.22,2.48,3.22a2.31,2.31,0,0,0,1.77-.87l.57.61a3,3,0,0,1-2.43,1.14C126,131.45,124.51,129.94,124.51,127.38Z"/><path class="cls-2" d="M134,124.29h-2.6v-.85h6.21v.85H135v7h-1Z"/><path class="cls-2" d="M138.91,127.38c0-2.53,1.47-4.08,3.52-4.08a2.93,2.93,0,0,1,2.16,1l-.58.63a2.09,2.09,0,0,0-1.58-.7c-1.5,0-2.48,1.21-2.48,3.16s1,3.22,2.48,3.22a2.27,2.27,0,0,0,1.76-.87l.58.61a3,3,0,0,1-2.43,1.14C140.39,131.45,138.91,129.94,138.91,127.38Z"/><path class="cls-2" d="M146,127.38c0-2.55,1.45-4.08,3.49-4.08a2.87,2.87,0,0,1,2.17,1l-.57.63a2.06,2.06,0,0,0-1.6-.7c-1.47,0-2.43,1.21-2.43,3.16s.87,3.22,2.41,3.22a1.93,1.93,0,0,0,1.35-.46v-2.05h-1.56v-.83h2.5v3.31a3.27,3.27,0,0,1-2.35.91C147.39,131.45,146,129.94,146,127.38Z"/><path class="cls-2" d="M153.31,127.38c0-2.53,1.47-4.08,3.52-4.08a2.93,2.93,0,0,1,2.16,1l-.58.63a2.09,2.09,0,0,0-1.58-.7c-1.5,0-2.48,1.21-2.48,3.16s1,3.22,2.48,3.22a2.27,2.27,0,0,0,1.76-.87l.58.61a3,3,0,0,1-2.43,1.14C154.79,131.45,153.31,129.94,153.31,127.38Z"/><path class="cls-2" d="M162.82,124.29h-2.6v-.85h6.21v.85h-2.6v7h-1Z"/><path class="cls-2" d="M167.71,127.38c0-2.53,1.47-4.08,3.52-4.08a2.93,2.93,0,0,1,2.16,1l-.58.63a2.09,2.09,0,0,0-1.58-.7c-1.5,0-2.48,1.21-2.48,3.16s1,3.22,2.48,3.22a2.27,2.27,0,0,0,1.76-.87l.58.61a3,3,0,0,1-2.43,1.14C169.19,131.45,167.71,129.94,167.71,127.38Z"/><path class="cls-2" d="M174.76,127.38c0-2.55,1.45-4.08,3.49-4.08a2.88,2.88,0,0,1,2.17,1l-.57.63a2.08,2.08,0,0,0-1.6-.7c-1.47,0-2.43,1.21-2.43,3.16s.87,3.22,2.41,3.22a2,2,0,0,0,1.35-.46v-2.05H178v-.83h2.5v3.31a3.27,3.27,0,0,1-2.35.91C176.19,131.45,174.76,129.94,174.76,127.38Z"/><path class="cls-2" d="M182.11,127.38c0-2.53,1.47-4.08,3.52-4.08a2.93,2.93,0,0,1,2.16,1l-.58.63a2.09,2.09,0,0,0-1.58-.7c-1.5,0-2.48,1.21-2.48,3.16s1,3.22,2.48,3.22a2.27,2.27,0,0,0,1.76-.87l.58.61a3,3,0,0,1-2.43,1.14C183.59,131.45,182.11,129.94,182.11,127.38Z"/><path class="cls-2" d="M191.62,124.29H189v-.85h6.21v.85h-2.6v7h-1Z"/><path class="cls-2" d="M196.5,127.38c0-2.53,1.48-4.08,3.53-4.08a2.93,2.93,0,0,1,2.16,1l-.58.63a2.09,2.09,0,0,0-1.58-.7c-1.5,0-2.48,1.21-2.48,3.16s1,3.22,2.48,3.22a2.27,2.27,0,0,0,1.76-.87l.58.61a3,3,0,0,1-2.44,1.14C198,131.45,196.5,129.94,196.5,127.38Z"/><path class="cls-2" d="M203.56,127.38c0-2.55,1.45-4.08,3.49-4.08a2.88,2.88,0,0,1,2.17,1l-.57.63a2.08,2.08,0,0,0-1.6-.7c-1.47,0-2.43,1.21-2.43,3.16s.87,3.22,2.41,3.22a2,2,0,0,0,1.35-.46v-2.05h-1.56v-.83h2.5v3.31a3.27,3.27,0,0,1-2.35.91C205,131.45,203.56,129.94,203.56,127.38Z"/><path class="cls-2" d="M210.9,127.38c0-2.53,1.48-4.08,3.53-4.08a2.93,2.93,0,0,1,2.16,1l-.58.63a2.09,2.09,0,0,0-1.58-.7c-1.5,0-2.48,1.21-2.48,3.16s1,3.22,2.48,3.22a2.27,2.27,0,0,0,1.76-.87l.58.61a3,3,0,0,1-2.44,1.14C212.39,131.45,210.9,129.94,210.9,127.38Z"/><path class="cls-2" d="M220.42,124.29h-2.6v-.85H224v.85h-2.6v7h-1Z"/><path class="cls-2" d="M225.16,127.38c0-2.55,1.45-4.08,3.49-4.08a2.88,2.88,0,0,1,2.17,1l-.57.63a2.08,2.08,0,0,0-1.6-.7c-1.47,0-2.43,1.21-2.43,3.16s.87,3.22,2.41,3.22a2,2,0,0,0,1.35-.46v-2.05h-1.56v-.83h2.5v3.31a3.27,3.27,0,0,1-2.35.91C226.59,131.45,225.16,129.94,225.16,127.38Z"/><path class="cls-2" d="M232.5,127.38c0-2.53,1.48-4.08,3.53-4.08a2.93,2.93,0,0,1,2.16,1l-.58.63a2.09,2.09,0,0,0-1.58-.7c-1.5,0-2.48,1.21-2.48,3.16s1,3.22,2.48,3.22a2.27,2.27,0,0,0,1.76-.87l.58.61a3,3,0,0,1-2.44,1.14C234,131.45,232.5,129.94,232.5,127.38Z"/><path class="cls-2" d="M239.56,127.38c0-2.55,1.45-4.08,3.49-4.08a2.88,2.88,0,0,1,2.17,1l-.57.63a2.08,2.08,0,0,0-1.6-.7c-1.47,0-2.43,1.21-2.43,3.16s.87,3.22,2.41,3.22a2,2,0,0,0,1.35-.46v-2.05h-1.56v-.83h2.5v3.31a3.27,3.27,0,0,1-2.35.91C241,131.45,239.56,129.94,239.56,127.38Z"/><path class="cls-2" d="M246.76,127.38c0-2.55,1.45-4.08,3.49-4.08a2.88,2.88,0,0,1,2.17,1l-.57.63a2.08,2.08,0,0,0-1.6-.7c-1.48,0-2.43,1.21-2.43,3.16s.87,3.22,2.41,3.22a2,2,0,0,0,1.35-.46v-2.05H250v-.83h2.5v3.31a3.27,3.27,0,0,1-2.35.91C248.19,131.45,246.76,129.94,246.76,127.38Z"/><path class="cls-2" d="M254.1,127.38c0-2.53,1.48-4.08,3.53-4.08a2.93,2.93,0,0,1,2.16,1l-.58.63a2.09,2.09,0,0,0-1.58-.7c-1.5,0-2.48,1.21-2.48,3.16s1,3.22,2.48,3.22a2.27,2.27,0,0,0,1.76-.87l.58.61a3,3,0,0,1-2.44,1.14C255.59,131.45,254.1,129.94,254.1,127.38Z"/><path class="cls-2" d="M263.62,124.29H261v-.85h6.21v.85h-2.6v7h-1Z"/><path class="cls-2" d="M268.5,127.38c0-2.53,1.48-4.08,3.53-4.08a2.93,2.93,0,0,1,2.16,1l-.58.63a2.09,2.09,0,0,0-1.58-.7c-1.5,0-2.48,1.21-2.48,3.16s1,3.22,2.48,3.22a2.27,2.27,0,0,0,1.76-.87l.58.61a3,3,0,0,1-2.44,1.14C270,131.45,268.5,129.94,268.5,127.38Z"/><path class="cls-2" d="M278,124.29h-2.6v-.85h6.21v.85H279v7h-1Z"/><path class="cls-2" d="M282.9,127.38c0-2.53,1.48-4.08,3.53-4.08a2.93,2.93,0,0,1,2.16,1l-.58.63a2.11,2.11,0,0,0-1.58-.7c-1.5,0-2.48,1.21-2.48,3.16s1,3.22,2.48,3.22a2.27,2.27,0,0,0,1.76-.87l.58.61a3,3,0,0,1-2.44,1.14C284.39,131.45,282.9,129.94,282.9,127.38Z"/><path class="cls-2" d="M292.42,124.29h-2.6v-.85H296v.85h-2.6v7h-1Z"/><path class="cls-2" d="M299.55,123.44h1.15l2.65,7.87h-1.08l-1.36-4.39c-.27-.87-.54-1.74-.78-2.65h0c-.26.91-.51,1.78-.78,2.65l-1.38,4.39h-1Zm-1.25,4.67h3.61v.81H298.3Z"/><path class="cls-2" d="M306.82,124.29h-2.6v-.85h6.21v.85h-2.6v7h-1Z"/><path class="cls-2" d="M314,123.44h1.15l2.65,7.87h-1.08l-1.36-4.39c-.27-.87-.54-1.74-.78-2.65h0c-.26.91-.51,1.78-.78,2.65l-1.38,4.39h-1Zm-1.25,4.67h3.61v.81H312.7Z"/><path class="cls-2" d="M321.15,123.44h1.15l2.65,7.87h-1.08l-1.36-4.39c-.27-.87-.54-1.74-.78-2.65h0c-.26.91-.51,1.78-.78,2.65l-1.38,4.39h-1Zm-1.25,4.67h3.61v.81H319.9Z"/><path class="cls-2" d="M328.35,123.44h1.15l2.65,7.87h-1.08l-1.36-4.39c-.27-.87-.54-1.74-.78-2.65h0c-.26.91-.51,1.78-.78,2.65l-1.38,4.39h-1Zm-1.25,4.67h3.61v.81H327.1Z"/><path class="cls-2" d="M335.62,124.29H333v-.85h6.21v.85h-2.61v7h-1Z"/><path class="cls-2" d="M342.75,123.44h1.15l2.65,7.87h-1.08l-1.36-4.39c-.27-.87-.54-1.74-.78-2.65h0c-.26.91-.51,1.78-.79,2.65l-1.37,4.39h-1Zm-1.25,4.67h3.61v.81H341.5Z"/><path class="cls-2" d="M350,123.44h1.15l2.65,7.87h-1.08l-1.36-4.39c-.27-.87-.54-1.74-.78-2.65h0c-.26.91-.51,1.78-.78,2.65l-1.38,4.39h-1Zm-1.25,4.67h3.61v.81H348.7Z"/><path class="cls-2" d="M357.22,124.29h-2.6v-.85h6.21v.85h-2.61v7h-1Z"/><path class="cls-2" d="M362.1,127.38c0-2.53,1.48-4.08,3.53-4.08a2.93,2.93,0,0,1,2.16,1l-.58.63a2.11,2.11,0,0,0-1.58-.7c-1.5,0-2.48,1.21-2.48,3.16s1,3.22,2.48,3.22a2.27,2.27,0,0,0,1.76-.87l.58.61a3.05,3.05,0,0,1-2.44,1.14C363.59,131.45,362.1,129.94,362.1,127.38Z"/><path class="cls-2" d="M371.62,124.29H369v-.85h6.22v.85h-2.61v7h-1Z"/><path class="cls-2" d="M376.5,127.38c0-2.53,1.48-4.08,3.53-4.08a2.93,2.93,0,0,1,2.16,1l-.58.63a2.11,2.11,0,0,0-1.58-.7c-1.5,0-2.48,1.21-2.48,3.16s1,3.22,2.48,3.22a2.27,2.27,0,0,0,1.76-.87l.58.61a3.05,3.05,0,0,1-2.44,1.14C378,131.45,376.5,129.94,376.5,127.38Z"/><path class="cls-2" d="M386,124.29h-2.6v-.85h6.21v.85H387v7h-1Z"/><path class="cls-2" d="M393.14,123.44h1.16l2.65,7.87h-1.08l-1.36-4.39c-.27-.87-.54-1.74-.78-2.65h-.05c-.25.91-.5,1.78-.78,2.65l-1.37,4.39h-1Zm-1.24,4.67h3.61v.81H391.9Z"/><path class="cls-2" d="M400.42,124.29h-2.61v-.85H404v.85h-2.61v7h-1Z"/><path class="cls-2" d="M407.54,123.44h1.16l2.65,7.87h-1.08l-1.36-4.39c-.27-.87-.54-1.74-.78-2.65h-.05c-.25.91-.5,1.78-.78,2.65l-1.37,4.39h-1Zm-1.24,4.67h3.61v.81H406.3Z"/><path class="cls-2" d="M414.82,124.29h-2.61v-.85h6.22v.85h-2.61v7h-1Z"/><path class="cls-2" d="M421.94,123.44h1.16l2.65,7.87h-1.08l-1.36-4.39c-.27-.87-.54-1.74-.78-2.65h0c-.25.91-.5,1.78-.78,2.65l-1.37,4.39h-1Zm-1.24,4.67h3.61v.81H420.7Z"/><path class="cls-2" d="M426.76,127.38c0-2.55,1.45-4.08,3.49-4.08a2.9,2.9,0,0,1,2.17,1l-.58.63a2.06,2.06,0,0,0-1.59-.7c-1.48,0-2.44,1.21-2.44,3.16s.88,3.22,2.41,3.22a2,2,0,0,0,1.36-.46v-2.05H430v-.83h2.49v3.31a3.27,3.27,0,0,1-2.35.91C428.18,131.45,426.76,129.94,426.76,127.38Z"/><path class="cls-2" d="M436.34,123.44h1.16l2.65,7.87h-1.08l-1.36-4.39c-.28-.87-.54-1.74-.78-2.65h-.05c-.25.91-.5,1.78-.78,2.65l-1.38,4.39h-1Zm-1.24,4.67h3.61v.81H435.1Z"/><path class="cls-2" d="M443.62,124.29H441v-.85h6.22v.85h-2.61v7h-1Z"/><path class="cls-2" d="M450.74,123.44h1.16l2.65,7.87h-1.08l-1.36-4.39c-.28-.87-.54-1.74-.78-2.65h-.05c-.25.91-.5,1.78-.78,2.65l-1.38,4.39h-1Zm-1.24,4.67h3.61v.81H449.5Z"/><path class="cls-2" d="M458,124.29h-2.61v-.85h6.21v.85H459v7h-1Z"/><path class="cls-2" d="M465.14,123.44h1.15l2.66,7.87h-1.08l-1.36-4.39c-.28-.87-.54-1.74-.78-2.65h-.05c-.25.91-.5,1.78-.78,2.65l-1.38,4.39h-1Zm-1.24,4.67h3.61v.81H463.9Z"/><path class="cls-2" d="M472.42,124.29h-2.61v-.85H476v.85h-2.61v7h-1Z"/><path class="cls-2" d="M479.54,123.44h1.16l2.65,7.87h-1.08l-1.36-4.39c-.28-.87-.54-1.74-.78-2.65h-.05c-.25.91-.5,1.78-.78,2.65l-1.38,4.39h-1Zm-1.24,4.67h3.61v.81H478.3Z"/><path class="cls-2" d="M486.74,123.44h1.15l2.65,7.87h-1.07l-1.36-4.39c-.28-.87-.54-1.74-.78-2.65h-.05c-.25.91-.5,1.78-.78,2.65l-1.38,4.39h-1Zm-1.24,4.67h3.61v.81H485.5Z"/><path class="cls-2" d="M493.94,123.44h1.15l2.66,7.87h-1.08l-1.36-4.39c-.28-.87-.54-1.74-.78-2.65h0c-.25.91-.5,1.78-.78,2.65l-1.38,4.39h-1Zm-1.24,4.67h3.61v.81H492.7Z"/><path class="cls-2" d="M501.14,123.44h1.15l2.66,7.87h-1.08l-1.36-4.39c-.28-.87-.54-1.74-.78-2.65h-.05c-.25.91-.5,1.78-.78,2.65l-1.38,4.39h-1Zm-1.24,4.67h3.61v.81H499.9Z"/><path class="cls-2" d="M506,127.38c0-2.55,1.45-4.08,3.49-4.08a2.9,2.9,0,0,1,2.17,1l-.58.63a2.06,2.06,0,0,0-1.59-.7c-1.48,0-2.44,1.21-2.44,3.16s.88,3.22,2.41,3.22a2,2,0,0,0,1.36-.46v-2.05h-1.56v-.83h2.49v3.31a3.27,3.27,0,0,1-2.35.91C507.38,131.45,506,129.94,506,127.38Z"/><path class="cls-2" d="M515.62,124.29H513v-.85h6.21v.85h-2.6v7h-1Z"/><path class="cls-2" d="M522.74,123.44h1.15l2.65,7.87h-1.07l-1.36-4.39c-.28-.87-.54-1.74-.78-2.65h-.05c-.25.91-.5,1.78-.78,2.65l-1.38,4.39h-1Zm-1.24,4.67h3.61v.81H521.5Z"/><path class="cls-2" d="M527.56,127.38c0-2.55,1.45-4.08,3.49-4.08a2.9,2.9,0,0,1,2.17,1l-.58.63a2.06,2.06,0,0,0-1.59-.7c-1.48,0-2.44,1.21-2.44,3.16s.88,3.22,2.41,3.22a2,2,0,0,0,1.36-.46v-2.05h-1.56v-.83h2.49v3.31a3.27,3.27,0,0,1-2.35.91C529,131.45,527.56,129.94,527.56,127.38Z"/><path class="cls-2" d="M536.75,130.43a1,1,0,1,1,1,1A1,1,0,0,1,536.75,130.43Z"/><path class="cls-2" d="M544,130.43a1,1,0,1,1,1,1A1,1,0,0,1,544,130.43Z"/><path class="cls-2" d="M551.15,130.43a1,1,0,1,1,1,1A1,1,0,0,1,551.15,130.43Z"/><rect class="cls-3" x="94.48" y="74.99" width="84.23" height="10.83"/><line class="cls-4" x1="178.71" y1="80.4" x2="225.07" y2="80.4"/><polygon class="cls-2" points="224.25 83.21 229.11 80.4 224.25 77.6 224.25 83.21"/><rect class="cls-3" x="229.11" y="74.99" width="84.23" height="10.83"/><line class="cls-4" x1="178.23" y1="100.14" x2="224.78" y2="100.14"/><polygon class="cls-2" points="223.96 102.94 228.81 100.14 223.96 97.33 223.96 102.94"/><rect class="cls-3" x="116.56" y="94.72" width="61.68" height="10.83"/><rect class="cls-3" x="228.81" y="94.72" width="84.52" height="10.83"/><rect class="cls-5" x="353.75" y="153.72" width="24.51" height="10.83"/><line class="cls-4" x1="382.3" y1="159.14" x2="475.08" y2="159.14"/><polygon class="cls-2" points="383.12 161.94 378.27 159.14 383.12 156.33 383.12 161.94"/><rect class="cls-5" x="475.08" y="153.72" width="36.86" height="10.83"/><line class="cls-4" x1="381.83" y1="178.87" x2="428.37" y2="178.87"/><polygon class="cls-2" points="382.65 181.67 377.79 178.87 382.65 176.06 382.65 181.67"/><rect class="cls-5" x="366.96" y="173.46" width="10.83" height="10.83"/><rect class="cls-5" x="428.37" y="173.46" width="25.21" height="10.83"/><line class="cls-4" x1="457.62" y1="178.87" x2="475.08" y2="178.87"/><polygon class="cls-2" points="458.44 181.67 453.58 178.87 458.44 176.06 458.44 181.67"/><rect class="cls-5" x="475.08" y="173.46" width="36.86" height="10.83"/><text class="cls-6" transform="translate(15.68 139.5)">chr1</text></svg>