<svg id="Layer_1" data-name="Layer 1" xmlns="http://www.w3.org/2000/svg" viewBox="0 0 595.28 149.35"><defs><style>.cls-1{fill:none;}.cls-1,.cls-3{stroke:#1d1d1b;stroke-miterlimit:10;}.cls-2{font-size:12px;}.cls-2,.cls-4{fill:#1d1d1b;font-family:MyriadPro-Regular, Myriad Pro;}.cls-3{fill:#ededed;}.cls-4{font-size:8px;}</style></defs><line class="cls-1" x1="206.06" y1="95.71" x2="389.22" y2="95.71"/><line class="cls-1" x1="212.43" y1="101.38" x2="212.34" y2="95.71"/><line class="cls-1" x1="227.86" y1="101.38" x2="227.78" y2="95.71"/><line class="cls-1" x1="243.29" y1="101.38" x2="243.21" y2="95.71"/><line class="cls-1" x1="258.72" y1="101.38" x2="258.64" y2="95.71"/><line class="cls-1" x1="274.16" y1="101.38" x2="274.08" y2="95.71"/><line class="cls-1" x1="289.59" y1="101.38" x2="289.51" y2="95.71"/><line class="cls-1" x1="305.02" y1="101.38" x2="304.94" y2="95.71"/><line class="cls-1" x1="320.46" y1="101.38" x2="320.37" y2="95.71"/><line class="cls-1" x1="335.89" y1="101.38" x2="335.81" y2="95.71"/><line class="cls-1" x1="351.32" y1="101.38" x2="351.24" y2="95.71"/><line class="cls-1" x1="366.75" y1="101.38" x2="366.67" y2="95.71"/><line class="cls-1" x1="382.19" y1="101.38" x2="382.11" y2="95.71"/><text class="cls-2" transform="translate(209.31 116.17)">1</text><text class="cls-2" transform="translate(224.74 116.17)">2</text><text class="cls-2" transform="translate(240.17 116.17)">3</text><text class="cls-2" transform="translate(255.61 116.17)">4</text><text class="cls-2" transform="translate(271.04 116.17)">5</text><text class="cls-2" transform="translate(286.47 116.17)">6</text><text class="cls-2" transform="translate(301.9 116.17)">7</text><text class="cls-2" transform="translate(345.12 116.17)">10</text><text class="cls-2" transform="translate(317.34 116.17)">8</text><text class="cls-2" transform="translate(332.77 116.17)">9</text><text class="cls-2" transform="translate(345.12 116.17)">10</text><rect class="cls-3" x="274.12" y="68.09" width="61.73" height="12.87"/><text class="cls-2" transform="translate(301.31 78.53)">A</text><rect class="cls-3" x="211.83" y="50.04" width="30.87" height="12.87"/><text class="cls-2" transform="translate(224.01 60.11)">B</text><rect class="cls-3" x="243.25" y="31.8" width="46.3" height="12.87"/><text class="cls-2" transform="translate(262.92 41.88)">C</text><text class="cls-2" transform="translate(362.99 116.17)">...</text><text class="cls-4" transform="translate(249.59 58.92)">width = 2</text><text class="cls-4" transform="translate(295.83 40.69)">width = 3</text><text class="cls-4" transform="translate(341.19 77.16)">width = 4</text></svg>