<?xml version="1.0" encoding="utf-8"?>
<!-- Generator: Adobe Illustrator 25.4.1, SVG Export Plug-In . SVG Version: 6.00 Build 0)  -->
<svg version="1.1" id="Layer_1" xmlns="http://www.w3.org/2000/svg" xmlns:xlink="http://www.w3.org/1999/xlink" x="0px" y="0px"
	 viewBox="0 0 652 198.4" style="enable-background:new 0 0 652 198.4;" xml:space="preserve">
<style type="text/css">
	.st0{font-family:'MyriadPro-Regular';}
	.st1{font-size:12px;}
	.st2{fill:none;stroke:#000000;stroke-miterlimit:10;}
	.st3{fill:#FFFFFF;stroke:#000000;stroke-width:0.5;stroke-miterlimit:10;}
	.st4{fill:#E30613;}
	.st5{fill:#009640;}
	.st6{fill:#312783;}
	.st7{fill:#F39200;}
	.st8{fill:#706F6F;}
</style>
<text transform="matrix(1 0 0 1 357.894 95.7888)" class="st0 st1">Run-length encoding</text>
<g>
	<g>
		<line class="st2" x1="336.5" y1="75.7" x2="336.5" y2="103.7"/>
		<g>
			<polygon points="331.5,102.3 336.5,110.9 341.5,102.3 			"/>
		</g>
	</g>
</g>
<g>
	<rect x="136.4" y="34.3" class="st3" width="13.8" height="13.8"/>
	<text transform="matrix(1 0 0 1 139.6321 44.702)" class="st4 st0 st1">A</text>
	<rect x="150.2" y="34.3" class="st3" width="13.8" height="13.8"/>
	<text transform="matrix(1 0 0 1 154.0902 44.702)" class="st5 st0 st1">T</text>
	<rect x="164" y="34.3" class="st3" width="13.8" height="13.8"/>
	<text transform="matrix(1 0 0 1 166.9642 44.702)" class="st6 st0 st1">G</text>
	<rect x="177.7" y="34.3" class="st3" width="13.8" height="13.8"/>
	<text transform="matrix(1 0 0 1 181.1284 44.702)" class="st7 st0 st1">C</text>
	<rect x="191.5" y="34.3" class="st3" width="13.8" height="13.8"/>
	<text transform="matrix(1 0 0 1 194.4287 44.702)" class="st8 st0 st1">N</text>
	<rect x="205.3" y="34.3" class="st3" width="13.8" height="13.8"/>
	<text transform="matrix(1 0 0 1 208.1968 44.702)" class="st8 st0 st1">N</text>
	<rect x="219.2" y="34.3" class="st3" width="13.8" height="13.8"/>
	<text transform="matrix(1 0 0 1 222.1293 44.702)" class="st8 st0 st1">N</text>
	<rect x="233" y="34.3" class="st3" width="13.8" height="13.8"/>
	<text transform="matrix(1 0 0 1 235.8974 44.702)" class="st8 st0 st1">N</text>
	<rect x="246.9" y="34.3" class="st3" width="13.8" height="13.8"/>
	<text transform="matrix(1 0 0 1 249.83 44.702)" class="st8 st0 st1">N</text>
	<rect x="260.7" y="34.3" class="st3" width="13.8" height="13.8"/>
	<text transform="matrix(1 0 0 1 263.5981 44.702)" class="st8 st0 st1">N</text>
	<rect x="274.6" y="34.3" class="st3" width="13.8" height="13.8"/>
	<text transform="matrix(1 0 0 1 277.5306 44.702)" class="st8 st0 st1">N</text>
	<rect x="288.4" y="34.3" class="st3" width="13.8" height="13.8"/>
	<text transform="matrix(1 0 0 1 291.2987 44.702)" class="st8 st0 st1">N</text>
	<rect x="302.1" y="34.3" class="st3" width="13.8" height="13.8"/>
	<text transform="matrix(1 0 0 1 305.3427 44.702)" class="st4 st0 st1">A</text>
	<rect x="315.9" y="34.3" class="st3" width="13.8" height="13.8"/>
	<text transform="matrix(1 0 0 1 319.1108 44.702)" class="st4 st0 st1">A</text>
	<rect x="329.7" y="34.3" class="st3" width="13.8" height="13.8"/>
	<text transform="matrix(1 0 0 1 332.6748 44.702)" class="st6 st0 st1">G</text>
	<rect x="343.4" y="34.3" class="st3" width="13.8" height="13.8"/>
	<text transform="matrix(1 0 0 1 346.839 44.702)" class="st7 st0 st1">C</text>
	<rect x="357.2" y="34.3" class="st3" width="13.8" height="13.8"/>
	<text transform="matrix(1 0 0 1 360.1393 44.702)" class="st8 st0 st1">N</text>
	<rect x="371" y="34.3" class="st3" width="13.8" height="13.8"/>
	<text transform="matrix(1 0 0 1 373.9074 44.702)" class="st8 st0 st1">N</text>
	<rect x="384.9" y="34.3" class="st3" width="13.8" height="13.8"/>
	<text transform="matrix(1 0 0 1 387.8399 44.702)" class="st8 st0 st1">N</text>
	<rect x="398.7" y="34.3" class="st3" width="13.8" height="13.8"/>
	<text transform="matrix(1 0 0 1 401.6081 44.702)" class="st8 st0 st1">N</text>
	<rect x="412.6" y="34.3" class="st3" width="13.8" height="13.8"/>
	<text transform="matrix(1 0 0 1 415.5406 44.702)" class="st8 st0 st1">N</text>
	<rect x="426.4" y="34.3" class="st3" width="13.8" height="13.8"/>
	<text transform="matrix(1 0 0 1 429.3087 44.702)" class="st8 st0 st1">N</text>
	<rect x="440.3" y="34.3" class="st3" width="13.8" height="13.8"/>
	<text transform="matrix(1 0 0 1 443.2413 44.702)" class="st8 st0 st1">N</text>
	<rect x="454.1" y="34.3" class="st3" width="13.8" height="13.8"/>
	<text transform="matrix(1 0 0 1 457.0094 44.702)" class="st8 st0 st1">N</text>
	<rect x="495.2" y="34.3" class="st3" width="13.8" height="13.8"/>
	<text transform="matrix(1 0 0 1 499.1147 44.702)" class="st5 st0 st1">T</text>
	<rect x="509" y="34.3" class="st3" width="13.8" height="13.8"/>
	<text transform="matrix(1 0 0 1 511.9888 44.702)" class="st6 st0 st1">G</text>
	<rect x="522.7" y="34.3" class="st3" width="13.8" height="13.8"/>
	<text transform="matrix(1 0 0 1 526.1529 44.702)" class="st7 st0 st1">C</text>
	<rect x="467.7" y="34.3" class="st3" width="13.8" height="13.8"/>
	<text transform="matrix(1 0 0 1 470.6127 44.702)" class="st8 st0 st1">N</text>
	<rect x="481.4" y="34.3" class="st3" width="13.8" height="13.8"/>
	<text transform="matrix(1 0 0 1 484.3808 44.702)" class="st8 st0 st1">N</text>
</g>
<g>
	<rect x="253.7" y="131.6" class="st3" width="13.8" height="13.8"/>
	<text transform="matrix(1 0 0 1 256.9075 142.0193)" class="st4 st0 st1">A</text>
	<rect x="267.5" y="131.6" class="st3" width="13.8" height="13.8"/>
	<text transform="matrix(1 0 0 1 271.3655 142.0193)" class="st5 st0 st1">T</text>
	<rect x="281.2" y="131.6" class="st3" width="13.8" height="13.8"/>
	<text transform="matrix(1 0 0 1 284.2396 142.0193)" class="st6 st0 st1">G</text>
	<rect x="295" y="131.6" class="st3" width="13.8" height="13.8"/>
	<text transform="matrix(1 0 0 1 298.4037 142.0193)" class="st7 st0 st1">C</text>
	<rect x="308.8" y="131.6" class="st3" width="13.8" height="13.8"/>
	<text transform="matrix(1 0 0 1 311.7041 142.0193)" class="st8 st0 st1">N</text>
	<rect x="322.7" y="131.6" class="st3" width="13.8" height="13.8"/>
	<text transform="matrix(1 0 0 1 325.9125 142.0193)" class="st4 st0 st1">A</text>
	<rect x="336.5" y="131.6" class="st3" width="13.8" height="13.8"/>
	<text transform="matrix(1 0 0 1 339.476 142.0193)" class="st6 st0 st1">G</text>
	<rect x="350.2" y="131.6" class="st3" width="13.8" height="13.8"/>
	<text transform="matrix(1 0 0 1 353.6402 142.0193)" class="st7 st0 st1">C</text>
	<rect x="364" y="131.6" class="st3" width="13.8" height="13.8"/>
	<text transform="matrix(1 0 0 1 366.9405 142.0193)" class="st8 st0 st1">N</text>
	<rect x="253.7" y="145.4" class="st3" width="13.8" height="13.8"/>
	<text transform="matrix(1 0 0 1 257.5013 155.7875)" class="st4 st0 st1">1</text>
	<rect x="267.5" y="145.4" class="st3" width="13.8" height="13.8"/>
	<text transform="matrix(1 0 0 1 271.2693 155.7875)" class="st5 st0 st1">1</text>
	<rect x="281.2" y="145.4" class="st3" width="13.8" height="13.8"/>
	<text transform="matrix(1 0 0 1 285.0375 155.7875)" class="st6 st0 st1">1</text>
	<rect x="295" y="145.4" class="st3" width="13.8" height="13.8"/>
	<text transform="matrix(1 0 0 1 298.8056 155.7875)" class="st7 st0 st1">1</text>
	<rect x="308.8" y="145.4" class="st3" width="13.8" height="13.8"/>
	<text transform="matrix(1 0 0 1 312.5737 155.7875)" class="st8 st0 st1">8</text>
	<rect x="322.7" y="145.4" class="st3" width="13.8" height="13.8"/>
	<text transform="matrix(1 0 0 1 326.5062 155.7875)" class="st4 st0 st1">2</text>
	<rect x="336.5" y="145.4" class="st3" width="13.8" height="13.8"/>
	<text transform="matrix(1 0 0 1 340.2739 155.7875)" class="st6 st0 st1">1</text>
	<rect x="350.2" y="145.4" class="st3" width="13.8" height="13.8"/>
	<text transform="matrix(1 0 0 1 354.042 155.7875)" class="st7 st0 st1">1</text>
	<rect x="364" y="145.4" class="st3" width="13.8" height="13.8"/>
	<text transform="matrix(1 0 0 1 364.7325 155.7875)" class="st8 st0 st1">10</text>
	<rect x="377.9" y="131.6" class="st3" width="13.8" height="13.8"/>
	<text transform="matrix(1 0 0 1 381.8393 142.0193)" class="st5 st0 st1">T</text>
	<rect x="391.7" y="131.6" class="st3" width="13.8" height="13.8"/>
	<text transform="matrix(1 0 0 1 394.7134 142.0193)" class="st6 st0 st1">G</text>
	<rect x="405.5" y="131.6" class="st3" width="13.8" height="13.8"/>
	<text transform="matrix(1 0 0 1 408.8775 142.0193)" class="st7 st0 st1">C</text>
	<rect x="377.9" y="145.4" class="st3" width="13.8" height="13.8"/>
	<text transform="matrix(1 0 0 1 381.7431 155.7875)" class="st5 st0 st1">1</text>
	<rect x="391.7" y="145.4" class="st3" width="13.8" height="13.8"/>
	<text transform="matrix(1 0 0 1 395.5112 155.7875)" class="st6 st0 st1">1</text>
	<rect x="405.5" y="145.4" class="st3" width="13.8" height="13.8"/>
	<text transform="matrix(1 0 0 1 409.2793 155.7875)" class="st7 st0 st1">1</text>
</g>
</svg>
