<?xml version="1.0" encoding="utf-8"?>
<!-- Generator: Adobe Illustrator 26.2.1, SVG Export Plug-In . SVG Version: 6.00 Build 0)  -->
<svg version="1.1" id="Layer_1" xmlns="http://www.w3.org/2000/svg" xmlns:xlink="http://www.w3.org/1999/xlink" x="0px" y="0px"
	 viewBox="0 0 652 198.4" style="enable-background:new 0 0 652 198.4;" xml:space="preserve">
<style type="text/css">
	.st0{font-family:'ArialMT';}
	.st1{font-size:12px;}
	.st2{fill:none;stroke:#000000;stroke-miterlimit:10;}
	.st3{fill:#FFFFFF;stroke:#000000;stroke-width:0.5;stroke-miterlimit:10;}
	.st4{fill:#E30613;}
	.st5{fill:#009640;}
	.st6{fill:#312783;}
	.st7{fill:#F39200;}
	.st8{fill:#706F6F;}
</style>
<text transform="matrix(1 0 0 1 357.894 95.7888)" class="st0 st1">Run-length encoding</text>
<g>
	<g>
		<line class="st2" x1="336.5" y1="75.7" x2="336.5" y2="103.7"/>
		<g>
			<polygon points="331.5,102.3 336.5,110.9 341.5,102.3 			"/>
		</g>
	</g>
</g>
<g>
	<rect x="136.4" y="34.3" class="st3" width="13.8" height="13.8"/>
	<text transform="matrix(1 0 0 1 139.302 44.702)" class="st4 st0 st1">A</text>
	<rect x="150.2" y="34.3" class="st3" width="13.8" height="13.8"/>
	<text transform="matrix(1 0 0 1 153.4071 44.702)" class="st5 st0 st1">T</text>
	<rect x="164" y="34.3" class="st3" width="13.8" height="13.8"/>
	<text transform="matrix(1 0 0 1 166.1732 44.702)" class="st6 st0 st1">G</text>
	<rect x="177.7" y="34.3" class="st3" width="13.8" height="13.8"/>
	<text transform="matrix(1 0 0 1 180.2753 44.702)" class="st7 st0 st1">C</text>
	<rect x="191.5" y="34.3" class="st3" width="13.8" height="13.8"/>
	<text transform="matrix(1 0 0 1 194.0434 44.702)" class="st8 st0 st1">N</text>
	<rect x="205.3" y="34.3" class="st3" width="13.8" height="13.8"/>
	<text transform="matrix(1 0 0 1 207.8116 44.702)" class="st8 st0 st1">N</text>
	<rect x="219.2" y="34.3" class="st3" width="13.8" height="13.8"/>
	<text transform="matrix(1 0 0 1 221.7441 44.702)" class="st8 st0 st1">N</text>
	<rect x="233" y="34.3" class="st3" width="13.8" height="13.8"/>
	<text transform="matrix(1 0 0 1 235.5122 44.702)" class="st8 st0 st1">N</text>
	<rect x="246.9" y="34.3" class="st3" width="13.8" height="13.8"/>
	<text transform="matrix(1 0 0 1 249.4447 44.702)" class="st8 st0 st1">N</text>
	<rect x="260.7" y="34.3" class="st3" width="13.8" height="13.8"/>
	<text transform="matrix(1 0 0 1 263.2128 44.702)" class="st8 st0 st1">N</text>
	<rect x="274.6" y="34.3" class="st3" width="13.8" height="13.8"/>
	<text transform="matrix(1 0 0 1 277.1454 44.702)" class="st8 st0 st1">N</text>
	<rect x="288.4" y="34.3" class="st3" width="13.8" height="13.8"/>
	<text transform="matrix(1 0 0 1 290.9135 44.702)" class="st8 st0 st1">N</text>
	<rect x="302.1" y="34.3" class="st3" width="13.8" height="13.8"/>
	<text transform="matrix(1 0 0 1 305.0126 44.702)" class="st4 st0 st1">A</text>
	<rect x="315.9" y="34.3" class="st3" width="13.8" height="13.8"/>
	<text transform="matrix(1 0 0 1 318.7808 44.702)" class="st4 st0 st1">A</text>
	<rect x="329.7" y="34.3" class="st3" width="13.8" height="13.8"/>
	<text transform="matrix(1 0 0 1 331.8838 44.702)" class="st6 st0 st1">G</text>
	<rect x="343.4" y="34.3" class="st3" width="13.8" height="13.8"/>
	<text transform="matrix(1 0 0 1 345.9859 44.702)" class="st7 st0 st1">C</text>
	<rect x="357.2" y="34.3" class="st3" width="13.8" height="13.8"/>
	<text transform="matrix(1 0 0 1 359.7541 44.702)" class="st8 st0 st1">N</text>
	<rect x="371" y="34.3" class="st3" width="13.8" height="13.8"/>
	<text transform="matrix(1 0 0 1 373.5222 44.702)" class="st8 st0 st1">N</text>
	<rect x="384.9" y="34.3" class="st3" width="13.8" height="13.8"/>
	<text transform="matrix(1 0 0 1 387.4547 44.702)" class="st8 st0 st1">N</text>
	<rect x="398.7" y="34.3" class="st3" width="13.8" height="13.8"/>
	<text transform="matrix(1 0 0 1 401.2228 44.702)" class="st8 st0 st1">N</text>
	<rect x="412.6" y="34.3" class="st3" width="13.8" height="13.8"/>
	<text transform="matrix(1 0 0 1 415.1554 44.702)" class="st8 st0 st1">N</text>
	<rect x="426.4" y="34.3" class="st3" width="13.8" height="13.8"/>
	<text transform="matrix(1 0 0 1 428.9235 44.702)" class="st8 st0 st1">N</text>
	<rect x="440.3" y="34.3" class="st3" width="13.8" height="13.8"/>
	<text transform="matrix(1 0 0 1 442.856 44.702)" class="st8 st0 st1">N</text>
	<rect x="454.1" y="34.3" class="st3" width="13.8" height="13.8"/>
	<text transform="matrix(1 0 0 1 456.6241 44.702)" class="st8 st0 st1">N</text>
	<rect x="495.2" y="34.3" class="st3" width="13.8" height="13.8"/>
	<text transform="matrix(1 0 0 1 498.4316 44.702)" class="st5 st0 st1">T</text>
	<rect x="509" y="34.3" class="st3" width="13.8" height="13.8"/>
	<text transform="matrix(1 0 0 1 511.1978 44.702)" class="st6 st0 st1">G</text>
	<rect x="522.7" y="34.3" class="st3" width="13.8" height="13.8"/>
	<text transform="matrix(1 0 0 1 525.2999 44.702)" class="st7 st0 st1">C</text>
	<rect x="467.7" y="34.3" class="st3" width="13.8" height="13.8"/>
	<text transform="matrix(1 0 0 1 470.2274 44.702)" class="st8 st0 st1">N</text>
	<rect x="481.4" y="34.3" class="st3" width="13.8" height="13.8"/>
	<text transform="matrix(1 0 0 1 483.9955 44.702)" class="st8 st0 st1">N</text>
</g>
<g>
	<rect x="253.7" y="131.6" class="st3" width="13.8" height="13.8"/>
	<text transform="matrix(1 0 0 1 256.5774 142.0193)" class="st4 st0 st1">A</text>
	<rect x="267.5" y="131.6" class="st3" width="13.8" height="13.8"/>
	<text transform="matrix(1 0 0 1 270.6824 142.0193)" class="st5 st0 st1">T</text>
	<rect x="281.2" y="131.6" class="st3" width="13.8" height="13.8"/>
	<text transform="matrix(1 0 0 1 283.4486 142.0193)" class="st6 st0 st1">G</text>
	<rect x="295" y="131.6" class="st3" width="13.8" height="13.8"/>
	<text transform="matrix(1 0 0 1 297.5507 142.0193)" class="st7 st0 st1">C</text>
	<rect x="308.8" y="131.6" class="st3" width="13.8" height="13.8"/>
	<text transform="matrix(1 0 0 1 311.3188 142.0193)" class="st8 st0 st1">N</text>
	<rect x="322.7" y="131.6" class="st3" width="13.8" height="13.8"/>
	<text transform="matrix(1 0 0 1 325.5824 142.0193)" class="st4 st0 st1">A</text>
	<rect x="336.5" y="131.6" class="st3" width="13.8" height="13.8"/>
	<text transform="matrix(1 0 0 1 338.685 142.0193)" class="st6 st0 st1">G</text>
	<rect x="350.2" y="131.6" class="st3" width="13.8" height="13.8"/>
	<text transform="matrix(1 0 0 1 352.7871 142.0193)" class="st7 st0 st1">C</text>
	<rect x="364" y="131.6" class="st3" width="13.8" height="13.8"/>
	<text transform="matrix(1 0 0 1 366.5553 142.0193)" class="st8 st0 st1">N</text>
	<rect x="253.7" y="145.4" class="st3" width="13.8" height="13.8"/>
	<text transform="matrix(1 0 0 1 257.2425 155.7875)" class="st4 st0 st1">1</text>
	<rect x="267.5" y="145.4" class="st3" width="13.8" height="13.8"/>
	<text transform="matrix(1 0 0 1 271.0106 155.7875)" class="st5 st0 st1">1</text>
	<rect x="281.2" y="145.4" class="st3" width="13.8" height="13.8"/>
	<text transform="matrix(1 0 0 1 284.7787 155.7875)" class="st6 st0 st1">1</text>
	<rect x="295" y="145.4" class="st3" width="13.8" height="13.8"/>
	<text transform="matrix(1 0 0 1 298.5468 155.7875)" class="st7 st0 st1">1</text>
	<rect x="308.8" y="145.4" class="st3" width="13.8" height="13.8"/>
	<text transform="matrix(1 0 0 1 312.3149 155.7875)" class="st8 st0 st1">8</text>
	<rect x="322.7" y="145.4" class="st3" width="13.8" height="13.8"/>
	<text transform="matrix(1 0 0 1 326.2474 155.7875)" class="st4 st0 st1">2</text>
	<rect x="336.5" y="145.4" class="st3" width="13.8" height="13.8"/>
	<text transform="matrix(1 0 0 1 340.0151 155.7875)" class="st6 st0 st1">1</text>
	<rect x="350.2" y="145.4" class="st3" width="13.8" height="13.8"/>
	<text transform="matrix(1 0 0 1 353.7832 155.7875)" class="st7 st0 st1">1</text>
	<rect x="364" y="145.4" class="st3" width="13.8" height="13.8"/>
	<text transform="matrix(1 0 0 1 364.2144 155.7875)" class="st8 st0 st1">10</text>
	<rect x="377.9" y="131.6" class="st3" width="13.8" height="13.8"/>
	<text transform="matrix(1 0 0 1 381.1562 142.0193)" class="st5 st0 st1">T</text>
	<rect x="391.7" y="131.6" class="st3" width="13.8" height="13.8"/>
	<text transform="matrix(1 0 0 1 393.9224 142.0193)" class="st6 st0 st1">G</text>
	<rect x="405.5" y="131.6" class="st3" width="13.8" height="13.8"/>
	<text transform="matrix(1 0 0 1 408.0245 142.0193)" class="st7 st0 st1">C</text>
	<rect x="377.9" y="145.4" class="st3" width="13.8" height="13.8"/>
	<text transform="matrix(1 0 0 1 381.4843 155.7875)" class="st5 st0 st1">1</text>
	<rect x="391.7" y="145.4" class="st3" width="13.8" height="13.8"/>
	<text transform="matrix(1 0 0 1 395.2524 155.7875)" class="st6 st0 st1">1</text>
	<rect x="405.5" y="145.4" class="st3" width="13.8" height="13.8"/>
	<text transform="matrix(1 0 0 1 409.0205 155.7875)" class="st7 st0 st1">1</text>
</g>
</svg>
